{
.appVersion = "3134";
.storedFileType = com.glyphsapp.glyphspackage;
.formatVersion = 3;
DisplayStrings = (
"đ",
"Ð",
"ł",
"ħ",
"eæ",
"æ",
$,
"|",
"°",
"¢",
"/cent.bold",
"/dollar.bold",
"c&c"
);
axes = (
{
name = Weight;
tag = wght;
},
{
name = Italic;
tag = ital;
}
);
date = "2024-07-30 02:16:30 +0000";
familyName = "College Sans";
featurePrefixes = (
{
automatic = 1;
code = "languagesystem DFLT dflt;

languagesystem latn dflt;
languagesystem latn CAT;
";
name = Languagesystems;
}
);
features = (
{
automatic = 1;
code = "feature locl;
feature ordn;
feature case;
";
tag = aalt;
},
{
automatic = 1;
code = "lookup locl_latn_0 {
	script latn;
	language CAT;
	sub l periodcentered' l by periodcentered.loclCAT;
	sub L periodcentered' L by periodcentered.loclCAT.case;
} locl_latn_0;
";
tag = locl;
},
{
automatic = 1;
code = "sub [zero one two three four five six seven eight nine] [A a]' by ordfeminine;
sub [zero one two three four five six seven eight nine] [O o]' by ordmasculine;
";
tag = ordn;
},
{
automatic = 1;
code = "sub periodcentered.loclCAT by periodcentered.loclCAT.case;
";
tag = case;
},
{
automatic = 1;
code = "lookup rlig_latn_0 {
	lookupflag IgnoreMarks;
	script latn;
	sub f b by f_b.rlig;
	sub f h by f_h.rlig;
	sub f k by f_k.rlig;
	sub f l by f_l.rlig;
	sub f thorn by f_thorn.rlig;
} rlig_latn_0;
";
tag = rlig;
},
{
code = "#ifdef VARIABLE

condition 550 < wght;
sub dollar by dollar.bold;
sub cent by cent.bold;

#endif";
tag = rlig;
}
);
fontMaster = (
{
axesValues = (
400,
0
);
guides = (
{
angle = 113.6725;
pos = (462,-160);
}
);
id = m002;
metricValues = (
{
over = 20;
pos = 750;
},
{
over = 20;
pos = 700;
},
{
over = 20;
pos = 500;
},
{
over = -20;
},
{
over = -20;
pos = -300;
},
{
}
);
name = Regular;
stemValues = (
80,
60,
65,
80
);
userData = {
GSOffsetHorizontal = 20;
GSOffsetMakeStroke = 1;
GSOffsetProportional = 1;
GSOffsetVertical = 10;
};
},
{
axesValues = (
400,
1
);
guides = (
{
angle = 113.6725;
pos = (462,-160);
}
);
iconName = Extended;

glyphs = (
{
glyphname = A;
lastChange = "2024-11-15 10:07:07 +0000";
layers = (
{
anchors = (
{
name = bottom;
pos = (313,0);
},
{
name = ogonek;
pos = (616,0);
},
{
name = top;
pos = (313,700);
}
);
background = {
anchors = (
{
name = bottom;
pos = (313,0);
},
{
name = ogonek;
pos = (616,0);
},
{
name = top;
pos = (313,700);
}
);
shapes = (
{
closed = 1;
nodes = (
(282,702,l),
(264,635,l),
(0,0,l),
(90,0,l),
(303,601,l),
(518,0,l),
(616,0,l),
(348,716,l)
);
},
{
closed = 1;
nodes = (
(160,290,l),
(160,225,l),
(480,235,l),
(480,280,l)
);
}
);
};
layerId = m002;
shapes = (
{
closed = 1;
nodes = (
(282,702,l),
(264,635,l),
(0,0,l),
(90,0,l),
(303,601,l),
(518,0,l),
(616,0,l),
(348,716,l)
);
},
{
closed = 1;
nodes = (
(160,290,l),
(160,225,l),
(480,235,l),
(480,280,l)
);
}
);
width = 626;
},
{
anchors = (
{
name = bottom;
pos = (278,0);
},
{
name = ogonek;
pos = (581,0);
},
{
name = top;
pos = (386,700);
}
);
background = {
anchors = (
{
name = bottom;
pos = (313,0);
},
{
name = ogonek;
pos = (616,0);
},
{
name = top;
pos = (313,700);
}
);
shapes = (
{
closed = 1;
nodes = (
(282,702,l),
(264,635,l),
(0,0,l),
(90,0,l),
(303,601,l),
(518,0,l),
(616,0,l),
(348,716,l)
);
},
{
closed = 1;
nodes = (
(160,290,l),
(160,225,l),
(480,235,l),
(480,280,l)
);
}
);
};
layerId = m003;
shapes = (
{
closed = 1;
nodes = (
(346,702,l),
(318,635,l),
(-35,0,l),
(55,0,l),
(362,601,l),
(493,0,l),
(581,0,l),
(413,716,l)
);
},
{
closed = 1;
nodes = (
(166,290,l),
(156,225,l),
(478,235,l),
(484,280,l)
);
}
);
width = 626;
},
{
anchors = (
{
name = bottom;
pos = (313,0);
},
{
name = ogonek;
pos = (616,0);
},
{
name = top;
pos = (313,700);
}
);
background = {
shapes = (
{
closed = 1;
nodes = (
(282,702,l),
(264,635,l),
(0,0,l),
(90,0,l),
(303,601,l),
(518,0,l),
(616,0,l),
(348,716,l)
);
},
{
closed = 1;
nodes = (
(160,290,l),
(160,225,l),
(480,235,l),
(480,280,l)
);
}
);
};
layerId = m004;
shapes = (
{
closed = 1;
nodes = (
(262,702,l),
(244,635,l),
(0,0,l),
(140,0,l),
(303,571,l),
(468,0,l),
(616,0,l),
(368,716,l)
);
},
{
closed = 1;
nodes = (
(160,300,l),
(160,205,l),
(480,225,l),
(480,280,l)
);
}
);
width = 626;
},
{
anchors = (
{
name = bottom;
pos = (278,0);
},
{
name = ogonek;
pos = (581,0);
},
{
name = top;
pos = (386,700);
}
);
background = {
shapes = (
{
closed = 1;
nodes = (
(282,702,l),
(264,635,l),
(0,0,l),
(90,0,l),
(303,601,l),
(518,0,l),
(616,0,l),
(348,716,l)
);
},
{
closed = 1;
nodes = (
(160,290,l),
(160,225,l),
(480,235,l),
(480,280,l)
);
}
);
};
layerId = m005;
shapes = (
{
closed = 1;
nodes = (
(326,702,l),
(298,635,l),
(-35,0,l),
(105,0,l),
(348,571,l),
(433,0,l),
(581,0,l),
(433,716,l)
);
},
{
closed = 1;
nodes = (
(167,300,l),
(154,205,l),
(476,225,l),
(484,280,l)
);
}
);
width = 626;
},
{
anchors = (
{
name = bottom;
pos = (313,0);
},
{
name = ogonek;
pos = (616,0);
},
{
name = top;
pos = (313,700);
}
);
layerId = "7BE518C1-5919-420B-B6AE-125B8031F769";
shapes = (
{
closed = 1;
nodes = (
(312,702,l),
(294,635,l),
(0,0,l),
(15,0,l),
(303,646,l),
(593,0,l),
(616,0,l),
(318,716,l)
);
},
{
closed = 1;
nodes = (
(160,275,l),
(160,255,l),
(480,250,l),
(480,280,l)
);
}
);
width = 626;
}
);
unicode = 65;
changeCount = 2;
},
{
glyphname = AE;
lastChange = "2024-11-15 10:07:07 +0000";
layers = (
{
anchors = (
{
name = bottom;
pos = (450,0);
},
{
name = top;
pos = (450,700);
}
);
layerId = m002;
shapes = (
{
closed = 1;
nodes = (
(462,700,l),
(0,0,l),
(110,0,l),
(523,700,l)
);
},
{
closed = 1;
nodes = (
(270,395,l),
(270,325,l),
(480,335,l),
(480,385,l)
);
},
{
closed = 1;
nodes = (
(740,395,l),
(630,390,l),
(540,390,l),
(540,330,l),
(630,330,l),
(740,325,l)
);
},
{
closed = 1;
nodes = (
(470,500,l),
(465,0,l),
(555,0,l),
(550,250,l),
(555,700,l),
(465,700,l)
);
},
{
closed = 1;
nodes = (
(520,635,l),
(610,640,l),
(850,620,l),
(850,700,l),
(520,700,l)
);
},
{
closed = 1;
nodes = (
(880,0,l),
(880,80,l),
(610,60,l),
(550,65,l),
(550,0,l)
);
}
);
width = 900;
},
{
anchors = (
{
name = bottom;
pos = (450,0);
},
{
name = top;
pos = (450,700);
}
);
layerId = m003;
shapes = (
{
closed = 1;
nodes = (
(462,700,l),
(0,0,l),
(110,0,l),
(523,700,l)
);
},
{
closed = 1;
nodes = (
(270,395,l),
(270,325,l),
(480,335,l),
(480,385,l)
);
},
{
closed = 1;
nodes = (
(740,395,l),
(630,390,l),
(540,390,l),
(540,330,l),
(630,330,l),
(740,325,l)
);
},
{
closed = 1;
nodes = (
(470,500,l),
(465,0,l),
(555,0,l),
(550,250,l),
(555,700,l),
(465,700,l)
);
},
{
closed = 1;
nodes = (
(520,635,l),
(610,640,l),
(850,620,l),
(850,700,l),
(520,700,l)
);
},
{
closed = 1;
nodes = (
(880,0,l),
(880,80,l),
(610,60,l),
(550,65,l),
(550,0,l)
);
}
);
width = 900;
},
{
anchors = (
{
name = bottom;
pos = (450,0);
},
{
name = top;
pos = (450,700);
}
);
layerId = m004;
shapes = (
{
closed = 1;
nodes = (
(382,700,l),
(0,0,l),
(150,0,l),
(483,700,l)
);
},
{
closed = 1;
nodes = (
(270,405,l),
(270,295,l),
(480,315,l),
(480,395,l)
);
},
{
closed = 1;
nodes = (
(760,415,l),
(610,405,l),
(540,405,l),
(540,310,l),
(610,310,l),
(760,305,l)
);
},
{
closed = 1;
nodes = (
(450,500,l),
(445,0,l),
(575,0,l),
(570,250,l),
(575,700,l),
(445,700,l)
);
},
{
closed = 1;
nodes = (
(550,605,l),
(640,610,l),
(870,580,l),
(870,700,l),
(550,700,l)
);
},
{
closed = 1;
nodes = (
(900,0,l),
(900,120,l),
(640,90,l),
(550,95,l),
(550,0,l)
);
}
);
width = 920;
},
{
anchors = (
{
name = bottom;
pos = (450,0);
},
{
name = top;
pos = (450,700);
}
);
layerId = m005;
shapes = (
{
closed = 1;
nodes = (
(382,700,l),
(0,0,l),
(150,0,l),
(483,700,l)
);
},
{
closed = 1;
nodes = (
(270,405,l),
(270,295,l),
(480,315,l),
(480,395,l)
);
},
{
closed = 1;
nodes = (
(760,415,l),
(610,405,l),
(540,405,l),
(540,310,l),
(610,310,l),
(760,305,l)
);
},
{
closed = 1;
nodes = (
(450,500,l),
(445,0,l),
(575,0,l),
(570,250,l),
(575,700,l),
(445,700,l)
);
},
{
closed = 1;
nodes = (
(550,605,l),
(640,610,l),
(870,580,l),
(870,700,l),
(550,700,l)
);
},
{
closed = 1;
nodes = (
(900,0,l),
(900,120,l),
(640,90,l),
(550,95,l),
(550,0,l)
);
}
);
width = 920;
},
{
anchors = (
{
name = bottom;
pos = (450,0);
},
{
name = top;
pos = (450,700);
}
);
layerId = "7BE518C1-5919-420B-B6AE-125B8031F769";
shapes = (
{
closed = 1;
nodes = (
(582,700,l),
(0,0,l),
(50,0,l),
(583,700,l)
);
},
{
closed = 1;
nodes = (
(270,380,l),
(270,370,l),
(480,365,l),
(480,370,l)
);
},
{
closed = 1;
nodes = (
(710,365,l),
(660,368,l),
(540,368,l),
(540,360,l),
(660,360,l),
(710,355,l)
);
},
{
closed = 1;
nodes = (
(500,500,l),
(495,0,l),
(525,0,l),
(520,250,l),
(525,700,l),
(495,700,l)
);
},
{
closed = 1;
nodes = (
(475,680,l),
(565,685,l),
(820,680,l),
(820,700,l),
(475,700,l)
);
},
{
closed = 1;
nodes = (
(850,0,l),
(850,20,l),
(565,15,l),
(550,20,l),
(550,0,l)
);
}
);
width = 870;
}
);
metricLeft = "=A";
metricRight = "=E";
unicode = 198;
changeCount = 2;
},
{
glyphname = B;
lastChange = "2024-11-15 10:07:07 +0000";
layers = (
{
anchors = (
{
name = bottom;
pos = (295,0);
},
{
name = center;
pos = (295,350);
},
{
name = top;
pos = (295,700);
}
);
background = {
shapes = (
{
closed = 1;
nodes = (
(69,0,l),
(316,0,ls),
(524,0,o),
(585,102,o),
(585,199,cs),
(585,318,o),
(473,400,o),
(304,400,cs),
(73,400,l)
);
},
{
closed = 1;
nodes = (
(411,342,o),
(485,297,o),
(485,197,cs),
(485,113,o),
(428,58,o),
(302,60,cs),
(158,62,l),
(155,337,l),
(304,340,ls)
);
}
);
};
layerId = m002;
shapes = (
{
closed = 1;
nodes = (
(155,403,l),
(158,638,l),
(242,640,ls),
(368,643,o),
(410,587,o),
(410,513,cs),
(410,427,o),
(336,397,o),
(279,399,cs)
);
},
{
closed = 1;
nodes = (
(276,0,ls),
(454,0,o),
(540,102,o),
(540,199,cs),
(540,273,o),
(501,343,o),
(407,378,c),
(471,406,o),
(500,465,o),
(500,531,cs),
(500,598,o),
(464,700,o),
(266,700,cs),
(69,700,l),
(73,368,l),
(69,0,l)
);
},
{
closed = 1;
nodes = (
(277,339,ls),
(377,341,o),
(445,293,o),
(445,197,cs),
(445,113,o),
(388,58,o),
(282,60,cs),
(158,62,l),
(155,337,l)
);
}
);
width = 590;
},
{
anchors = (
{
name = bottom;
pos = (313,0);
},
{
name = center;
pos = (288,350);
},
{
name = top;
pos = (263,700);
}
);
background = {
shapes = (
{
closed = 1;
nodes = (
(188,403,l),
(240,638,l),
(325,640,ls),
(452,643,o),
(482,587,o),
(466,513,cs),
(448,427,o),
(367,397,o),
(311,399,cs)
);
},
{
closed = 1;
nodes = (
(223,0,ls),
(401,0,o),
(509,102,o),
(529,199,cs),
(545,273,o),
(521,343,o),
(434,378,c),
(504,406,o),
(546,465,o),
(560,531,cs),
(574,598,o),
(560,700,o),
(362,700,cs),
(165,700,l),
(98,368,l),
(16,0,l)
);
},
{
closed = 1;
nodes = (
(296,339,ls),
(396,341,o),
(454,293,o),
(434,197,cs),
(416,113,o),
(347,58,o),
(242,60,cs),
(118,62,l),
(173,337,l)
);
}
);
};
layerId = m003;
shapes = (
{
closed = 1;
nodes = (
(177,403,l),
(213,638,l),
(297,640,ls),
(394,642,o),
(444,603,o),
(450,527,cs),
(455,452,o),
(379,396,o),
(300,399,cs)
);
},
{
closed = 1;
nodes = (
(281,0,ls),
(425,0,o),
(545,97,o),
(536,220,cs),
(531,288,o),
(490,352,o),
(425,378,c),
(514,415,o),
(547,484,o),
(543,547,cs),
(538,610,o),
(494,700,o),
(329,700,cs),
(132,700,l),
(90,368,l),
(34,0,l)
);
},
{
closed = 1;
nodes = (
(290,339,ls),
(376,340,o),
(435,285,o),
(441,213,cs),
(447,128,o),
(390,58,o),
(255,60,cs),
(132,62,l),
(167,337,l)
);
}
);
width = 590;
},
{
anchors = (
{
name = bottom;
pos = (295,0);
},
{
name = center;
pos = (295,350);
},
{
name = top;
pos = (295,700);
}
);
background = {
shapes = (
{
closed = 1;
nodes = (
(69,0,l),
(316,0,ls),
(524,0,o),
(585,102,o),
(585,199,cs),
(585,318,o),
(473,400,o),
(304,400,cs),
(73,400,l)
);
},
{
closed = 1;
nodes = (
(411,342,o),
(485,297,o),
(485,197,cs),
(485,113,o),
(428,58,o),
(302,60,cs),
(158,62,l),
(155,337,l),
(304,340,ls)
);
}
);
};
layerId = m004;
shapes = (
{
closed = 1;
nodes = (
(195,413,l),
(198,618,l),
(262,621,ls),
(338,625,o),
(380,587,o),
(380,513,cs),
(380,427,o),
(306,405,o),
(249,409,cs)
);
},
{
closed = 1;
nodes = (
(296,0,ls),
(474,0,o),
(550,102,o),
(550,199,cs),
(550,273,o),
(521,343,o),
(427,378,c),
(491,406,o),
(520,465,o),
(520,531,cs),
(520,598,o),
(484,700,o),
(286,700,cs),
(69,700,l),
(73,368,l),
(69,0,l)
);
},
{
closed = 1;
nodes = (
(247,329,ls),
(347,333,o),
(415,293,o),
(415,202,cs),
(415,123,o),
(358,86,o),
(272,89,cs),
(198,92,l),
(195,327,l)
);
}
);
width = 590;
},
{
anchors = (
{
name = bottom;
pos = (260,0);
},
{
name = center;
pos = (309,350);
},
{
name = top;
pos = (358,700);
}
);
background = {
shapes = (
{
closed = 1;
nodes = (
(69,0,l),
(316,0,ls),
(524,0,o),
(585,102,o),
(585,199,cs),
(585,318,o),
(473,400,o),
(304,400,cs),
(73,400,l)
);
},
{
closed = 1;
nodes = (
(411,342,o),
(485,297,o),
(485,197,cs),
(485,113,o),
(428,58,o),
(302,60,cs),
(158,62,l),
(155,337,l),
(304,340,ls)
);
}
);
};
layerId = m005;
shapes = (
{
closed = 1;
nodes = (
(218,413,l),
(250,618,l),
(314,621,ls),
(391,625,o),
(427,587,o),
(417,513,cs),
(405,427,o),
(328,405,o),
(271,409,cs)
);
},
{
closed = 1;
nodes = (
(261,0,ls),
(439,0,o),
(529,102,o),
(543,199,cs),
(553,273,o),
(534,343,o),
(445,378,c),
(513,406,o),
(550,465,o),
(559,531,cs),
(569,598,o),
(547,700,o),
(349,700,cs),
(132,700,l),
(90,368,l),
(34,0,l)
);
},
{
closed = 1;
nodes = (
(258,329,ls),
(359,333,o),
(421,293,o),
(408,202,cs),
(397,123,o),
(335,86,o),
(249,89,cs),
(176,92,l),
(206,327,l)
);
}
);
width = 590;
},
{
anchors = (
{
name = bottom;
pos = (295,0);
},
{
name = center;
pos = (295,350);
},
{
name = top;
pos = (295,700);
}
);
layerId = "7BE518C1-5919-420B-B6AE-125B8031F769";
shapes = (
{
closed = 1;
nodes = (
(95,388,l),
(98,668,l),
(212,669,ls),
(413,670,o),
(455,587,o),
(455,513,cs),
(455,427,o),
(381,385,o),
(324,384,cs)
);
},
{
closed = 1;
nodes = (
(246,0,ls),
(424,0,o),
(525,102,o),
(525,199,cs),
(525,273,o),
(471,343,o),
(377,378,c),
(441,406,o),
(470,465,o),
(470,531,cs),
(470,598,o),
(434,700,o),
(236,700,cs),
(69,700,l),
(73,368,l),
(69,0,l)
);
},
{
closed = 1;
nodes = (
(322,354,ls),
(422,353,o),
(490,293,o),
(490,190,cs),
(490,98,o),
(433,16,o),
(297,17,cs),
(98,17,l),
(95,352,l)
);
}
);
width = 590;
}
);
unicode = 66;
changeCount = 2;
},
{
glyphname = C;
lastChange = "2024-11-15 10:07:07 +0000";
layers = (
{
anchors = (
{
name = bottom;
pos = (342,0);
},
{
name = top;
pos = (382,700);
}
);
background = {
anchors = (
{
name = bottom;
pos = (342,0);
},
{
name = top;
pos = (342,700);
}
);
shapes = (
{
closed = 1;
nodes = (
(608,656,l),
(534,696,o),
(476,709,o),
(417,709,cs),
(250,709,o),
(45,567,o),
(45,340,cs),
(45,125,o),
(221,-10,o),
(379,-10,cs),
(465,-10,o),
(557,22,o),
(638,92,c),
(613,132,l),
(546,94,o),
(479,69,o),
(412,69,cs),
(282,69,o),
(134,165,o),
(134,364,cs),
(134,538,o),
(248,628,o),
(385,628,cs),
(451,628,o),
(522,606,o),
(588,564,c)
);
}
);
};
layerId = m002;
shapes = (
{
closed = 1;
nodes = (
(608,656,l),
(534,696,o),
(476,709,o),
(417,709,cs),
(250,709,o),
(45,567,o),
(45,340,cs),
(45,125,o),
(221,-10,o),
(379,-10,cs),
(465,-10,o),
(557,22,o),
(638,92,c),
(613,132,l),
(546,94,o),
(479,69,o),
(412,69,cs),
(282,69,o),
(134,165,o),
(134,364,cs),
(134,538,o),
(248,628,o),
(385,628,cs),
(451,628,o),
(522,606,o),
(588,564,c)
);
}
);
width = 683;
},
{
anchors = (
{
name = bottom;
pos = (337,0);
},
{
name = top;
pos = (465,700);
}
);
background = {
anchors = (
{
name = bottom;
pos = (342,0);
},
{
name = top;
pos = (342,700);
}
);
shapes = (
{
closed = 1;
nodes = (
(608,656,l),
(534,696,o),
(476,709,o),
(417,709,cs),
(250,709,o),
(45,567,o),
(45,340,cs),
(45,125,o),
(221,-10,o),
(379,-10,cs),
(465,-10,o),
(557,22,o),
(638,92,c),
(613,132,l),
(546,94,o),
(479,69,o),
(412,69,cs),
(282,69,o),
(134,165,o),
(134,364,cs),
(134,538,o),
(248,628,o),
(385,628,cs),
(451,628,o),
(522,606,o),
(588,564,c)
);
}
);
};
layerId = m003;
shapes = (
{
closed = 1;
nodes = (
(665,656,l),
(597,696,o),
(541,709,o),
(462,709,cs),
(267,709,o),
(37,523,o),
(53,283,cs),
(64,113,o),
(205,-10,o),
(342,-10,cs),
(428,-10,o),
(525,22,o),
(616,92,c),
(596,132,l),
(524,94,o),
(454,69,o),
(387,69,cs),
(274,69,o),
(157,141,o),
(147,290,cs),
(134,492,o),
(257,628,o),
(418,628,cs),
(504,628,o),
(572,606,o),
(632,564,c)
);
}
);
width = 683;
},
{
anchors = (
{
name = bottom;
pos = (342,0);
},
{
name = top;
pos = (382,700);
}
);
background = {
anchors = (
{
name = bottom;
pos = (342,0);
},
{
name = top;
pos = (342,700);
}
);
shapes = (
{
closed = 1;
nodes = (
(608,656,l),
(534,696,o),
(476,709,o),
(417,709,cs),
(250,709,o),
(45,567,o),
(45,340,cs),
(45,125,o),
(221,-10,o),
(379,-10,cs),
(465,-10,o),
(557,22,o),
(638,92,c),
(613,132,l),
(546,94,o),
(479,69,o),
(412,69,cs),
(282,69,o),
(134,165,o),
(134,364,cs),
(134,538,o),
(248,628,o),
(385,628,cs),
(451,628,o),
(522,606,o),
(588,564,c)
);
}
);
};
layerId = m004;
shapes = (
{
closed = 1;
nodes = (
(628,656,l),
(565,692,o),
(501,708,o),
(439,708,cs),
(229,708,o),
(45,529,o),
(45,340,cs),
(45,125,o),
(211,-10,o),
(369,-10,cs),
(455,-10,o),
(547,22,o),
(638,92,c),
(599,163,l),
(541,130,o),
(464,109,o),
(406,109,cs),
(295,109,o),
(168,191,o),
(168,372,cs),
(168,531,o),
(266,588,o),
(383,588,cs),
(440,588,o),
(521,569,o),
(577,533,c)
);
}
);
width = 683;
},
{
anchors = (
{
name = bottom;
pos = (307,0);
},
{
name = top;
pos = (445,700);
}
);
background = {
anchors = (
{
name = bottom;
pos = (342,0);
},
{
name = top;
pos = (342,700);
}
);
shapes = (
{
closed = 1;
nodes = (
(608,656,l),
(534,696,o),
(476,709,o),
(417,709,cs),
(250,709,o),
(45,567,o),
(45,340,cs),
(45,125,o),
(221,-10,o),
(379,-10,cs),
(465,-10,o),
(557,22,o),
(638,92,c),
(613,132,l),
(546,94,o),
(479,69,o),
(412,69,cs),
(282,69,o),
(134,165,o),
(134,364,cs),
(134,538,o),
(248,628,o),
(385,628,cs),
(451,628,o),
(522,606,o),
(588,564,c)
);
}
);
};
layerId = m005;
shapes = (
{
closed = 1;
nodes = (
(685,656,l),
(627,692,o),
(565,708,o),
(503,708,cs),
(293,708,o),
(84,529,o),
(58,340,cs),
(27,125,o),
(174,-10,o),
(332,-10,cs),
(418,-10,o),
(515,22,o),
(616,92,c),
(587,163,l),
(524,130,o),
(444,109,o),
(386,109,cs),
(275,109,o),
(160,191,o),
(185,372,cs),
(207,531,o),
(314,588,o),
(431,588,cs),
(488,588,o),
(566,569,o),
(617,533,c)
);
}
);
width = 683;
},
{
anchors = (
{
name = bottom;
pos = (342,0);
},
{
name = top;
pos = (382,700);
}
);
layerId = "7BE518C1-5919-420B-B6AE-125B8031F769";
shapes = (
{
closed = 1;
nodes = (
(578,656,l),
(488,702,o),
(439,711,o),
(384,711,cs),
(282,711,o),
(45,624,o),
(45,340,cs),
(45,125,o),
(236,-10,o),
(394,-10,cs),
(480,-10,o),
(572,22,o),
(638,92,c),
(634,86,l),
(554,40,o),
(502,9,o),
(421,9,cs),
(263,9,o),
(83,126,o),
(83,352,cs),
(83,549,o),
(221,688,o),
(388,688,cs),
(468,688,o),
(524,662,o),
(605,611,c)
);
}
);
width = 683;
}
);
unicode = 67;
changeCount = 2;
},
{
glyphname = D;
lastChange = "2024-11-15 10:07:07 +0000";
layers = (
{
anchors = (
{
name = bottom;
pos = (353,0);
},
{
name = center;
pos = (353,350);
},
{
name = top;
pos = (303,700);
}
);
background = {
anchors = (
{
name = bottom;
pos = (353,0);
},
{
name = center;
pos = (353,350);
},
{
name = top;
pos = (303,700);
}
);
hints = (
{
name = _corner.serif;
place = (128, 0);
scale = (-0.8,1.5);
type = Corner;
},
{
name = _corner.serif;
place = (128, 0);
scale = (0.8,1.5);
type = Corner;
},
{
name = _corner.mitre;
place = (207, 0);
type = Corner;
},
{
name = _corner.mitre;
place = (207, 0);
type = Corner;
}
);
shapes = (
{
closed = 1;
nodes = (
(75,250,l),
(65,0,l),
(291,0,ls),
(483,0,o),
(655,144,o),
(655,352,cs),
(655,521,o),
(540,700,o),
(304,700,cs),
(70,700,l)
);
},
{
closed = 1;
nodes = (
(159,635,l),
(291,640,l),
(450,640,o),
(561,531,o),
(561,336,cs),
(561,149,o),
(429,66,o),
(293,60,c),
(164,66,l),
(155,250,l)
);
}
);
};
layerId = m002;
shapes = (
{
closed = 1;
nodes = (
(75,250,l),
(65,0,l),
(291,0,ls),
(483,0,o),
(655,144,o),
(655,352,cs),
(655,521,o),
(540,700,o),
(304,700,cs),
(70,700,l)
);
},
{
closed = 1;
nodes = (
(159,635,l),
(291,640,l),
(450,640,o),
(561,531,o),
(561,336,cs),
(561,149,o),
(429,66,o),
(293,60,c),
(164,66,l),
(155,250,l)
);
}
);
width = 705;
},
{
anchors = (
{
name = bottom;
pos = (318,0);
},
{
name = center;
pos = (367,350);
},
{
name = top;
pos = (366,700);
}
);
background = {
hints = (
{
name = _corner.serif;
place = (128, 0);
scale = (-0.8,1.5);
type = Corner;
},
{
name = _corner.serif;
place = (128, 0);
scale = (0.8,1.5);
type = Corner;
},
{
name = _corner.mitre;
place = (207, 0);
type = Corner;
},
{
name = _corner.mitre;
place = (207, 0);
type = Corner;
}
);
shapes = (
{
closed = 1;
nodes = (
(75,250,l),
(12,0,l),
(238,0,ls),
(430,0,o),
(632,144,o),
(677,352,cs),
(713,521,o),
(636,700,o),
(400,700,cs),
(166,700,l)
);
},
{
closed = 1;
nodes = (
(241,635,l),
(374,640,l),
(533,640,o),
(621,531,o),
(579,336,cs),
(540,149,o),
(390,66,o),
(253,60,c),
(125,66,l),
(155,250,l)
);
}
);
};
layerId = m003;
shapes = (
{
closed = 1;
nodes = (
(75,250,l),
(30,0,l),
(256,0,ls),
(533,0,o),
(709,206,o),
(694,410,cs),
(681,592,o),
(538,700,o),
(338,700,cs),
(133,700,l)
);
},
{
closed = 1;
nodes = (
(213,635,l),
(326,640,l),
(458,640,o),
(586,575,o),
(598,397,cs),
(611,216,o),
(497,69,o),
(247,60,c),
(138,66,l),
(155,250,l)
);
}
);
width = 732;
},
{
anchors = (
{
name = bottom;
pos = (363,0);
},
{
name = center;
pos = (363,350);
},
{
name = top;
pos = (303,700);
}
);
background = {
anchors = (
{
name = bottom;
pos = (353,0);
},
{
name = center;
pos = (353,350);
},
{
name = top;
pos = (303,700);
}
);
hints = (
{
name = _corner.serif;
place = (128, 0);
scale = (-0.8,1.5);
type = Corner;
},
{
name = _corner.serif;
place = (128, 0);
scale = (0.8,1.5);
type = Corner;
},
{
name = _corner.mitre;
place = (207, 0);
type = Corner;
},
{
name = _corner.mitre;
place = (207, 0);
type = Corner;
}
);
shapes = (
{
closed = 1;
nodes = (
(75,250,l),
(65,0,l),
(291,0,ls),
(483,0,o),
(655,144,o),
(655,352,cs),
(655,521,o),
(540,700,o),
(304,700,cs),
(70,700,l)
);
},
{
closed = 1;
nodes = (
(159,635,l),
(291,640,l),
(450,640,o),
(561,531,o),
(561,336,cs),
(561,149,o),
(429,66,o),
(293,60,c),
(164,66,l),
(155,250,l)
);
}
);
};
layerId = m004;
shapes = (
{
closed = 1;
nodes = (
(75,250,l),
(65,0,l),
(301,0,ls),
(493,0,o),
(675,144,o),
(675,352,cs),
(675,521,o),
(550,700,o),
(314,700,cs),
(70,700,l)
);
},
{
closed = 1;
nodes = (
(199,605,l),
(301,607,l),
(410,607,o),
(541,511,o),
(541,346,cs),
(541,169,o),
(419,98,o),
(293,92,c),
(204,96,l),
(195,250,l)
);
}
);
width = 725;
},
{
anchors = (
{
name = bottom;
pos = (328,0);
},
{
name = center;
pos = (377,350);
},
{
name = top;
pos = (366,700);
}
);
background = {
anchors = (
{
name = bottom;
pos = (353,0);
},
{
name = center;
pos = (353,350);
},
{
name = top;
pos = (303,700);
}
);
hints = (
{
name = _corner.serif;
place = (128, 0);
scale = (-0.8,1.5);
type = Corner;
},
{
name = _corner.serif;
place = (128, 0);
scale = (0.8,1.5);
type = Corner;
},
{
name = _corner.mitre;
place = (207, 0);
type = Corner;
},
{
name = _corner.mitre;
place = (207, 0);
type = Corner;
}
);
shapes = (
{
closed = 1;
nodes = (
(75,250,l),
(65,0,l),
(291,0,ls),
(483,0,o),
(655,144,o),
(655,352,cs),
(655,521,o),
(540,700,o),
(304,700,cs),
(70,700,l)
);
},
{
closed = 1;
nodes = (
(159,635,l),
(291,640,l),
(450,640,o),
(561,531,o),
(561,336,cs),
(561,149,o),
(429,66,o),
(293,60,c),
(164,66,l),
(155,250,l)
);
}
);
};
layerId = m005;
shapes = (
{
closed = 1;
nodes = (
(75,250,l),
(30,0,l),
(266,0,ls),
(458,0,o),
(660,144,o),
(689,352,cs),
(713,521,o),
(613,700,o),
(377,700,cs),
(133,700,l)
);
},
{
closed = 1;
nodes = (
(249,605,l),
(351,607,l),
(460,607,o),
(578,511,o),
(554,346,cs),
(530,169,o),
(398,98,o),
(271,92,c),
(182,96,l),
(195,250,l)
);
}
);
width = 725;
},
{
anchors = (
{
name = bottom;
pos = (338,0);
},
{
name = center;
pos = (338,350);
},
{
name = top;
pos = (303,700);
}
);
layerId = "7BE518C1-5919-420B-B6AE-125B8031F769";
shapes = (
{
closed = 1;
nodes = (
(75,250,l),
(65,0,l),
(276,0,ls),
(468,0,o),
(625,144,o),
(625,352,cs),
(625,521,o),
(525,700,o),
(289,700,cs),
(70,700,l)
);
},
{
closed = 1;
nodes = (
(99,680,l),
(276,690,l),
(510,690,o),
(591,561,o),
(591,321,cs),
(591,119,o),
(444,18,o),
(293,12,c),
(104,21,l),
(95,250,l)
);
}
);
width = 675;
}
);
unicode = 68;
changeCount = 2;
},
{
glyphname = Eth;
lastChange = "2024-11-15 10:07:07 +0000";
layers = (
{
layerId = m002;
shapes = (
{
closed = 1;
nodes = (
(340,395,l),
(170,390,l),
(20,395,l),
(20,325,l),
(170,330,l),
(340,325,l)
);
},
{
pos = (50,0);
ref = D;
}
);
width = 755;
},
{
layerId = m003;
shapes = (
{
closed = 1;
nodes = (
(360,395,l),
(190,390,l),
(40,395,l),
(31,325,l),
(181,330,l),
(351,325,l)
);
},
{
pos = (40,0);
ref = D;
}
);
width = 769;
},
{
layerId = m004;
shapes = (
{
closed = 1;
nodes = (
(370,405,l),
(170,400,l),
(40,405,l),
(40,315,l),
(170,320,l),
(370,315,l)
);
},
{
pos = (50,0);
ref = D;
}
);
width = 755;
},
{
layerId = m005;
shapes = (
{
closed = 1;
nodes = (
(400,405,l),
(170,400,l),
(40,405,l),
(40,315,l),
(170,320,l),
(400,315,l)
);
},
{
pos = (50,0);
ref = D;
}
);
width = 755;
},
{
layerId = "7BE518C1-5919-420B-B6AE-125B8031F769";
shapes = (
{
closed = 1;
nodes = (
(295,380,l),
(170,375,l),
(-10,380,l),
(-10,340,l),
(170,345,l),
(295,340,l)
);
},
{
alignment = -1;
pos = (50,0);
ref = D;
}
);
width = 755;
}
);
unicode = 208;
changeCount = 2;
},
{
glyphname = E;
lastChange = "2024-11-15 10:07:07 +0000";
layers = (
{
anchors = (
{
name = bottom;
pos = (310,0);
},
{
name = ogonek;
pos = (540,0);
},
{
name = top;
pos = (310,700);
},
{
name = topleft;
pos = (20,700);
}
);
background = {
anchors = (
{
name = bottom;
pos = (310,0);
},
{
name = ogonek;
pos = (540,0);
},
{
name = top;
pos = (310,700);
},
{
name = topleft;
pos = (20,700);
}
);
shapes = (
{
closed = 1;
nodes = (
(400,395,l),
(260,390,l),
(140,390,l),
(140,330,l),
(260,330,l),
(400,325,l)
);
},
{
closed = 1;
nodes = (
(70,500,l),
(65,0,l),
(155,0,l),
(150,250,l),
(155,700,l),
(65,700,l)
);
},
{
closed = 1;
nodes = (
(150,635,l),
(240,640,l),
(510,620,l),
(510,700,l),
(150,700,l)
);
},
{
closed = 1;
nodes = (
(540,0,l),
(540,80,l),
(240,60,l),
(150,65,l),
(150,0,l)
);
}
);
};
layerId = m002;
shapes = (
{
closed = 1;
nodes = (
(400,395,l),
(260,390,l),
(140,390,l),
(140,330,l),
(260,330,l),
(400,325,l)
);
},
{
closed = 1;
nodes = (
(70,500,l),
(65,0,l),
(155,0,l),
(150,250,l),
(155,700,l),
(65,700,l)
);
},
{
closed = 1;
nodes = (
(150,635,l),
(240,640,l),
(510,620,l),
(510,700,l),
(150,700,l)
);
},
{
closed = 1;
nodes = (
(540,0,l),
(540,80,l),
(240,60,l),
(150,65,l),
(150,0,l)
);
}
);
width = 560;
},
{
anchors = (
{
name = bottom;
pos = (275,0);
},
{
name = ogonek;
pos = (505,0);
},
{
name = top;
pos = (373,700);
},
{
name = topleft;
pos = (83,700);
}
);
background = {
anchors = (
{
name = bottom;
pos = (310,0);
},
{
name = ogonek;
pos = (540,0);
},
{
name = top;
pos = (310,700);
},
{
name = topleft;
pos = (20,700);
}
);
shapes = (
{
closed = 1;
nodes = (
(400,395,l),
(260,390,l),
(140,390,l),
(140,330,l),
(260,330,l),
(400,325,l)
);
},
{
closed = 1;
nodes = (
(70,500,l),
(65,0,l),
(155,0,l),
(150,250,l),
(155,700,l),
(65,700,l)
);
},
{
closed = 1;
nodes = (
(150,635,l),
(240,640,l),
(510,620,l),
(510,700,l),
(150,700,l)
);
},
{
closed = 1;
nodes = (
(540,0,l),
(540,80,l),
(240,60,l),
(150,65,l),
(150,0,l)
);
}
);
};
layerId = m003;
shapes = (
{
closed = 1;
nodes = (
(420,395,l),
(280,390,l),
(160,390,l),
(151,330,l),
(271,330,l),
(411,325,l)
);
},
{
closed = 1;
nodes = (
(105,500,l),
(30,0,l),
(120,0,l),
(150,250,l),
(218,700,l),
(128,700,l)
);
},
{
closed = 1;
nodes = (
(204,635,l),
(295,640,l),
(562,620,l),
(573,700,l),
(213,700,l)
);
},
{
closed = 1;
nodes = (
(505,0,l),
(516,80,l),
(213,60,l),
(124,65,l),
(115,0,l)
);
}
);
width = 560;
},
{
anchors = (
{
name = bottom;
pos = (280,0);
},
{
name = ogonek;
pos = (504,10);
},
{
name = top;
pos = (280,700);
},
{
name = topleft;
pos = (20,700);
}
);
background = {
anchors = (
{
name = bottom;
pos = (310,0);
},
{
name = ogonek;
pos = (540,0);
},
{
name = top;
pos = (310,700);
},
{
name = topleft;
pos = (20,700);
}
);
shapes = (
{
closed = 1;
nodes = (
(400,395,l),
(260,390,l),
(140,390,l),
(140,330,l),
(260,330,l),
(400,325,l)
);
},
{
closed = 1;
nodes = (
(70,500,l),
(65,0,l),
(155,0,l),
(150,250,l),
(155,700,l),
(65,700,l)
);
},
{
closed = 1;
nodes = (
(150,635,l),
(240,640,l),
(510,620,l),
(510,700,l),
(150,700,l)
);
},
{
closed = 1;
nodes = (
(540,0,l),
(540,80,l),
(240,60,l),
(150,65,l),
(150,0,l)
);
}
);
};
layerId = m004;
shapes = (
{
closed = 1;
nodes = (
(400,415,l),
(260,405,l),
(140,405,l),
(140,310,l),
(260,310,l),
(400,305,l)
);
},
{
closed = 1;
nodes = (
(70,500,l),
(65,0,l),
(200,0,l),
(195,250,l),
(200,700,l),
(65,700,l)
);
},
{
closed = 1;
nodes = (
(150,605,l),
(240,610,l),
(510,580,l),
(510,700,l),
(150,700,l)
);
},
{
closed = 1;
nodes = (
(540,0,l),
(540,120,l),
(240,90,l),
(150,95,l),
(150,0,l)
);
}
);
width = 560;
},
{
anchors = (
{
name = bottom;
pos = (245,0);
},
{
name = ogonek;
pos = (505,0);
},
{
name = top;
pos = (343,700);
},
{
name = topleft;
pos = (83,700);
}
);
background = {
anchors = (
{
name = bottom;
pos = (310,0);
},
{
name = ogonek;
pos = (540,0);
},
{
name = top;
pos = (310,700);
},
{
name = topleft;
pos = (20,700);
}
);
shapes = (
{
closed = 1;
nodes = (
(400,395,l),
(260,390,l),
(140,390,l),
(140,330,l),
(260,330,l),
(400,325,l)
);
},
{
closed = 1;
nodes = (
(70,500,l),
(65,0,l),
(155,0,l),
(150,250,l),
(155,700,l),
(65,700,l)
);
},
{
closed = 1;
nodes = (
(150,635,l),
(240,640,l),
(510,620,l),
(510,700,l),
(150,700,l)
);
},
{
closed = 1;
nodes = (
(540,0,l),
(540,80,l),
(240,60,l),
(150,65,l),
(150,0,l)
);
}
);
};
layerId = m005;
shapes = (
{
closed = 1;
nodes = (
(423,415,l),
(282,405,l),
(162,405,l),
(148,310,l),
(268,310,l),
(408,305,l)
);
},
{
closed = 1;
nodes = (
(105,500,l),
(30,0,l),
(165,0,l),
(195,250,l),
(263,700,l),
(128,700,l)
);
},
{
closed = 1;
nodes = (
(200,605,l),
(291,610,l),
(556,580,l),
(573,700,l),
(213,700,l)
);
},
{
closed = 1;
nodes = (
(505,0,l),
(522,120,l),
(218,90,l),
(128,95,l),
(115,0,l)
);
}
);
width = 560;
},
{
anchors = (
{
name = bottom;
pos = (355,0);
},
{
name = ogonek;
pos = (594,-15);
},
{
name = top;
pos = (355,700);
},
{
name = topleft;
pos = (20,700);
}
);
layerId = "7BE518C1-5919-420B-B6AE-125B8031F769";
shapes = (
{
closed = 1;
nodes = (
(400,365,l),
(260,368,l),
(140,368,l),
(140,360,l),
(260,360,l),
(400,355,l)
);
},
{
closed = 1;
nodes = (
(70,500,l),
(65,0,l),
(88,0,l),
(83,250,l),
(88,700,l),
(65,700,l)
);
},
{
closed = 1;
nodes = (
(150,680,l),
(240,685,l),
(510,680,l),
(510,700,l),
(150,700,l)
);
},
{
closed = 1;
nodes = (
(540,0,l),
(540,20,l),
(240,15,l),
(150,20,l),
(150,0,l)
);
}
);
width = 560;
}
);
unicode = 69;
changeCount = 2;
},
{
glyphname = F;
lastChange = "2024-11-15 10:07:07 +0000";
layers = (
{
anchors = (
{
name = bottom;
pos = (255,0);
},
{
name = top;
pos = (255,700);
}
);
background = {
anchors = (
{
name = bottom;
pos = (255,0);
},
{
name = top;
pos = (255,700);
}
);
shapes = (
{
closed = 1;
nodes = (
(420,385,l),
(260,380,l),
(140,380,l),
(140,320,l),
(260,320,l),
(420,315,l)
);
},
{
closed = 1;
nodes = (
(70,500,l),
(65,0,l),
(160,0,l),
(150,250,l),
(155,700,l),
(65,700,l)
);
},
{
closed = 1;
nodes = (
(150,635,l),
(240,640,l),
(490,620,l),
(490,700,l),
(150,700,l)
);
}
);
};
layerId = m002;
shapes = (
{
closed = 1;
nodes = (
(420,385,l),
(260,380,l),
(140,380,l),
(140,320,l),
(260,320,l),
(420,315,l)
);
},
{
closed = 1;
nodes = (
(70,500,l),
(65,0,l),
(160,0,l),
(150,250,l),
(155,700,l),
(65,700,l)
);
},
{
closed = 1;
nodes = (
(150,635,l),
(240,640,l),
(490,620,l),
(490,700,l),
(150,700,l)
);
}
);
width = 510;
},
{
anchors = (
{
name = bottom;
pos = (220,0);
},
{
name = top;
pos = (318,700);
}
);
background = {
anchors = (
{
name = bottom;
pos = (255,0);
},
{
name = top;
pos = (255,700);
}
);
shapes = (
{
closed = 1;
nodes = (
(420,385,l),
(260,380,l),
(140,380,l),
(140,320,l),
(260,320,l),
(420,315,l)
);
},
{
closed = 1;
nodes = (
(70,500,l),
(65,0,l),
(160,0,l),
(150,250,l),
(155,700,l),
(65,700,l)
);
},
{
closed = 1;
nodes = (
(150,635,l),
(240,640,l),
(490,620,l),
(490,700,l),
(150,700,l)
);
}
);
};
layerId = m003;
shapes = (
{
closed = 1;
nodes = (
(439,385,l),
(278,380,l),
(158,380,l),
(150,320,l),
(270,320,l),
(429,315,l)
);
},
{
closed = 1;
nodes = (
(105,500,l),
(30,0,l),
(125,0,l),
(150,250,l),
(218,700,l),
(128,700,l)
);
},
{
closed = 1;
nodes = (
(204,635,l),
(295,640,l),
(542,620,l),
(553,700,l),
(213,700,l)
);
}
);
width = 510;
},
{
anchors = (
{
name = bottom;
pos = (255,0);
},
{
name = top;
pos = (255,700);
}
);
background = {
anchors = (
{
name = bottom;
pos = (255,0);
},
{
name = top;
pos = (255,700);
}
);
shapes = (
{
closed = 1;
nodes = (
(420,385,l),
(260,380,l),
(140,380,l),
(140,320,l),
(260,320,l),
(420,315,l)
);
},
{
closed = 1;
nodes = (
(70,500,l),
(65,0,l),
(160,0,l),
(150,250,l),
(155,700,l),
(65,700,l)
);
},
{
closed = 1;
nodes = (
(150,635,l),
(240,640,l),
(490,620,l),
(490,700,l),
(150,700,l)
);
}
);
};
layerId = m004;
shapes = (
{
closed = 1;
nodes = (
(420,395,l),
(260,390,l),
(140,390,l),
(140,300,l),
(260,300,l),
(420,295,l)
);
},
{
closed = 1;
nodes = (
(70,500,l),
(65,0,l),
(200,0,l),
(190,250,l),
(195,700,l),
(65,700,l)
);
},
{
closed = 1;
nodes = (
(150,605,l),
(240,610,l),
(490,580,l),
(490,700,l),
(150,700,l)
);
}
);
width = 510;
},
{
anchors = (
{
name = bottom;
pos = (220,0);
},
{
name = top;
pos = (318,700);
}
);
background = {
anchors = (
{
name = bottom;
pos = (255,0);
},
{
name = top;
pos = (255,700);
}
);
shapes = (
{
closed = 1;
nodes = (
(420,385,l),
(260,380,l),
(140,380,l),
(140,320,l),
(260,320,l),
(420,315,l)
);
},
{
closed = 1;
nodes = (
(70,500,l),
(65,0,l),
(160,0,l),
(150,250,l),
(155,700,l),
(65,700,l)
);
},
{
closed = 1;
nodes = (
(150,635,l),
(240,640,l),
(490,620,l),
(490,700,l),
(150,700,l)
);
}
);
};
layerId = m005;
shapes = (
{
closed = 1;
nodes = (
(440,395,l),
(280,390,l),
(160,390,l),
(147,300,l),
(267,300,l),
(426,295,l)
);
},
{
closed = 1;
nodes = (
(105,500,l),
(30,0,l),
(165,0,l),
(190,250,l),
(258,700,l),
(128,700,l)
);
},
{
closed = 1;
nodes = (
(200,605,l),
(291,610,l),
(536,580,l),
(553,700,l),
(213,700,l)
);
}
);
width = 510;
},
{
anchors = (
{
name = bottom;
pos = (255,0);
},
{
name = top;
pos = (255,700);
}
);
layerId = "7BE518C1-5919-420B-B6AE-125B8031F769";
shapes = (
{
closed = 1;
nodes = (
(420,370,l),
(260,365,l),
(140,365,l),
(140,350,l),
(260,350,l),
(420,345,l)
);
},
{
closed = 1;
nodes = (
(70,500,l),
(65,0,l),
(100,0,l),
(90,250,l),
(95,700,l),
(65,700,l)
);
},
{
closed = 1;
nodes = (
(150,680,l),
(240,685,l),
(490,680,l),
(490,700,l),
(150,700,l)
);
}
);
width = 510;
}
);
unicode = 70;
changeCount = 2;
},
{
glyphname = G;
lastChange = "2024-11-15 10:07:07 +0000";
layers = (
{
anchors = (
{
name = bottom;
pos = (377,0);
},
{
name = top;
pos = (387,700);
}
);
background = {
anchors = (
{
name = bottom;
pos = (377,0);
},
{
name = top;
pos = (387,700);
}
);
shapes = (
{
closed = 1;
nodes = (
(608,656,l),
(534,696,o),
(476,709,o),
(417,709,cs),
(250,709,o),
(45,567,o),
(45,340,cs),
(45,125,o),
(221,-10,o),
(379,-10,cs),
(465,-10,o),
(557,22,o),
(638,92,c),
(613,132,l),
(546,94,o),
(479,69,o),
(412,69,cs),
(282,69,o),
(134,165,o),
(134,364,cs),
(134,538,o),
(248,628,o),
(385,628,cs),
(451,628,o),
(522,606,o),
(588,564,c)
);
},
{
closed = 1;
nodes = (
(555,90,l),
(638,92,l),
(630,250,l),
(635,330,l),
(545,330,l)
);
}
);
};
layerId = m002;
shapes = (
{
closed = 1;
nodes = (
(465,-10,o),
(557,22,o),
(638,92,c),
(613,132,l),
(546,94,o),
(479,69,o),
(412,69,cs),
(282,69,o),
(134,165,o),
(134,364,cs),
(134,538,o),
(248,628,o),
(385,628,cs),
(451,628,o),
(522,606,o),
(588,564,c),
(608,656,l),
(534,696,o),
(476,709,o),
(417,709,cs),
(250,709,o),
(45,567,o),
(45,340,cs),
(45,125,o),
(221,-10,o),
(379,-10,cs)
);
},
{
closed = 1;
nodes = (
(638,92,l),
(630,250,l),
(635,330,l),
(545,330,l),
(555,90,l)
);
}
);
width = 693;
},
{
anchors = (
{
name = bottom;
pos = (395,0);
},
{
name = top;
pos = (355,700);
}
);
background = {
shapes = (
{
closed = 1;
nodes = (
(428,-10,o),
(525,22,o),
(616,92,c),
(596,132,l),
(524,94,o),
(454,69,o),
(387,69,cs),
(257,69,o),
(122,165,o),
(150,364,cs),
(174,538,o),
(301,628,o),
(438,628,cs),
(504,628,o),
(572,606,o),
(632,564,c),
(665,656,l),
(597,696,o),
(541,709,o),
(482,709,cs),
(315,709,o),
(90,567,o),
(58,340,cs),
(27,125,o),
(184,-10,o),
(342,-10,cs)
);
},
{
closed = 1;
nodes = (
(616,92,l),
(630,250,l),
(646,330,l),
(556,330,l),
(533,90,l)
);
}
);
};
layerId = m003;
shapes = (
{
closed = 1;
nodes = (
(428,-10,o),
(525,22,o),
(616,92,c),
(596,132,l),
(524,94,o),
(454,69,o),
(387,69,cs),
(274,69,o),
(157,141,o),
(147,290,cs),
(134,492,o),
(257,628,o),
(418,628,cs),
(504,628,o),
(572,606,o),
(632,564,c),
(665,656,l),
(597,696,o),
(541,709,o),
(462,709,cs),
(267,709,o),
(37,523,o),
(53,283,cs),
(64,113,o),
(205,-10,o),
(342,-10,cs)
);
},
{
closed = 1;
nodes = (
(616,92,l),
(630,250,l),
(646,330,l),
(556,330,l),
(533,90,l)
);
}
);
width = 693;
},
{
anchors = (
{
name = bottom;
pos = (347,0);
},
{
name = top;
pos = (347,700);
}
);
background = {
anchors = (
{
name = bottom;
pos = (377,0);
},
{
name = top;
pos = (387,700);
}
);
shapes = (
{
closed = 1;
nodes = (
(608,656,l),
(534,696,o),
(476,709,o),
(417,709,cs),
(250,709,o),
(45,567,o),
(45,340,cs),
(45,125,o),
(221,-10,o),
(379,-10,cs),
(465,-10,o),
(557,22,o),
(638,92,c),
(613,132,l),
(546,94,o),
(479,69,o),
(412,69,cs),
(282,69,o),
(134,165,o),
(134,364,cs),
(134,538,o),
(248,628,o),
(385,628,cs),
(451,628,o),
(522,606,o),
(588,564,c)
);
},
{
closed = 1;
nodes = (
(555,90,l),
(638,92,l),
(630,250,l),
(635,330,l),
(545,330,l)
);
}
);
};
layerId = m004;
shapes = (
{
closed = 1;
nodes = (
(455,-10,o),
(547,22,o),
(638,92,c),
(599,133,l),
(550,119,o),
(495,100,o),
(443,100,cs),
(300,100,o),
(168,174,o),
(168,372,cs),
(168,531,o),
(266,588,o),
(383,588,cs),
(440,588,o),
(521,569,o),
(577,533,c),
(628,656,l),
(565,692,o),
(501,708,o),
(439,708,cs),
(229,708,o),
(45,529,o),
(45,340,cs),
(45,125,o),
(211,-10,o),
(369,-10,cs)
);
},
{
closed = 1;
nodes = (
(638,92,l),
(630,250,l),
(635,330,l),
(505,330,l),
(515,90,l)
);
}
);
width = 693;
},
{
anchors = (
{
name = bottom;
pos = (312,0);
},
{
name = top;
pos = (410,700);
}
);
background = {
anchors = (
{
name = bottom;
pos = (377,0);
},
{
name = top;
pos = (387,700);
}
);
shapes = (
{
closed = 1;
nodes = (
(608,656,l),
(534,696,o),
(476,709,o),
(417,709,cs),
(250,709,o),
(45,567,o),
(45,340,cs),
(45,125,o),
(221,-10,o),
(379,-10,cs),
(465,-10,o),
(557,22,o),
(638,92,c),
(613,132,l),
(546,94,o),
(479,69,o),
(412,69,cs),
(282,69,o),
(134,165,o),
(134,364,cs),
(134,538,o),
(248,628,o),
(385,628,cs),
(451,628,o),
(522,606,o),
(588,564,c)
);
},
{
closed = 1;
nodes = (
(555,90,l),
(638,92,l),
(630,250,l),
(635,330,l),
(545,330,l)
);
}
);
};
layerId = m005;
shapes = (
{
closed = 1;
nodes = (
(418,-10,o),
(515,22,o),
(616,92,c),
(583,133,l),
(532,119,o),
(474,100,o),
(422,100,cs),
(279,100,o),
(157,174,o),
(185,372,cs),
(207,531,o),
(314,588,o),
(431,588,cs),
(488,588,o),
(566,569,o),
(617,533,c),
(685,656,l),
(627,692,o),
(565,708,o),
(503,708,cs),
(293,708,o),
(84,529,o),
(58,340,cs),
(27,125,o),
(174,-10,o),
(332,-10,cs)
);
},
{
closed = 1;
nodes = (
(616,92,l),
(630,250,l),
(646,330,l),
(516,330,l),
(493,90,l)
);
}
);
width = 693;
},
{
anchors = (
{
name = bottom;
pos = (422,0);
},
{
name = top;
pos = (447,700);
}
);
layerId = "7BE518C1-5919-420B-B6AE-125B8031F769";
shapes = (
{
closed = 1;
nodes = (
(480,-10,o),
(572,22,o),
(638,92,c),
(634,131,l),
(540,57,o),
(455,23,o),
(366,23,cs),
(255,23,o),
(83,152,o),
(83,352,cs),
(83,549,o),
(221,688,o),
(388,688,cs),
(468,688,o),
(524,662,o),
(605,611,c),
(578,656,l),
(488,702,o),
(439,711,o),
(384,711,cs),
(282,711,o),
(45,624,o),
(45,340,cs),
(45,125,o),
(236,-10,o),
(394,-10,cs)
);
},
{
closed = 1;
nodes = (
(638,92,l),
(630,250,l),
(635,330,l),
(605,330,l),
(615,90,l)
);
}
);
width = 693;
}
);
unicode = 71;
changeCount = 2;
},
{
glyphname = H;
lastChange = "2024-11-15 10:07:07 +0000";
layers = (
{
anchors = (
{
name = bottom;
pos = (340,0);
},
{
name = center;
pos = (340,350);
},
{
name = top;
pos = (340,700);
},
{
name = topleft;
pos = (20,700);
}
);
background = {
anchors = (
{
name = bottom;
pos = (340,0);
},
{
name = center;
pos = (340,350);
},
{
name = top;
pos = (340,700);
},
{
name = topleft;
pos = (20,700);
}
);
shapes = (
{
closed = 1;
nodes = (
(540,325,l),
(540,395,l),
(260,390,l),
(140,395,l),
(140,325,l),
(420,330,l)
);
},
{
closed = 1;
nodes = (
(70,500,l),
(65,0,l),
(155,0,l),
(150,250,l),
(155,700,l),
(65,700,l)
);
},
{
closed = 1;
nodes = (
(530,500,l),
(525,0,l),
(615,0,l),
(610,250,l),
(615,700,l),
(525,700,l)
);
}
);
};
layerId = m002;
shapes = (
{
closed = 1;
nodes = (
(540,325,l),
(540,395,l),
(260,390,l),
(140,395,l),
(140,325,l),
(420,330,l)
);
},
{
closed = 1;
nodes = (
(70,500,l),
(65,0,l),
(155,0,l),
(150,250,l),
(155,700,l),
(65,700,l)
);
},
{
closed = 1;
nodes = (
(530,500,l),
(525,0,l),
(615,0,l),
(610,250,l),
(615,700,l),
(525,700,l)
);
}
);
width = 680;
},
{
anchors = (
{
name = bottom;
pos = (305,0);
},
{
name = center;
pos = (354,350);
},
{
name = top;
pos = (403,700);
},
{
name = topleft;
pos = (83,700);
}
);
background = {
anchors = (
{
name = bottom;
pos = (340,0);
},
{
name = center;
pos = (340,350);
},
{
name = top;
pos = (340,700);
},
{
name = topleft;
pos = (20,700);
}
);
shapes = (
{
closed = 1;
nodes = (
(540,325,l),
(540,395,l),
(260,390,l),
(140,395,l),
(140,325,l),
(420,330,l)
);
},
{
closed = 1;
nodes = (
(70,500,l),
(65,0,l),
(155,0,l),
(150,250,l),
(155,700,l),
(65,700,l)
);
},
{
closed = 1;
nodes = (
(530,500,l),
(525,0,l),
(615,0,l),
(610,250,l),
(615,700,l),
(525,700,l)
);
}
);
};
layerId = m003;
shapes = (
{
closed = 1;
nodes = (
(551,325,l),
(560,395,l),
(280,390,l),
(160,395,l),
(151,325,l),
(431,330,l)
);
},
{
closed = 1;
nodes = (
(105,500,l),
(30,0,l),
(120,0,l),
(150,250,l),
(218,700,l),
(128,700,l)
);
},
{
closed = 1;
nodes = (
(565,500,l),
(490,0,l),
(580,0,l),
(610,250,l),
(678,700,l),
(588,700,l)
);
}
);
width = 680;
},
{
anchors = (
{
name = bottom;
pos = (340,0);
},
{
name = center;
pos = (340,350);
},
{
name = top;
pos = (340,700);
},
{
name = topleft;
pos = (20,700);
}
);
background = {
anchors = (
{
name = bottom;
pos = (340,0);
},
{
name = center;
pos = (340,350);
},
{
name = top;
pos = (340,700);
},
{
name = topleft;
pos = (20,700);
}
);
shapes = (
{
closed = 1;
nodes = (
(540,325,l),
(540,395,l),
(260,390,l),
(140,395,l),
(140,325,l),
(420,330,l)
);
},
{
closed = 1;
nodes = (
(70,500,l),
(65,0,l),
(155,0,l),
(150,250,l),
(155,700,l),
(65,700,l)
);
},
{
closed = 1;
nodes = (
(530,500,l),
(525,0,l),
(615,0,l),
(610,250,l),
(615,700,l),
(525,700,l)
);
}
);
};
layerId = m004;
shapes = (
{
closed = 1;
nodes = (
(540,305,l),
(540,405,l),
(260,400,l),
(140,405,l),
(140,305,l),
(420,310,l)
);
},
{
closed = 1;
nodes = (
(70,500,l),
(65,0,l),
(195,0,l),
(190,250,l),
(195,700,l),
(65,700,l)
);
},
{
closed = 1;
nodes = (
(490,500,l),
(485,0,l),
(615,0,l),
(610,250,l),
(615,700,l),
(485,700,l)
);
}
);
width = 680;
},
{
anchors = (
{
name = bottom;
pos = (305,0);
},
{
name = center;
pos = (354,350);
},
{
name = top;
pos = (403,700);
},
{
name = topleft;
pos = (83,700);
}
);
background = {
anchors = (
{
name = bottom;
pos = (340,0);
},
{
name = center;
pos = (340,350);
},
{
name = top;
pos = (340,700);
},
{
name = topleft;
pos = (20,700);
}
);
shapes = (
{
closed = 1;
nodes = (
(540,325,l),
(540,395,l),
(260,390,l),
(140,395,l),
(140,325,l),
(420,330,l)
);
},
{
closed = 1;
nodes = (
(70,500,l),
(65,0,l),
(155,0,l),
(150,250,l),
(155,700,l),
(65,700,l)
);
},
{
closed = 1;
nodes = (
(530,500,l),
(525,0,l),
(615,0,l),
(610,250,l),
(615,700,l),
(525,700,l)
);
}
);
};
layerId = m005;
shapes = (
{
closed = 1;
nodes = (
(548,305,l),
(562,405,l),
(281,400,l),
(162,405,l),
(148,305,l),
(428,310,l)
);
},
{
closed = 1;
nodes = (
(105,500,l),
(30,0,l),
(160,0,l),
(190,250,l),
(258,700,l),
(128,700,l)
);
},
{
closed = 1;
nodes = (
(525,500,l),
(450,0,l),
(580,0,l),
(610,250,l),
(678,700,l),
(548,700,l)
);
}
);
width = 680;
},
{
anchors = (
{
name = bottom;
pos = (340,0);
},
{
name = center;
pos = (340,350);
},
{
name = top;
pos = (340,700);
},
{
name = topleft;
pos = (20,700);
}
);
layerId = "7BE518C1-5919-420B-B6AE-125B8031F769";
shapes = (
{
closed = 1;
nodes = (
(540,355,l),
(540,380,l),
(260,375,l),
(140,380,l),
(140,355,l),
(420,360,l)
);
},
{
closed = 1;
nodes = (
(70,500,l),
(65,0,l),
(95,0,l),
(90,250,l),
(95,700,l),
(65,700,l)
);
},
{
closed = 1;
nodes = (
(590,500,l),
(585,0,l),
(615,0,l),
(610,250,l),
(615,700,l),
(585,700,l)
);
}
);
width = 680;
}
);
unicode = 72;
changeCount = 2;
},
{
glyphname = Hbar;
lastChange = "2024-11-15 10:07:07 +0000";
layers = (
{
layerId = m002;
shapes = (
{
ref = H;
},
{
closed = 1;
nodes = (
(660,580,l),
(340,575,l),
(20,580,l),
(20,510,l),
(340,515,l),
(660,510,l)
);
}
);
width = 680;
},
{
layerId = m003;
shapes = (
{
ref = H;
},
{
closed = 1;
nodes = (
(706,580,l),
(386,575,l),
(66,580,l),
(57,510,l),
(377,515,l),
(697,510,l)
);
}
);
width = 680;
},
{
layerId = m004;
shapes = (
{
ref = H;
},
{
closed = 1;
nodes = (
(660,580,l),
(340,575,l),
(20,580,l),
(20,490,l),
(340,495,l),
(660,490,l)
);
}
);
width = 680;
},
{
layerId = m005;
shapes = (
{
ref = H;
},
{
closed = 1;
nodes = (
(660,580,l),
(340,575,l),
(20,580,l),
(20,490,l),
(340,495,l),
(660,490,l)
);
}
);
width = 680;
},
{
layerId = "7BE518C1-5919-420B-B6AE-125B8031F769";
shapes = (
{
alignment = -1;
ref = H;
},
{
closed = 1;
nodes = (
(660,580,l),
(340,575,l),
(20,580,l),
(20,540,l),
(340,545,l),
(660,540,l)
);
}
);
width = 680;
}
);
unicode = 294;
changeCount = 2;
},
{
glyphname = I;
lastChange = "2024-11-15 10:07:07 +0000";
layers = (
{
anchors = (
{
name = bottom;
pos = (110,0);
},
{
name = ogonek;
pos = (155,0);
},
{
name = top;
pos = (110,700);
},
{
name = topleft;
pos = (20,700);
}
);
background = {
anchors = (
{
name = bottom;
pos = (110,0);
},
{
name = ogonek;
pos = (155,0);
},
{
name = top;
pos = (110,700);
},
{
name = topleft;
pos = (20,700);
}
);
shapes = (
{
closed = 1;
nodes = (
(70,500,l),
(65,0,l),
(155,0,l),
(150,250,l),
(155,700,l),
(65,700,l)
);
}
);
};
layerId = m002;
shapes = (
{
closed = 1;
nodes = (
(70,500,l),
(65,0,l),
(155,0,l),
(150,250,l),
(155,700,l),
(65,700,l)
);
}
);
width = 220;
},
{
anchors = (
{
name = bottom;
pos = (75,0);
},
{
name = ogonek;
pos = (120,0);
},
{
name = top;
pos = (173,700);
},
{
name = topleft;
pos = (83,700);
}
);
background = {
anchors = (
{
name = bottom;
pos = (110,0);
},
{
name = ogonek;
pos = (155,0);
},
{
name = top;
pos = (110,700);
},
{
name = topleft;
pos = (20,700);
}
);
shapes = (
{
closed = 1;
nodes = (
(70,500,l),
(65,0,l),
(155,0,l),
(150,250,l),
(155,700,l),
(65,700,l)
);
}
);
};
layerId = m003;
shapes = (
{
closed = 1;
nodes = (
(105,500,l),
(30,0,l),
(120,0,l),
(150,250,l),
(218,700,l),
(128,700,l)
);
}
);
width = 220;
},
{
anchors = (
{
name = bottom;
pos = (135,0);
},
{
name = ogonek;
pos = (205,0);
},
{
name = top;
pos = (135,700);
},
{
name = topleft;
pos = (20,700);
}
);
background = {
anchors = (
{
name = bottom;
pos = (110,0);
},
{
name = ogonek;
pos = (155,0);
},
{
name = top;
pos = (110,700);
},
{
name = topleft;
pos = (20,700);
}
);
shapes = (
{
closed = 1;
nodes = (
(70,500,l),
(65,0,l),
(155,0,l),
(150,250,l),
(155,700,l),
(65,700,l)
);
}
);
};
layerId = m004;
shapes = (
{
closed = 1;
nodes = (
(70,500,l),
(65,0,l),
(205,0,l),
(200,250,l),
(205,700,l),
(65,700,l)
);
}
);
width = 270;
},
{
anchors = (
{
name = bottom;
pos = (100,0);
},
{
name = ogonek;
pos = (170,0);
},
{
name = top;
pos = (198,700);
},
{
name = topleft;
pos = (83,700);
}
);
background = {
anchors = (
{
name = bottom;
pos = (110,0);
},
{
name = ogonek;
pos = (155,0);
},
{
name = top;
pos = (110,700);
},
{
name = topleft;
pos = (20,700);
}
);
shapes = (
{
closed = 1;
nodes = (
(70,500,l),
(65,0,l),
(155,0,l),
(150,250,l),
(155,700,l),
(65,700,l)
);
}
);
};
layerId = m005;
shapes = (
{
closed = 1;
nodes = (
(105,500,l),
(30,0,l),
(170,0,l),
(200,250,l),
(268,700,l),
(128,700,l)
);
}
);
width = 270;
},
{
anchors = (
{
name = bottom;
pos = (73,0);
},
{
name = ogonek;
pos = (80,0);
},
{
name = top;
pos = (73,700);
},
{
name = topleft;
pos = (20,700);
}
);
layerId = "7BE518C1-5919-420B-B6AE-125B8031F769";
shapes = (
{
closed = 1;
nodes = (
(70,500,l),
(65,0,l),
(80,0,l),
(75,250,l),
(80,700,l),
(65,700,l)
);
}
);
width = 145;
}
);
unicode = 73;
changeCount = 2;
},
{
glyphname = J;
lastChange = "2024-11-15 10:07:07 +0000";
layers = (
{
anchors = (
{
name = bottom;
pos = (165,0);
},
{
name = top;
pos = (165,700);
}
);
background = {
anchors = (
{
name = bottom;
pos = (165,0);
},
{
name = top;
pos = (165,700);
}
);
shapes = (
{
closed = 1;
nodes = (
(187,91,o),
(162,53,o),
(41,72,c),
(40,-8,l),
(158,-32,o),
(268,85,o),
(264,204,cs),
(255,460,l),
(255,700,l),
(165,700,l),
(183,197,ls)
);
}
);
};
layerId = m002;
shapes = (
{
closed = 1;
nodes = (
(187,91,o),
(162,53,o),
(41,72,c),
(40,-8,l),
(158,-32,o),
(268,85,o),
(264,204,cs),
(255,460,l),
(255,700,l),
(165,700,l),
(183,197,ls)
);
}
);
width = 329;
},
{
anchors = (
{
name = bottom;
pos = (130,0);
},
{
name = top;
pos = (228,700);
}
);
background = {
anchors = (
{
name = bottom;
pos = (165,0);
},
{
name = top;
pos = (165,700);
}
);
shapes = (
{
closed = 1;
nodes = (
(187,91,o),
(162,53,o),
(41,72,c),
(40,-8,l),
(158,-32,o),
(268,85,o),
(264,204,cs),
(255,460,l),
(255,700,l),
(165,700,l),
(183,197,ls)
);
}
);
};
layerId = m003;
shapes = (
{
closed = 1;
nodes = (
(165,91,o),
(134,53,o),
(16,72,c),
(4,-8,l),
(118,-32,o),
(245,85,o),
(258,204,cs),
(285,460,l),
(318,700,l),
(228,700,l),
(176,197,ls)
);
}
);
width = 330;
},
{
anchors = (
{
name = bottom;
pos = (165,0);
},
{
name = top;
pos = (165,700);
}
);
background = {
shapes = (
{
closed = 1;
nodes = (
(187,91,o),
(162,53,o),
(41,72,c),
(40,-8,l),
(158,-32,o),
(268,85,o),
(264,204,cs),
(255,460,l),
(255,700,l),
(165,700,l),
(183,197,ls)
);
}
);
};
layerId = m004;
shapes = (
{
closed = 1;
nodes = (
(137,91,o),
(162,103,o),
(21,122,c),
(20,-8,l),
(158,-32,o),
(268,85,o),
(264,204,cs),
(255,460,l),
(255,700,l),
(115,700,l),
(133,197,ls)
);
}
);
width = 329;
},
{
anchors = (
{
name = bottom;
pos = (130,0);
},
{
name = top;
pos = (228,700);
}
);
background = {
shapes = (
{
closed = 1;
nodes = (
(187,91,o),
(162,53,o),
(41,72,c),
(40,-8,l),
(158,-32,o),
(268,85,o),
(264,204,cs),
(255,460,l),
(255,700,l),
(165,700,l),
(183,197,ls)
);
}
);
};
layerId = m005;
shapes = (
{
closed = 1;
nodes = (
(115,91,o),
(141,103,o),
(3,122,c),
(-16,-8,l),
(118,-32,o),
(245,85,o),
(258,204,cs),
(285,460,l),
(318,700,l),
(178,700,l),
(126,197,ls)
);
}
);
width = 330;
},
{
anchors = (
{
name = bottom;
pos = (165,0);
},
{
name = top;
pos = (165,700);
}
);
layerId = "7BE518C1-5919-420B-B6AE-125B8031F769";
shapes = (
{
closed = 1;
nodes = (
(262,91,o),
(162,-22,o),
(71,-3,c),
(70,-8,l),
(158,-32,o),
(268,85,o),
(264,204,cs),
(255,460,l),
(255,700,l),
(240,700,l),
(258,197,ls)
);
}
);
width = 329;
}
);
metricRight = "=I";
unicode = 74;
changeCount = 2;
},
{
glyphname = K;
lastChange = "2024-11-15 10:07:07 +0000";
layers = (
{
anchors = (
{
name = bottom;
pos = (291,0);
},
{
name = top;
pos = (291,700);
}
);
background = {
anchors = (
{
name = bottom;
pos = (291,0);
},
{
name = top;
pos = (291,700);
}
);
shapes = (
{
closed = 1;
nodes = (
(70,500,l),
(65,0,l),
(155,0,l),
(150,250,l),
(155,700,l),
(65,700,l)
);
},
{
closed = 1;
nodes = (
(217,359,l),
(458,0,l),
(566,0,l),
(265,420,l)
);
},
{
closed = 1;
nodes = (
(571,700,l),
(443,700,l),
(144,350,l),
(144,282,l)
);
}
);
};
layerId = m002;
shapes = (
{
closed = 1;
nodes = (
(70,500,l),
(65,0,l),
(155,0,l),
(150,250,l),
(155,700,l),
(65,700,l)
);
},
{
closed = 1;
nodes = (
(217,359,l),
(458,0,l),
(566,0,l),
(265,420,l)
);
},
{
closed = 1;
nodes = (
(571,700,l),
(443,700,l),
(144,350,l),
(144,282,l)
);
}
);
width = 581;
},
{
anchors = (
{
name = bottom;
pos = (256,0);
},
{
name = top;
pos = (354,700);
}
);
background = {
anchors = (
{
name = bottom;
pos = (291,0);
},
{
name = top;
pos = (291,700);
}
);
shapes = (
{
closed = 1;
nodes = (
(70,500,l),
(65,0,l),
(155,0,l),
(150,250,l),
(155,700,l),
(65,700,l)
);
},
{
closed = 1;
nodes = (
(217,359,l),
(458,0,l),
(566,0,l),
(265,420,l)
);
},
{
closed = 1;
nodes = (
(571,700,l),
(443,700,l),
(144,350,l),
(144,282,l)
);
}
);
};
layerId = m003;
shapes = (
{
closed = 1;
nodes = (
(105,500,l),
(30,0,l),
(120,0,l),
(150,250,l),
(218,700,l),
(128,700,l)
);
},
{
closed = 1;
nodes = (
(232,359,l),
(423,0,l),
(531,0,l),
(289,420,l)
);
},
{
closed = 1;
nodes = (
(634,700,l),
(506,700,l),
(158,350,l),
(148,282,l)
);
}
);
width = 581;
},
{
anchors = (
{
name = bottom;
pos = (291,0);
},
{
name = top;
pos = (291,700);
}
);
background = {
anchors = (
{
name = bottom;
pos = (291,0);
},
{
name = top;
pos = (291,700);
}
);
shapes = (
{
closed = 1;
nodes = (
(70,500,l),
(65,0,l),
(155,0,l),
(150,250,l),
(155,700,l),
(65,700,l)
);
},
{
closed = 1;
nodes = (
(217,359,l),
(458,0,l),
(566,0,l),
(265,420,l)
);
},
{
closed = 1;
nodes = (
(571,700,l),
(443,700,l),
(144,350,l),
(144,282,l)
);
}
);
};
layerId = m004;
shapes = (
{
closed = 1;
nodes = (
(70,500,l),
(65,0,l),
(195,0,l),
(190,250,l),
(195,700,l),
(65,700,l)
);
},
{
closed = 1;
nodes = (
(207,359,l),
(418,0,l),
(586,0,l),
(295,420,l)
);
},
{
closed = 1;
nodes = (
(571,700,l),
(393,700,l),
(144,350,l),
(144,232,l)
);
}
);
width = 581;
},
{
anchors = (
{
name = bottom;
pos = (276,10);
},
{
name = top;
pos = (354,700);
}
);
background = {
anchors = (
{
name = bottom;
pos = (291,0);
},
{
name = top;
pos = (291,700);
}
);
shapes = (
{
closed = 1;
nodes = (
(70,500,l),
(65,0,l),
(155,0,l),
(150,250,l),
(155,700,l),
(65,700,l)
);
},
{
closed = 1;
nodes = (
(217,359,l),
(458,0,l),
(566,0,l),
(265,420,l)
);
},
{
closed = 1;
nodes = (
(571,700,l),
(443,700,l),
(144,350,l),
(144,282,l)
);
}
);
};
layerId = m005;
shapes = (
{
closed = 1;
nodes = (
(105,500,l),
(30,0,l),
(160,0,l),
(190,250,l),
(258,700,l),
(128,700,l)
);
},
{
closed = 1;
nodes = (
(222,359,l),
(383,0,l),
(551,0,l),
(319,420,l)
);
},
{
closed = 1;
nodes = (
(634,700,l),
(456,700,l),
(158,350,l),
(141,232,l)
);
}
);
width = 581;
},
{
anchors = (
{
name = bottom;
pos = (291,0);
},
{
name = top;
pos = (291,700);
}
);
layerId = "7BE518C1-5919-420B-B6AE-125B8031F769";
shapes = (
{
closed = 1;
nodes = (
(70,500,l),
(65,0,l),
(95,0,l),
(90,250,l),
(95,700,l),
(65,700,l)
);
},
{
closed = 1;
nodes = (
(232,359,l),
(518,0,l),
(536,0,l),
(220,420,l)
);
},
{
closed = 1;
nodes = (
(571,700,l),
(518,700,l),
(144,350,l),
(144,357,l)
);
}
);
width = 581;
}
);
unicode = 75;
changeCount = 2;
},
{
glyphname = L;
lastChange = "2024-11-15 10:07:07 +0000";
layers = (
{
anchors = (
{
name = bottom;
pos = (270,0);
},
{
name = center;
pos = (270,350);
},
{
name = top;
pos = (155,700);
},
{
name = topright;
pos = (176,700);
}
);
background = {
anchors = (
{
name = bottom;
pos = (270,0);
},
{
name = center;
pos = (270,350);
},
{
name = top;
pos = (155,700);
},
{
name = topright;
pos = (176,700);
}
);
shapes = (
{
closed = 1;
nodes = (
(70,500,l),
(65,0,l),
(155,0,l),
(150,250,l),
(155,700,l),
(65,700,l)
);
},
{
closed = 1;
nodes = (
(540,0,l),
(540,80,l),
(260,55,l),
(140,60,l),
(140,0,l)
);
}
);
};
layerId = m002;
shapes = (
{
closed = 1;
nodes = (
(70,500,l),
(65,0,l),
(155,0,l),
(150,250,l),
(155,700,l),
(65,700,l)
);
},
{
closed = 1;
nodes = (
(540,0,l),
(540,80,l),
(260,55,l),
(140,60,l),
(140,0,l)
);
}
);
width = 540;
},
{
anchors = (
{
name = bottom;
pos = (235,0);
},
{
name = center;
pos = (284,350);
},
{
name = top;
pos = (218,700);
},
{
name = topright;
pos = (239,700);
}
);
background = {
anchors = (
{
name = bottom;
pos = (270,0);
},
{
name = center;
pos = (270,350);
},
{
name = top;
pos = (155,700);
},
{
name = topright;
pos = (176,700);
}
);
shapes = (
{
closed = 1;
nodes = (
(70,500,l),
(65,0,l),
(155,0,l),
(150,250,l),
(155,700,l),
(65,700,l)
);
},
{
closed = 1;
nodes = (
(540,0,l),
(540,80,l),
(260,55,l),
(140,60,l),
(140,0,l)
);
}
);
};
layerId = m003;
shapes = (
{
closed = 1;
nodes = (
(105,500,l),
(30,0,l),
(120,0,l),
(150,250,l),
(218,700,l),
(128,700,l)
);
},
{
closed = 1;
nodes = (
(505,0,l),
(516,80,l),
(233,55,l),
(113,60,l),
(105,0,l)
);
}
);
width = 540;
},
{
anchors = (
{
name = bottom;
pos = (270,0);
},
{
name = center;
pos = (270,350);
},
{
name = top;
pos = (140,700);
},
{
name = topright;
pos = (230,700);
}
);
background = {
anchors = (
{
name = bottom;
pos = (270,0);
},
{
name = center;
pos = (270,350);
},
{
name = top;
pos = (155,700);
},
{
name = topright;
pos = (176,700);
}
);
shapes = (
{
closed = 1;
nodes = (
(70,500,l),
(65,0,l),
(155,0,l),
(150,250,l),
(155,700,l),
(65,700,l)
);
},
{
closed = 1;
nodes = (
(540,0,l),
(540,80,l),
(260,55,l),
(140,60,l),
(140,0,l)
);
}
);
};
layerId = m004;
shapes = (
{
closed = 1;
nodes = (
(70,500,l),
(65,0,l),
(210,0,l),
(205,250,l),
(210,700,l),
(65,700,l)
);
},
{
closed = 1;
nodes = (
(540,0,l),
(540,130,l),
(260,85,l),
(140,90,l),
(140,0,l)
);
}
);
width = 540;
},
{
anchors = (
{
name = bottom;
pos = (235,0);
},
{
name = center;
pos = (284,350);
},
{
name = top;
pos = (203,700);
},
{
name = topright;
pos = (293,700);
}
);
background = {
anchors = (
{
name = bottom;
pos = (270,0);
},
{
name = center;
pos = (270,350);
},
{
name = top;
pos = (155,700);
},
{
name = topright;
pos = (176,700);
}
);
shapes = (
{
closed = 1;
nodes = (
(70,500,l),
(65,0,l),
(155,0,l),
(150,250,l),
(155,700,l),
(65,700,l)
);
},
{
closed = 1;
nodes = (
(540,0,l),
(540,80,l),
(260,55,l),
(140,60,l),
(140,0,l)
);
}
);
};
layerId = m005;
shapes = (
{
closed = 1;
nodes = (
(105,500,l),
(30,0,l),
(175,0,l),
(205,250,l),
(273,700,l),
(128,700,l)
);
},
{
closed = 1;
nodes = (
(505,0,l),
(523,130,l),
(237,85,l),
(118,90,l),
(105,0,l)
);
}
);
width = 540;
},
{
anchors = (
{
name = bottom;
pos = (270,0);
},
{
name = center;
pos = (270,350);
},
{
name = top;
pos = (178,700);
},
{
name = topright;
pos = (95,700);
}
);
layerId = "7BE518C1-5919-420B-B6AE-125B8031F769";
shapes = (
{
closed = 1;
nodes = (
(70,500,l),
(65,0,l),
(73,0,l),
(68,250,l),
(73,700,l),
(65,700,l)
);
},
{
closed = 1;
nodes = (
(540,0,l),
(540,5,l),
(260,10,l),
(140,15,l),
(140,0,l)
);
}
);
width = 540;
}
);
unicode = 76;
changeCount = 2;
},
{
glyphname = M;
lastChange = "2024-11-15 10:07:07 +0000";
layers = (
{
anchors = (
{
name = bottom;
pos = (450,0);
},
{
name = top;
pos = (450,700);
}
);
background = {
anchors = (
{
name = bottom;
pos = (450,0);
},
{
name = top;
pos = (450,700);
}
);
shapes = (
{
closed = 1;
nodes = (
(483,-2,l),
(501,45,l),
(795,700,l),
(725,700,l),
(462,89,l),
(207,700,l),
(109,700,l),
(417,-16,l)
);
},
{
closed = 1;
nodes = (
(739,500,l),
(739,0,l),
(829,0,l),
(819,250,l),
(824,700,l),
(734,700,l)
);
},
{
closed = 1;
nodes = (
(85,700,l),
(90,500,l),
(65,0,l),
(155,0,l),
(145,500,l),
(145,700,l)
);
}
);
};
layerId = m002;
shapes = (
{
closed = 1;
nodes = (
(85,700,l),
(90,500,l),
(65,0,l),
(155,0,l),
(145,500,l),
(145,700,l)
);
},
{
closed = 1;
nodes = (
(483,-2,l),
(501,45,l),
(795,700,l),
(725,700,l),
(462,89,l),
(207,700,l),
(109,700,l),
(417,-16,l)
);
},
{
closed = 1;
nodes = (
(739,500,l),
(739,0,l),
(829,0,l),
(819,250,l),
(824,700,l),
(734,700,l)
);
}
);
width = 894;
},
{
anchors = (
{
name = bottom;
pos = (415,0);
},
{
name = top;
pos = (513,700);
}
);
background = {
anchors = (
{
name = bottom;
pos = (450,0);
},
{
name = top;
pos = (450,700);
}
);
shapes = (
{
closed = 1;
nodes = (
(483,-2,l),
(501,45,l),
(795,700,l),
(725,700,l),
(462,89,l),
(207,700,l),
(109,700,l),
(417,-16,l)
);
},
{
closed = 1;
nodes = (
(739,500,l),
(739,0,l),
(829,0,l),
(819,250,l),
(824,700,l),
(734,700,l)
);
},
{
closed = 1;
nodes = (
(85,700,l),
(90,500,l),
(65,0,l),
(155,0,l),
(145,500,l),
(145,700,l)
);
}
);
};
layerId = m003;
shapes = (
{
closed = 1;
nodes = (
(148,700,l),
(125,500,l),
(30,0,l),
(120,0,l),
(180,500,l),
(208,700,l)
);
},
{
closed = 1;
nodes = (
(448,-2,l),
(472,45,l),
(858,700,l),
(788,700,l),
(439,89,l),
(270,700,l),
(172,700,l),
(380,-16,l)
);
},
{
closed = 1;
nodes = (
(774,500,l),
(704,0,l),
(794,0,l),
(819,250,l),
(887,700,l),
(797,700,l)
);
}
);
width = 894;
},
{
anchors = (
{
name = bottom;
pos = (447,0);
},
{
name = top;
pos = (447,700);
}
);
background = {
shapes = (
{
closed = 1;
nodes = (
(483,-2,l),
(501,45,l),
(795,700,l),
(725,700,l),
(462,89,l),
(207,700,l),
(109,700,l),
(417,-16,l)
);
},
{
closed = 1;
nodes = (
(739,500,l),
(739,0,l),
(829,0,l),
(819,250,l),
(824,700,l),
(734,700,l)
);
},
{
closed = 1;
nodes = (
(85,700,l),
(90,500,l),
(65,0,l),
(155,0,l),
(145,500,l),
(145,700,l)
);
}
);
};
layerId = m004;
shapes = (
{
closed = 1;
nodes = (
(85,700,l),
(90,500,l),
(65,0,l),
(185,0,l),
(175,500,l),
(175,700,l)
);
},
{
closed = 1;
nodes = (
(504,-2,l),
(522,65,l),
(776,700,l),
(666,700,l),
(473,149,l),
(248,700,l),
(110,700,l),
(398,-16,l)
);
},
{
closed = 1;
nodes = (
(699,500,l),
(699,0,l),
(829,0,l),
(819,250,l),
(824,700,l),
(694,700,l)
);
}
);
width = 894;
},
{
anchors = (
{
name = bottom;
pos = (412,0);
},
{
name = top;
pos = (510,700);
}
);
background = {
shapes = (
{
closed = 1;
nodes = (
(483,-2,l),
(501,45,l),
(795,700,l),
(725,700,l),
(462,89,l),
(207,700,l),
(109,700,l),
(417,-16,l)
);
},
{
closed = 1;
nodes = (
(739,500,l),
(739,0,l),
(829,0,l),
(819,250,l),
(824,700,l),
(734,700,l)
);
},
{
closed = 1;
nodes = (
(85,700,l),
(90,500,l),
(65,0,l),
(155,0,l),
(145,500,l),
(145,700,l)
);
}
);
};
layerId = m005;
shapes = (
{
closed = 1;
nodes = (
(148,700,l),
(125,500,l),
(30,0,l),
(150,0,l),
(210,500,l),
(238,700,l)
);
},
{
closed = 1;
nodes = (
(469,-2,l),
(496,65,l),
(839,700,l),
(729,700,l),
(459,149,l),
(311,700,l),
(173,700,l),
(361,-16,l)
);
},
{
closed = 1;
nodes = (
(734,500,l),
(664,0,l),
(794,0,l),
(819,250,l),
(887,700,l),
(757,700,l)
);
}
);
width = 894;
},
{
anchors = (
{
name = bottom;
pos = (455,0);
},
{
name = top;
pos = (455,700);
}
);
layerId = "7BE518C1-5919-420B-B6AE-125B8031F769";
shapes = (
{
closed = 1;
nodes = (
(85,700,l),
(90,500,l),
(65,0,l),
(110,0,l),
(100,500,l),
(100,700,l)
);
},
{
closed = 1;
nodes = (
(452,-2,l),
(470,15,l),
(824,700,l),
(814,700,l),
(446,-1,l),
(146,700,l),
(108,700,l),
(446,-16,l)
);
},
{
closed = 1;
nodes = (
(799,500,l),
(799,0,l),
(829,0,l),
(819,250,l),
(824,700,l),
(794,700,l)
);
}
);
width = 894;
}
);
metricLeft = "=I";
metricRight = "=I";
unicode = 77;
changeCount = 2;
},
{
glyphname = N;
lastChange = "2024-11-15 10:07:07 +0000";
layers = (
{
anchors = (
{
name = bottom;
pos = (330,50);
},
{
name = top;
pos = (380,660);
}
);
background = {
anchors = (
{
name = bottom;
pos = (330,50);
},
{
name = top;
pos = (360,660);
}
);
shapes = (
{
closed = 1;
nodes = (
(70,500,l),
(65,0,l),
(140,0,l),
(135,250,l),
(138,500,l),
(130,700,l),
(65,700,l)
);
},
{
closed = 1;
nodes = (
(550,500,l),
(548,210,l),
(555,0,l),
(615,0,l),
(610,250,l),
(615,700,l),
(545,700,l)
);
},
{
closed = 1;
nodes = (
(190,500,l),
(460,130,l),
(545,0,l),
(595,0,l),
(595,95,l),
(500,220,l),
(227,600,l),
(160,700,l),
(95,700,l),
(95,650,l)
);
}
);
};
layerId = m002;
shapes = (
{
closed = 1;
nodes = (
(595,0,l),
(595,95,l),
(500,220,l),
(227,600,l),
(160,700,l),
(95,700,l),
(95,650,l),
(190,500,l),
(460,130,l),
(545,0,l)
);
},
{
closed = 1;
nodes = (
(140,0,l),
(135,250,l),
(138,500,l),
(130,700,l),
(65,700,l),
(70,500,l),
(65,0,l)
);
},
{
closed = 1;
nodes = (
(615,0,l),
(610,250,l),
(615,700,l),
(545,700,l),
(550,500,l),
(548,210,l),
(555,0,l)
);
}
);
width = 680;
},
{
anchors = (
{
name = bottom;
pos = (305,40);
},
{
name = top;
pos = (423,660);
}
);
background = {
anchors = (
{
name = bottom;
pos = (330,50);
},
{
name = top;
pos = (360,660);
}
);
shapes = (
{
closed = 1;
nodes = (
(70,500,l),
(65,0,l),
(140,0,l),
(135,250,l),
(138,500,l),
(130,700,l),
(65,700,l)
);
},
{
closed = 1;
nodes = (
(550,500,l),
(548,210,l),
(555,0,l),
(615,0,l),
(610,250,l),
(615,700,l),
(545,700,l)
);
},
{
closed = 1;
nodes = (
(190,500,l),
(460,130,l),
(545,0,l),
(595,0,l),
(595,95,l),
(500,220,l),
(227,600,l),
(160,700,l),
(95,700,l),
(95,650,l)
);
}
);
};
layerId = m003;
shapes = (
{
closed = 1;
nodes = (
(560,0,l),
(573,95,l),
(496,220,l),
(266,600,l),
(213,700,l),
(158,700,l),
(151,650,l),
(225,500,l),
(453,130,l),
(520,0,l)
);
},
{
closed = 1;
nodes = (
(105,0,l),
(135,250,l),
(173,500,l),
(193,700,l),
(128,700,l),
(105,500,l),
(30,0,l)
);
},
{
closed = 1;
nodes = (
(580,0,l),
(610,250,l),
(678,700,l),
(608,700,l),
(585,500,l),
(542,210,l),
(520,0,l)
);
}
);
width = 680;
},
{
anchors = (
{
name = bottom;
pos = (345,40);
},
{
name = top;
pos = (370,680);
}
);
background = {
anchors = (
{
name = bottom;
pos = (330,50);
},
{
name = top;
pos = (360,660);
}
);
shapes = (
{
closed = 1;
nodes = (
(70,500,l),
(65,0,l),
(140,0,l),
(135,250,l),
(138,500,l),
(130,700,l),
(65,700,l)
);
},
{
closed = 1;
nodes = (
(550,500,l),
(548,210,l),
(555,0,l),
(615,0,l),
(610,250,l),
(615,700,l),
(545,700,l)
);
},
{
closed = 1;
nodes = (
(190,500,l),
(460,130,l),
(545,0,l),
(595,0,l),
(595,95,l),
(500,220,l),
(227,600,l),
(160,700,l),
(95,700,l),
(95,650,l)
);
}
);
};
layerId = m004;
shapes = (
{
closed = 1;
nodes = (
(595,0,l),
(595,95,l),
(500,220,l),
(267,600,l),
(200,700,l),
(95,700,l),
(95,650,l),
(190,500,l),
(420,130,l),
(505,0,l)
);
},
{
closed = 1;
nodes = (
(190,0,l),
(175,250,l),
(178,500,l),
(160,700,l),
(65,700,l),
(70,500,l),
(65,0,l)
);
},
{
closed = 1;
nodes = (
(615,0,l),
(610,250,l),
(615,700,l),
(495,700,l),
(510,500,l),
(508,210,l),
(555,0,l)
);
}
);
width = 680;
},
{
anchors = (
{
name = bottom;
pos = (315,40);
},
{
name = top;
pos = (430,680);
}
);
background = {
anchors = (
{
name = bottom;
pos = (330,50);
},
{
name = top;
pos = (360,660);
}
);
shapes = (
{
closed = 1;
nodes = (
(70,500,l),
(65,0,l),
(140,0,l),
(135,250,l),
(138,500,l),
(130,700,l),
(65,700,l)
);
},
{
closed = 1;
nodes = (
(550,500,l),
(548,210,l),
(555,0,l),
(615,0,l),
(610,250,l),
(615,700,l),
(545,700,l)
);
},
{
closed = 1;
nodes = (
(190,500,l),
(460,130,l),
(545,0,l),
(595,0,l),
(595,95,l),
(500,220,l),
(227,600,l),
(160,700,l),
(95,700,l),
(95,650,l)
);
}
);
};
layerId = m005;
shapes = (
{
closed = 1;
nodes = (
(560,0,l),
(573,95,l),
(496,220,l),
(316,600,l),
(263,700,l),
(158,700,l),
(151,650,l),
(225,500,l),
(403,130,l),
(470,0,l)
);
},
{
closed = 1;
nodes = (
(155,0,l),
(175,250,l),
(213,500,l),
(223,700,l),
(128,700,l),
(105,500,l),
(30,0,l)
);
},
{
closed = 1;
nodes = (
(580,0,l),
(610,250,l),
(678,700,l),
(558,700,l),
(545,500,l),
(502,210,l),
(520,0,l)
);
}
);
width = 680;
},
{
anchors = (
{
name = bottom;
pos = (308,65);
},
{
name = top;
pos = (395,630);
}
);
layerId = "7BE518C1-5919-420B-B6AE-125B8031F769";
shapes = (
{
closed = 1;
nodes = (
(595,0,l),
(595,95,l),
(500,220,l),
(167,600,l),
(100,700,l),
(95,700,l),
(95,650,l),
(190,500,l),
(520,130,l),
(605,0,l)
);
},
{
closed = 1;
nodes = (
(65,0,l),
(75,250,l),
(78,500,l),
(85,700,l),
(65,700,l),
(70,500,l),
(65,0,l)
);
},
{
closed = 1;
nodes = (
(615,0,l),
(610,250,l),
(615,700,l),
(620,700,l),
(610,500,l),
(608,210,l),
(555,0,l)
);
}
);
width = 680;
}
);
unicode = 78;
changeCount = 2;
},
{
glyphname = O;
lastChange = "2024-11-15 10:07:07 +0000";
layers = (
{
anchors = (
{
name = bottom;
pos = (398,0);
},
{
name = center;
pos = (398,350);
},
{
name = ogonek;
pos = (716,10);
},
{
name = top;
pos = (398,700);
},
{
name = topleft;
pos = (20,700);
},
{
name = topright;
pos = (775,700);
}
);
background = {
anchors = (
{
name = bottom;
pos = (398,0);
},
{
name = center;
pos = (398,350);
},
{
name = ogonek;
pos = (716,10);
},
{
name = top;
pos = (398,700);
},
{
name = topleft;
pos = (20,700);
},
{
name = topright;
pos = (775,700);
}
);
shapes = (
{
closed = 1;
nodes = (
(237,710,o),
(45,556,o),
(45,350,cs),
(45,158,o),
(200,-10,o),
(386,-10,cs),
(558,-10,o),
(750,144,o),
(750,352,cs),
(750,541,o),
(585,710,o),
(409,710,cs)
);
},
{
closed = 1;
nodes = (
(134,561,o),
(270,636,o),
(386,636,cs),
(515,636,o),
(661,531,o),
(661,326,cs),
(661,139,o),
(524,64,o),
(408,64,cs),
(289,64,o),
(134,169,o),
(134,374,cs)
);
}
);
};
layerId = m002;
shapes = (
{
closed = 1;
nodes = (
(237,710,o),
(45,556,o),
(45,350,cs),
(45,158,o),
(200,-10,o),
(386,-10,cs),
(558,-10,o),
(750,144,o),
(750,352,cs),
(750,541,o),
(585,710,o),
(409,710,cs)
);
},
{
closed = 1;
nodes = (
(134,561,o),
(270,636,o),
(386,636,cs),
(515,636,o),
(661,531,o),
(661,326,cs),
(661,139,o),
(524,64,o),
(408,64,cs),
(289,64,o),
(134,169,o),
(134,374,cs)
);
}
);
width = 795;
},
{
anchors = (
{
name = bottom;
pos = (363,0);
},
{
name = center;
pos = (412,350);
},
{
name = ogonek;
pos = (682,10);
},
{
name = top;
pos = (461,700);
},
{
name = topleft;
pos = (83,700);
},
{
name = topright;
pos = (838,700);
}
);
background = {
anchors = (
{
name = bottom;
pos = (398,0);
},
{
name = center;
pos = (398,350);
},
{
name = ogonek;
pos = (716,10);
},
{
name = top;
pos = (398,700);
},
{
name = topleft;
pos = (20,700);
},
{
name = topright;
pos = (775,700);
}
);
shapes = (
{
closed = 1;
nodes = (
(237,710,o),
(45,556,o),
(45,350,cs),
(45,158,o),
(200,-10,o),
(386,-10,cs),
(558,-10,o),
(750,144,o),
(750,352,cs),
(750,541,o),
(585,710,o),
(409,710,cs)
);
},
{
closed = 1;
nodes = (
(134,561,o),
(270,636,o),
(386,636,cs),
(515,636,o),
(661,531,o),
(661,326,cs),
(661,139,o),
(524,64,o),
(408,64,cs),
(289,64,o),
(134,169,o),
(134,374,cs)
);
}
);
};
layerId = m003;
shapes = (
{
closed = 1;
nodes = (
(302,710,o),
(88,556,o),
(59,350,cs),
(32,158,o),
(163,-10,o),
(349,-10,cs),
(521,-10,o),
(735,144,o),
(764,352,cs),
(791,541,o),
(650,710,o),
(474,710,cs)
);
},
{
closed = 1;
nodes = (
(178,561,o),
(324,636,o),
(440,636,cs),
(569,636,o),
(700,531,o),
(672,326,cs),
(645,139,o),
(498,64,o),
(382,64,cs),
(263,64,o),
(123,169,o),
(151,374,cs)
);
}
);
width = 795;
},
{
anchors = (
{
name = bottom;
pos = (398,0);
},
{
name = center;
pos = (398,350);
},
{
name = ogonek;
pos = (716,10);
},
{
name = top;
pos = (398,700);
},
{
name = topleft;
pos = (20,700);
},
{
name = topright;
pos = (775,700);
}
);
background = {
anchors = (
{
name = bottom;
pos = (398,0);
},
{
name = center;
pos = (398,350);
},
{
name = ogonek;
pos = (716,10);
},
{
name = top;
pos = (398,700);
},
{
name = topleft;
pos = (20,700);
},
{
name = topright;
pos = (775,700);
}
);
shapes = (
{
closed = 1;
nodes = (
(237,710,o),
(45,556,o),
(45,350,cs),
(45,158,o),
(200,-10,o),
(386,-10,cs),
(558,-10,o),
(750,144,o),
(750,352,cs),
(750,541,o),
(585,710,o),
(409,710,cs)
);
},
{
closed = 1;
nodes = (
(134,561,o),
(270,636,o),
(386,636,cs),
(515,636,o),
(661,531,o),
(661,326,cs),
(661,139,o),
(524,64,o),
(408,64,cs),
(289,64,o),
(134,169,o),
(134,374,cs)
);
}
);
};
layerId = m004;
shapes = (
{
closed = 1;
nodes = (
(237,710,o),
(45,556,o),
(45,350,cs),
(45,138,o),
(200,-10,o),
(386,-10,cs),
(558,-10,o),
(750,144,o),
(750,352,cs),
(750,561,o),
(585,710,o),
(409,710,cs)
);
},
{
closed = 1;
nodes = (
(174,529,o),
(269,593,o),
(388,593,cs),
(497,593,o),
(621,504,o),
(621,310,cs),
(621,171,o),
(525,107,o),
(406,107,cs),
(305,107,o),
(174,196,o),
(174,390,cs)
);
}
);
width = 795;
},
{
anchors = (
{
name = bottom;
pos = (363,0);
},
{
name = center;
pos = (412,350);
},
{
name = ogonek;
pos = (349,-10);
},
{
name = top;
pos = (531,700);
},
{
name = topleft;
pos = (83,700);
},
{
name = topright;
pos = (838,700);
}
);
background = {
anchors = (
{
name = bottom;
pos = (398,0);
},
{
name = center;
pos = (398,350);
},
{
name = ogonek;
pos = (716,10);
},
{
name = top;
pos = (398,700);
},
{
name = topleft;
pos = (20,700);
},
{
name = topright;
pos = (775,700);
}
);
shapes = (
{
closed = 1;
nodes = (
(237,710,o),
(45,556,o),
(45,350,cs),
(45,158,o),
(200,-10,o),
(386,-10,cs),
(558,-10,o),
(750,144,o),
(750,352,cs),
(750,541,o),
(585,710,o),
(409,710,cs)
);
},
{
closed = 1;
nodes = (
(134,561,o),
(270,636,o),
(386,636,cs),
(515,636,o),
(661,531,o),
(661,326,cs),
(661,139,o),
(524,64,o),
(408,64,cs),
(289,64,o),
(134,169,o),
(134,374,cs)
);
}
);
};
layerId = m005;
shapes = (
{
closed = 1;
nodes = (
(302,710,o),
(88,556,o),
(59,350,cs),
(29,138,o),
(163,-10,o),
(349,-10,cs),
(521,-10,o),
(735,144,o),
(764,352,cs),
(794,561,o),
(650,710,o),
(474,710,cs)
);
},
{
closed = 1;
nodes = (
(213,529,o),
(317,593,o),
(436,593,cs),
(545,593,o),
(657,504,o),
(629,310,cs),
(610,171,o),
(505,107,o),
(386,107,cs),
(285,107,o),
(166,196,o),
(194,390,cs)
);
}
);
width = 795;
},
{
anchors = (
{
name = bottom;
pos = (398,0);
},
{
name = center;
pos = (398,350);
},
{
name = ogonek;
pos = (716,10);
},
{
name = top;
pos = (398,700);
},
{
name = topleft;
pos = (20,700);
},
{
name = topright;
pos = (775,700);
}
);
layerId = "7BE518C1-5919-420B-B6AE-125B8031F769";
shapes = (
{
closed = 1;
nodes = (
(237,710,o),
(45,556,o),
(45,350,cs),
(45,188,o),
(200,-10,o),
(386,-10,cs),
(558,-10,o),
(750,144,o),
(750,352,cs),
(750,511,o),
(585,710,o),
(409,710,cs)
);
},
{
closed = 1;
nodes = (
(74,609,o),
(272,701,o),
(383,701,cs),
(542,701,o),
(721,572,o),
(721,350,cs),
(721,91,o),
(523,0,o),
(411,0,cs),
(265,0,o),
(74,129,o),
(74,350,cs)
);
}
);
width = 795;
}
);
unicode = 79;
changeCount = 2;
},
{
glyphname = Oslash;
lastChange = "2024-11-15 10:07:07 +0000";
layers = (
{
layerId = m002;
shapes = (
{
ref = O;
},
{
closed = 1;
nodes = (
(47,25,l),
(92,-15,l),
(748,675,l),
(703,715,l)
);
}
);
width = 795;
},
{
layerId = m003;
shapes = (
{
ref = O;
},
{
closed = 1;
nodes = (
(47,25,l),
(92,-15,l),
(748,675,l),
(703,715,l)
);
}
);
width = 795;
},
{
layerId = m004;
shapes = (
{
ref = O;
},
{
closed = 1;
nodes = (
(42,30,l),
(97,-20,l),
(753,670,l),
(698,720,l)
);
}
);
width = 795;
},
{
layerId = m005;
shapes = (
{
ref = O;
},
{
closed = 1;
nodes = (
(42,30,l),
(97,-20,l),
(753,670,l),
(698,720,l)
);
}
);
width = 795;
},
{
layerId = "7BE518C1-5919-420B-B6AE-125B8031F769";
shapes = (
{
alignment = -1;
ref = O;
},
{
closed = 1;
nodes = (
(55,18,l),
(85,-7,l),
(741,683,l),
(711,708,l)
);
}
);
width = 795;
}
);
unicode = 216;
changeCount = 2;
},
{
glyphname = OE;
lastChange = "2024-11-15 10:07:07 +0000";
layers = (
{
anchors = (
{
name = bottom;
pos = (504,0);
},
{
name = top;
pos = (504,700);
}
);
layerId = m002;
shapes = (
{
closed = 1;
nodes = (
(446,-10,o),
(508,9,o),
(564,42,c),
(565,113,l),
(517,79,o),
(460,64,o),
(408,64,cs),
(289,64,o),
(134,169,o),
(134,374,cs),
(134,561,o),
(270,636,o),
(386,636,cs),
(449,636,o),
(515,611,o),
(567,563,c),
(565,666,l),
(517,694,o),
(463,710,o),
(409,710,cs),
(237,710,o),
(45,556,o),
(45,350,cs),
(45,158,o),
(200,-10,o),
(386,-10,cs)
);
},
{
closed = 1;
nodes = (
(988,0,l),
(988,80,l),
(718,60,l),
(648,65,l),
(648,0,l)
);
},
{
closed = 1;
nodes = (
(653,0,l),
(648,250,l),
(653,700,l),
(563,700,l),
(568,500,l),
(563,0,l)
);
},
{
closed = 1;
nodes = (
(848,395,l),
(738,390,l),
(638,390,l),
(638,330,l),
(738,330,l),
(848,325,l)
);
},
{
closed = 1;
nodes = (
(958,700,l),
(628,700,l),
(628,635,l),
(718,640,l),
(958,620,l)
);
}
);
width = 1008;
},
{
anchors = (
{
name = bottom;
pos = (518,0);
},
{
name = top;
pos = (518,700);
}
);
layerId = m003;
shapes = (
{
closed = 1;
nodes = (
(409,-10,o),
(474,9,o),
(535,42,c),
(546,113,l),
(493,79,o),
(434,64,o),
(382,64,cs),
(263,64,o),
(123,169,o),
(151,374,cs),
(178,561,o),
(324,636,o),
(440,636,cs),
(503,636,o),
(566,611,o),
(611,563,c),
(623,666,l),
(579,694,o),
(528,710,o),
(474,710,cs),
(302,710,o),
(88,556,o),
(59,350,cs),
(32,158,o),
(183,-10,o),
(349,-10,cs)
);
},
{
closed = 1;
nodes = (
(953,0,l),
(964,80,l),
(691,60,l),
(622,65,l),
(613,0,l)
);
},
{
closed = 1;
nodes = (
(618,0,l),
(648,250,l),
(716,700,l),
(626,700,l),
(603,500,l),
(528,0,l)
);
},
{
closed = 1;
nodes = (
(868,395,l),
(758,390,l),
(658,390,l),
(649,330,l),
(749,330,l),
(858,325,l)
);
},
{
closed = 1;
nodes = (
(1021,700,l),
(691,700,l),
(682,635,l),
(773,640,l),
(1010,620,l)
);
}
);
width = 1008;
},
{
anchors = (
{
name = bottom;
pos = (504,0);
},
{
name = top;
pos = (504,700);
}
);
background = {
shapes = (
{
closed = 1;
nodes = (
(565,113,l),
(517,79,o),
(460,64,o),
(408,64,cs),
(289,64,o),
(134,169,o),
(134,374,cs),
(134,561,o),
(270,636,o),
(386,636,cs),
(449,636,o),
(515,611,o),
(567,563,c),
(565,666,l),
(517,694,o),
(463,710,o),
(409,710,cs),
(237,710,o),
(45,556,o),
(45,350,cs),
(45,158,o),
(200,-10,o),
(386,-10,cs),
(446,-10,o),
(508,9,o),
(564,42,c)
);
},
{
closed = 1;
nodes = (
(848,395,l),
(738,390,l),
(638,390,l),
(638,330,l),
(738,330,l),
(848,325,l)
);
},
{
closed = 1;
nodes = (
(568,500,l),
(563,0,l),
(653,0,l),
(648,250,l),
(653,700,l),
(563,700,l)
);
},
{
closed = 1;
nodes = (
(628,635,l),
(718,640,l),
(958,620,l),
(958,700,l),
(628,700,l)
);
},
{
closed = 1;
nodes = (
(988,0,l),
(988,80,l),
(718,60,l),
(648,65,l),
(648,0,l)
);
}
);
};
layerId = m004;
shapes = (
{
closed = 1;
nodes = (
(455,-10,o),
(527,15,o),
(589,58,c),
(590,193,l),
(553,135,o),
(484,107,o),
(406,107,cs),
(305,107,o),
(174,196,o),
(174,390,cs),
(174,529,o),
(269,593,o),
(388,593,cs),
(457,593,o),
(536,550,o),
(578,502,c),
(584,658,l),
(532,691,o),
(471,710,o),
(409,710,cs),
(237,710,o),
(45,556,o),
(45,350,cs),
(45,138,o),
(200,-10,o),
(386,-10,cs)
);
},
{
closed = 1;
nodes = (
(1040,0,l),
(1040,120,l),
(740,90,l),
(650,95,l),
(650,0,l)
);
},
{
closed = 1;
nodes = (
(700,0,l),
(695,250,l),
(700,700,l),
(565,700,l),
(570,500,l),
(565,0,l)
);
},
{
closed = 1;
nodes = (
(900,415,l),
(760,405,l),
(640,405,l),
(640,310,l),
(760,310,l),
(900,305,l)
);
},
{
closed = 1;
nodes = (
(1010,700,l),
(650,700,l),
(650,605,l),
(740,610,l),
(1010,580,l)
);
}
);
width = 1060;
},
{
anchors = (
{
name = bottom;
pos = (469,0);
},
{
name = top;
pos = (567,700);
}
);
background = {
shapes = (
{
closed = 1;
nodes = (
(579,113,l),
(531,79,o),
(474,64,o),
(422,64,cs),
(303,64,o),
(148,169,o),
(148,374,cs),
(148,561,o),
(284,636,o),
(400,636,cs),
(463,636,o),
(529,611,o),
(581,563,c),
(579,666,l),
(531,694,o),
(477,710,o),
(423,710,cs),
(251,710,o),
(59,556,o),
(59,350,cs),
(59,158,o),
(214,-10,o),
(400,-10,cs),
(460,-10,o),
(522,9,o),
(578,42,c)
);
},
{
closed = 1;
nodes = (
(862,395,l),
(752,390,l),
(652,390,l),
(652,330,l),
(752,330,l),
(862,325,l)
);
},
{
closed = 1;
nodes = (
(582,500,l),
(577,0,l),
(667,0,l),
(662,250,l),
(667,700,l),
(577,700,l)
);
},
{
closed = 1;
nodes = (
(642,635,l),
(732,640,l),
(972,620,l),
(972,700,l),
(642,700,l)
);
},
{
closed = 1;
nodes = (
(1002,0,l),
(1002,80,l),
(732,60,l),
(662,65,l),
(662,0,l)
);
}
);
};
layerId = m005;
shapes = (
{
closed = 1;
nodes = (
(418,-10,o),
(494,15,o),
(562,58,c),
(582,193,l),
(537,135,o),
(464,107,o),
(386,107,cs),
(285,107,o),
(166,196,o),
(194,390,cs),
(213,529,o),
(317,593,o),
(436,593,cs),
(505,593,o),
(578,550,o),
(613,502,c),
(641,658,l),
(594,691,o),
(536,710,o),
(474,710,cs),
(302,710,o),
(88,556,o),
(59,350,cs),
(29,138,o),
(193,-10,o),
(349,-10,cs)
);
},
{
closed = 1;
nodes = (
(1005,0,l),
(1022,120,l),
(717,90,l),
(628,95,l),
(615,0,l)
);
},
{
closed = 1;
nodes = (
(665,0,l),
(695,250,l),
(763,700,l),
(628,700,l),
(605,500,l),
(530,0,l)
);
},
{
closed = 1;
nodes = (
(923,415,l),
(782,405,l),
(662,405,l),
(648,310,l),
(768,310,l),
(908,305,l)
);
},
{
closed = 1;
nodes = (
(1073,700,l),
(713,700,l),
(700,605,l),
(791,610,l),
(1056,580,l)
);
}
);
width = 1060;
},
{
anchors = (
{
name = bottom;
pos = (504,0);
},
{
name = top;
pos = (504,700);
}
);
layerId = "7BE518C1-5919-420B-B6AE-125B8031F769";
shapes = (
{
closed = 1;
nodes = (
(433,-10,o),
(480,0,o),
(527,18,c),
(528,-7,l),
(463,-5,o),
(424,0,o),
(411,0,cs),
(265,0,o),
(74,129,o),
(74,350,cs),
(74,609,o),
(272,701,o),
(383,701,cs),
(437,701,o),
(484,703,o),
(551,655,c),
(537,678,l),
(495,699,o),
(451,710,o),
(409,710,cs),
(237,710,o),
(45,556,o),
(45,350,cs),
(45,188,o),
(200,-10,o),
(386,-10,cs)
);
},
{
closed = 1;
nodes = (
(910,0,l),
(910,20,l),
(685,15,l),
(645,20,l),
(645,0,l)
);
},
{
closed = 1;
nodes = (
(583,0,l),
(578,250,l),
(583,700,l),
(560,700,l),
(565,500,l),
(560,0,l)
);
},
{
closed = 1;
nodes = (
(770,365,l),
(705,368,l),
(635,368,l),
(635,360,l),
(705,360,l),
(770,355,l)
);
},
{
closed = 1;
nodes = (
(880,700,l),
(595,700,l),
(595,680,l),
(685,685,l),
(880,680,l)
);
}
);
width = 930;
}
);
metricLeft = "=O";
metricRight = "=E";
unicode = 338;
changeCount = 2;
},
{
glyphname = P;
lastChange = "2024-11-15 10:07:07 +0000";
layers = (
{
anchors = (
{
name = bottom;
pos = (280,0);
},
{
name = top;
pos = (280,700);
}
);
background = {
anchors = (
{
name = bottom;
pos = (280,0);
},
{
name = top;
pos = (280,700);
}
);
shapes = (
{
closed = 1;
nodes = (
(254,260,ls),
(423,260,o),
(530,362,o),
(530,481,cs),
(530,578,o),
(474,700,o),
(266,700,cs),
(69,700,l),
(73,260,l)
);
},
{
closed = 1;
nodes = (
(166,0,l),
(151,316,l),
(75,369,l),
(64,0,l)
);
},
{
closed = 1;
nodes = (
(155,323,l),
(158,638,l),
(252,640,ls),
(378,643,o),
(435,567,o),
(435,483,cs),
(435,383,o),
(361,317,o),
(254,320,cs)
);
}
);
};
layerId = m002;
shapes = (
{
closed = 1;
nodes = (
(254,260,ls),
(423,260,o),
(530,362,o),
(530,481,cs),
(530,578,o),
(474,700,o),
(266,700,cs),
(69,700,l),
(73,260,l)
);
},
{
closed = 1;
nodes = (
(166,0,l),
(151,316,l),
(75,369,l),
(64,0,l)
);
},
{
closed = 1;
nodes = (
(155,323,l),
(158,638,l),
(252,640,ls),
(378,643,o),
(435,567,o),
(435,483,cs),
(435,383,o),
(361,317,o),
(254,320,cs)
);
}
);
width = 560;
},
{
anchors = (
{
name = bottom;
pos = (298,0);
},
{
name = top;
pos = (248,700);
}
);
background = {
anchors = (
{
name = bottom;
pos = (280,0);
},
{
name = top;
pos = (280,700);
}
);
shapes = (
{
closed = 1;
nodes = (
(254,260,ls),
(423,260,o),
(530,362,o),
(530,481,cs),
(530,578,o),
(474,700,o),
(266,700,cs),
(69,700,l),
(73,260,l)
);
},
{
closed = 1;
nodes = (
(166,0,l),
(151,316,l),
(75,369,l),
(64,0,l)
);
},
{
closed = 1;
nodes = (
(155,323,l),
(158,638,l),
(252,640,ls),
(378,643,o),
(435,567,o),
(435,483,cs),
(435,383,o),
(361,317,o),
(254,320,cs)
);
}
);
};
layerId = m003;
shapes = (
{
closed = 1;
nodes = (
(255,260,ls),
(421,260,o),
(565,343,o),
(565,506,cs),
(565,585,o),
(513,700,o),
(329,700,cs),
(132,700,l),
(74,260,l)
);
},
{
closed = 1;
nodes = (
(131,0,l),
(160,316,l),
(92,369,l),
(29,0,l)
);
},
{
closed = 1;
nodes = (
(165,323,l),
(213,638,l),
(307,640,ls),
(420,642,o),
(470,581,o),
(470,488,cs),
(470,388,o),
(390,316,o),
(264,320,cs)
);
}
);
width = 560;
},
{
anchors = (
{
name = bottom;
pos = (280,0);
},
{
name = top;
pos = (280,700);
}
);
background = {
anchors = (
{
name = bottom;
pos = (280,0);
},
{
name = top;
pos = (280,700);
}
);
shapes = (
{
closed = 1;
nodes = (
(254,260,ls),
(423,260,o),
(530,362,o),
(530,481,cs),
(530,578,o),
(474,700,o),
(266,700,cs),
(69,700,l),
(73,260,l)
);
},
{
closed = 1;
nodes = (
(166,0,l),
(151,316,l),
(75,369,l),
(64,0,l)
);
},
{
closed = 1;
nodes = (
(155,323,l),
(158,638,l),
(252,640,ls),
(378,643,o),
(435,567,o),
(435,483,cs),
(435,383,o),
(361,317,o),
(254,320,cs)
);
}
);
};
layerId = m004;
shapes = (
{
closed = 1;
nodes = (
(274,260,ls),
(423,260,o),
(530,362,o),
(530,481,cs),
(530,578,o),
(474,700,o),
(286,700,cs),
(69,700,l),
(73,260,l)
);
},
{
closed = 1;
nodes = (
(206,0,l),
(191,316,l),
(75,369,l),
(64,0,l)
);
},
{
closed = 1;
nodes = (
(195,357,l),
(197,604,l),
(254,606,ls),
(354,610,o),
(395,551,o),
(395,482,cs),
(395,401,o),
(342,351,o),
(256,355,cs)
);
}
);
width = 560;
},
{
anchors = (
{
name = bottom;
pos = (245,0);
},
{
name = top;
pos = (343,700);
}
);
background = {
anchors = (
{
name = bottom;
pos = (280,0);
},
{
name = top;
pos = (280,700);
}
);
shapes = (
{
closed = 1;
nodes = (
(254,260,ls),
(423,260,o),
(530,362,o),
(530,481,cs),
(530,578,o),
(474,700,o),
(266,700,cs),
(69,700,l),
(73,260,l)
);
},
{
closed = 1;
nodes = (
(166,0,l),
(151,316,l),
(75,369,l),
(64,0,l)
);
},
{
closed = 1;
nodes = (
(155,323,l),
(158,638,l),
(252,640,ls),
(378,643,o),
(435,567,o),
(435,483,cs),
(435,383,o),
(361,317,o),
(254,320,cs)
);
}
);
};
layerId = m005;
shapes = (
{
closed = 1;
nodes = (
(275,260,ls),
(424,260,o),
(546,362,o),
(562,481,cs),
(576,578,o),
(537,700,o),
(349,700,cs),
(132,700,l),
(74,260,l)
);
},
{
closed = 1;
nodes = (
(171,0,l),
(200,316,l),
(92,369,l),
(29,0,l)
);
},
{
closed = 1;
nodes = (
(210,357,l),
(247,604,l),
(304,606,ls),
(405,610,o),
(437,551,o),
(428,482,cs),
(416,401,o),
(356,351,o),
(271,355,cs)
);
}
);
width = 560;
},
{
anchors = (
{
name = bottom;
pos = (280,0);
},
{
name = top;
pos = (280,700);
}
);
layerId = "7BE518C1-5919-420B-B6AE-125B8031F769";
shapes = (
{
closed = 1;
nodes = (
(224,260,ls),
(423,260,o),
(530,362,o),
(530,481,cs),
(530,578,o),
(474,700,o),
(236,700,cs),
(69,700,l),
(73,260,l)
);
},
{
closed = 1;
nodes = (
(106,0,l),
(91,316,l),
(75,369,l),
(64,0,l)
);
},
{
closed = 1;
nodes = (
(95,272,l),
(100,689,l),
(249,691,ls),
(414,693,o),
(495,591,o),
(495,485,cs),
(495,356,o),
(390,266,o),
(251,268,cs)
);
}
);
width = 560;
}
);
unicode = 80;
changeCount = 2;
},
{
glyphname = Thorn;
lastChange = "2024-11-15 10:07:07 +0000";
layers = (
{
anchors = (
{
name = bottom;
pos = (280,0);
},
{
name = top;
pos = (280,700);
}
);
layerId = m002;
shapes = (
{
closed = 1;
nodes = (
(73,130,l),
(254,130,ls),
(423,130,o),
(530,232,o),
(530,351,cs),
(530,448,o),
(474,570,o),
(266,570,cs),
(69,570,l),
(138,508,l),
(252,510,ls),
(378,512,o),
(435,437,o),
(435,353,cs),
(435,253,o),
(361,187,o),
(254,190,cs),
(135,193,l)
);
},
{
closed = 1;
nodes = (
(70,500,l),
(65,0,l),
(155,0,l),
(150,250,l),
(155,700,l),
(65,700,l)
);
}
);
width = 560;
},
{
anchors = (
{
name = bottom;
pos = (280,0);
},
{
name = top;
pos = (280,700);
}
);
layerId = m003;
shapes = (
{
closed = 1;
nodes = (
(73,130,l),
(254,130,ls),
(423,130,o),
(530,232,o),
(530,351,cs),
(530,448,o),
(474,570,o),
(266,570,cs),
(69,570,l),
(138,508,l),
(252,510,ls),
(378,512,o),
(435,437,o),
(435,353,cs),
(435,253,o),
(361,187,o),
(254,190,cs),
(135,193,l)
);
},
{
closed = 1;
nodes = (
(70,500,l),
(65,0,l),
(155,0,l),
(150,250,l),
(155,700,l),
(65,700,l)
);
}
);
width = 560;
},
{
anchors = (
{
name = bottom;
pos = (280,0);
},
{
name = top;
pos = (280,700);
}
);
background = {
shapes = (
{
closed = 1;
nodes = (
(73,130,l),
(254,130,ls),
(423,130,o),
(530,232,o),
(530,351,cs),
(530,448,o),
(474,570,o),
(266,570,cs),
(69,570,l),
(138,508,l),
(252,510,ls),
(378,512,o),
(435,437,o),
(435,353,cs),
(435,253,o),
(361,187,o),
(254,190,cs),
(135,193,l)
);
},
{
closed = 1;
nodes = (
(70,500,l),
(65,0,l),
(155,0,l),
(150,250,l),
(155,700,l),
(65,700,l)
);
}
);
};
layerId = m004;
shapes = (
{
closed = 1;
nodes = (
(73,130,l),
(274,130,ls),
(423,130,o),
(530,232,o),
(530,351,cs),
(530,448,o),
(474,570,o),
(286,570,cs),
(69,570,l),
(192,474,l),
(254,476,ls),
(354,479,o),
(395,421,o),
(395,352,cs),
(395,271,o),
(342,222,o),
(256,225,cs),
(190,227,l)
);
},
{
closed = 1;
nodes = (
(70,500,l),
(65,0,l),
(195,0,l),
(190,250,l),
(195,700,l),
(65,700,l)
);
}
);
width = 560;
},
{
anchors = (
{
name = bottom;
pos = (231,0);
},
{
name = top;
pos = (329,700);
}
);
background = {
shapes = (
{
closed = 1;
nodes = (
(73,130,l),
(254,130,ls),
(423,130,o),
(530,232,o),
(530,351,cs),
(530,448,o),
(474,570,o),
(266,570,cs),
(69,570,l),
(138,508,l),
(252,510,ls),
(378,512,o),
(435,437,o),
(435,353,cs),
(435,253,o),
(361,187,o),
(254,190,cs),
(135,193,l)
);
},
{
closed = 1;
nodes = (
(70,500,l),
(65,0,l),
(155,0,l),
(150,250,l),
(155,700,l),
(65,700,l)
);
}
);
};
layerId = m005;
shapes = (
{
closed = 1;
nodes = (
(42,130,l),
(243,130,ls),
(392,130,o),
(513,232,o),
(530,351,cs),
(544,448,o),
(505,570,o),
(317,570,cs),
(100,570,l),
(209,474,l),
(272,476,ls),
(372,479,o),
(405,421,o),
(395,352,cs),
(384,271,o),
(324,222,o),
(238,225,cs),
(173,227,l)
);
},
{
closed = 1;
nodes = (
(91,500,l),
(16,0,l),
(146,0,l),
(176,250,l),
(244,700,l),
(114,700,l)
);
}
);
width = 560;
},
{
anchors = (
{
name = bottom;
pos = (280,0);
},
{
name = top;
pos = (280,700);
}
);
layerId = "7BE518C1-5919-420B-B6AE-125B8031F769";
shapes = (
{
closed = 1;
nodes = (
(73,130,l),
(224,130,ls),
(423,130,o),
(530,232,o),
(530,351,cs),
(530,448,o),
(474,570,o),
(236,570,cs),
(69,570,l),
(57,559,l),
(249,561,ls),
(414,562,o),
(495,461,o),
(495,355,cs),
(495,226,o),
(390,135,o),
(251,138,cs),
(53,142,l)
);
},
{
closed = 1;
nodes = (
(70,500,l),
(65,0,l),
(95,0,l),
(90,250,l),
(95,700,l),
(65,700,l)
);
}
);
width = 560;
}
);
metricWidth = "=P";
unicode = 222;
changeCount = 2;
},
{
glyphname = Q;
lastChange = "2024-11-15 10:07:07 +0000";
layers = (
{
anchors = (
{
name = bottom;
pos = (398,0);
},
{
name = top;
pos = (398,700);
}
);
background = {
anchors = (
{
name = bottom;
pos = (398,0);
},
{
name = top;
pos = (398,700);
}
);
shapes = (
{
closed = 1;
nodes = (
(237,710,o),
(45,556,o),
(45,350,cs),
(45,158,o),
(200,-10,o),
(386,-10,cs),
(558,-10,o),
(750,144,o),
(750,352,cs),
(750,541,o),
(585,710,o),
(409,710,cs)
);
},
{
closed = 1;
nodes = (
(134,561,o),
(270,636,o),
(386,636,cs),
(515,636,o),
(661,531,o),
(661,326,cs),
(661,139,o),
(524,64,o),
(408,64,cs),
(289,64,o),
(134,169,o),
(134,374,cs)
);
},
{
closed = 1;
nodes = (
(289,6,l),
(755,-156,l),
(782,-66,l),
(545,-18,o),
(428,4,o),
(310,51,c)
);
}
);
};
layerId = m002;
shapes = (
{
closed = 1;
nodes = (
(237,710,o),
(45,556,o),
(45,350,cs),
(45,158,o),
(200,-10,o),
(386,-10,cs),
(558,-10,o),
(750,144,o),
(750,352,cs),
(750,541,o),
(585,710,o),
(409,710,cs)
);
},
{
closed = 1;
nodes = (
(134,561,o),
(270,636,o),
(386,636,cs),
(515,636,o),
(661,531,o),
(661,326,cs),
(661,139,o),
(524,64,o),
(408,64,cs),
(289,64,o),
(134,169,o),
(134,374,cs)
);
},
{
closed = 1;
nodes = (
(289,6,l),
(755,-156,l),
(782,-66,l),
(545,-18,o),
(428,4,o),
(310,51,c)
);
}
);
width = 795;
},
{
anchors = (
{
name = bottom;
pos = (363,0);
},
{
name = top;
pos = (461,700);
}
);
background = {
anchors = (
{
name = bottom;
pos = (398,0);
},
{
name = top;
pos = (398,700);
}
);
shapes = (
{
closed = 1;
nodes = (
(237,710,o),
(45,556,o),
(45,350,cs),
(45,158,o),
(200,-10,o),
(386,-10,cs),
(558,-10,o),
(750,144,o),
(750,352,cs),
(750,541,o),
(585,710,o),
(409,710,cs)
);
},
{
closed = 1;
nodes = (
(134,561,o),
(270,636,o),
(386,636,cs),
(515,636,o),
(661,531,o),
(661,326,cs),
(661,139,o),
(524,64,o),
(408,64,cs),
(289,64,o),
(134,169,o),
(134,374,cs)
);
},
{
closed = 1;
nodes = (
(289,6,l),
(755,-156,l),
(782,-66,l),
(545,-18,o),
(428,4,o),
(310,51,c)
);
}
);
};
layerId = m003;
shapes = (
{
closed = 1;
nodes = (
(302,710,o),
(88,556,o),
(59,350,cs),
(32,158,o),
(163,-10,o),
(349,-10,cs),
(521,-10,o),
(735,144,o),
(764,352,cs),
(791,541,o),
(650,710,o),
(474,710,cs)
);
},
{
closed = 1;
nodes = (
(178,561,o),
(324,636,o),
(440,636,cs),
(569,636,o),
(700,531,o),
(672,326,cs),
(645,139,o),
(498,64,o),
(382,64,cs),
(263,64,o),
(123,169,o),
(151,374,cs)
);
},
{
closed = 1;
nodes = (
(255,6,l),
(698,-156,l),
(738,-66,l),
(507,-18,o),
(393,4,o),
(282,51,c)
);
}
);
width = 795;
},
{
anchors = (
{
name = bottom;
pos = (398,0);
},
{
name = top;
pos = (398,700);
}
);
background = {
anchors = (
{
name = bottom;
pos = (398,0);
},
{
name = top;
pos = (398,700);
}
);
shapes = (
{
closed = 1;
nodes = (
(237,710,o),
(45,556,o),
(45,350,cs),
(45,158,o),
(200,-10,o),
(386,-10,cs),
(558,-10,o),
(750,144,o),
(750,352,cs),
(750,541,o),
(585,710,o),
(409,710,cs)
);
},
{
closed = 1;
nodes = (
(134,561,o),
(270,636,o),
(386,636,cs),
(515,636,o),
(661,531,o),
(661,326,cs),
(661,139,o),
(524,64,o),
(408,64,cs),
(289,64,o),
(134,169,o),
(134,374,cs)
);
},
{
closed = 1;
nodes = (
(289,6,l),
(755,-156,l),
(782,-66,l),
(545,-18,o),
(428,4,o),
(310,51,c)
);
}
);
};
layerId = m004;
shapes = (
{
closed = 1;
nodes = (
(237,710,o),
(45,556,o),
(45,350,cs),
(45,108,o),
(260,-10,o),
(366,-10,cs),
(528,-10,o),
(750,124,o),
(750,352,cs),
(750,561,o),
(585,710,o),
(409,710,cs)
);
},
{
closed = 1;
nodes = (
(174,529,o),
(269,593,o),
(388,593,cs),
(497,593,o),
(621,504,o),
(621,310,cs),
(621,171,o),
(525,107,o),
(406,107,cs),
(305,107,o),
(174,196,o),
(174,390,cs)
);
},
{
closed = 1;
nodes = (
(289,5,l),
(755,-156,l),
(802,-36,l),
(565,-8,o),
(428,24,o),
(310,71,c)
);
}
);
width = 795;
},
{
anchors = (
{
name = bottom;
pos = (363,0);
},
{
name = top;
pos = (461,700);
}
);
background = {
anchors = (
{
name = bottom;
pos = (398,0);
},
{
name = top;
pos = (398,700);
}
);
shapes = (
{
closed = 1;
nodes = (
(237,710,o),
(45,556,o),
(45,350,cs),
(45,158,o),
(200,-10,o),
(386,-10,cs),
(558,-10,o),
(750,144,o),
(750,352,cs),
(750,541,o),
(585,710,o),
(409,710,cs)
);
},
{
closed = 1;
nodes = (
(134,561,o),
(270,636,o),
(386,636,cs),
(515,636,o),
(661,531,o),
(661,326,cs),
(661,139,o),
(524,64,o),
(408,64,cs),
(289,64,o),
(134,169,o),
(134,374,cs)
);
},
{
closed = 1;
nodes = (
(289,6,l),
(755,-156,l),
(782,-66,l),
(545,-18,o),
(428,4,o),
(310,51,c)
);
}
);
};
layerId = m005;
shapes = (
{
closed = 1;
nodes = (
(302,710,o),
(88,556,o),
(59,350,cs),
(25,108,o),
(223,-10,o),
(329,-10,cs),
(491,-10,o),
(732,124,o),
(764,352,cs),
(794,561,o),
(650,710,o),
(474,710,cs)
);
},
{
closed = 1;
nodes = (
(213,529,o),
(317,593,o),
(436,593,cs),
(545,593,o),
(657,504,o),
(629,310,cs),
(610,171,o),
(505,107,o),
(386,107,cs),
(285,107,o),
(166,196,o),
(194,390,cs)
);
},
{
closed = 1;
nodes = (
(255,5,l),
(698,-156,l),
(762,-36,l),
(529,-8,o),
(396,24,o),
(285,71,c)
);
}
);
width = 795;
},
{
anchors = (
{
name = bottom;
pos = (398,0);
},
{
name = top;
pos = (398,700);
}
);
layerId = "7BE518C1-5919-420B-B6AE-125B8031F769";
shapes = (
{
closed = 1;
nodes = (
(237,710,o),
(45,556,o),
(45,350,cs),
(45,233,o),
(110,-10,o),
(416,-10,cs),
(603,-10,o),
(750,174,o),
(750,352,cs),
(750,511,o),
(585,710,o),
(409,710,cs)
);
},
{
closed = 1;
nodes = (
(74,609,o),
(272,701,o),
(383,701,cs),
(542,701,o),
(721,572,o),
(721,350,cs),
(721,91,o),
(523,0,o),
(411,0,cs),
(265,0,o),
(74,129,o),
(74,350,cs)
);
},
{
closed = 1;
nodes = (
(289,8,l),
(755,-156,l),
(752,-111,l),
(515,-33,o),
(428,-26,o),
(310,21,c)
);
}
);
width = 795;
}
);
unicode = 81;
changeCount = 2;
},
{
glyphname = R;
lastChange = "2024-11-15 10:07:07 +0000";
layers = (
{
anchors = (
{
name = bottom;
pos = (285,0);
},
{
name = top;
pos = (285,700);
}
);
background = {
anchors = (
{
name = bottom;
pos = (285,0);
},
{
name = top;
pos = (285,700);
}
);
shapes = (
{
closed = 1;
nodes = (
(254,280,ls),
(403,280,o),
(520,362,o),
(520,501,cs),
(520,578,o),
(474,700,o),
(266,700,cs),
(69,700,l),
(73,280,l)
);
},
{
closed = 1;
nodes = (
(166,0,l),
(151,336,l),
(75,389,l),
(64,0,l)
);
},
{
closed = 1;
nodes = (
(539,0,l),
(374,314,l),
(283,316,l),
(433,0,l)
);
},
{
closed = 1;
nodes = (
(155,343,l),
(158,638,l),
(252,640,ls),
(378,643,o),
(425,567,o),
(425,483,cs),
(425,383,o),
(361,337,o),
(254,340,cs)
);
}
);
};
layerId = m002;
shapes = (
{
closed = 1;
nodes = (
(254,280,ls),
(403,280,o),
(520,362,o),
(520,501,cs),
(520,578,o),
(474,700,o),
(266,700,cs),
(69,700,l),
(73,280,l)
);
},
{
closed = 1;
nodes = (
(166,0,l),
(151,336,l),
(75,389,l),
(64,0,l)
);
},
{
closed = 1;
nodes = (
(539,0,l),
(374,314,l),
(283,316,l),
(433,0,l)
);
},
{
closed = 1;
nodes = (
(155,343,l),
(158,638,l),
(252,640,ls),
(378,643,o),
(425,567,o),
(425,483,cs),
(425,383,o),
(361,337,o),
(254,340,cs)
);
}
);
width = 569;
},
{
anchors = (
{
name = bottom;
pos = (250,0);
},
{
name = top;
pos = (348,700);
}
);
background = {
anchors = (
{
name = bottom;
pos = (285,0);
},
{
name = top;
pos = (285,700);
}
);
shapes = (
{
closed = 1;
nodes = (
(254,280,ls),
(403,280,o),
(520,362,o),
(520,501,cs),
(520,578,o),
(474,700,o),
(266,700,cs),
(69,700,l),
(73,280,l)
);
},
{
closed = 1;
nodes = (
(166,0,l),
(151,336,l),
(75,389,l),
(64,0,l)
);
},
{
closed = 1;
nodes = (
(539,0,l),
(374,314,l),
(283,316,l),
(433,0,l)
);
},
{
closed = 1;
nodes = (
(155,343,l),
(158,638,l),
(252,640,ls),
(378,643,o),
(425,567,o),
(425,483,cs),
(425,383,o),
(361,337,o),
(254,340,cs)
);
}
);
};
layerId = m003;
shapes = (
{
closed = 1;
nodes = (
(258,280,ls),
(419,280,o),
(557,390,o),
(557,519,cs),
(557,614,o),
(483,700,o),
(319,700,cs),
(132,700,l),
(77,280,l)
);
},
{
closed = 1;
nodes = (
(131,0,l),
(163,336,l),
(95,389,l),
(29,0,l)
);
},
{
closed = 1;
nodes = (
(504,0,l),
(383,314,l),
(292,316,l),
(398,0,l)
);
},
{
closed = 1;
nodes = (
(168,343,l),
(213,638,l),
(307,640,ls),
(408,642,o),
(460,584,o),
(460,502,cs),
(460,402,o),
(368,337,o),
(267,340,cs)
);
}
);
width = 569;
},
{
anchors = (
{
name = bottom;
pos = (285,0);
},
{
name = top;
pos = (285,700);
}
);
background = {
anchors = (
{
name = bottom;
pos = (285,0);
},
{
name = top;
pos = (285,700);
}
);
shapes = (
{
closed = 1;
nodes = (
(254,280,ls),
(403,280,o),
(520,362,o),
(520,501,cs),
(520,578,o),
(474,700,o),
(266,700,cs),
(69,700,l),
(73,280,l)
);
},
{
closed = 1;
nodes = (
(166,0,l),
(151,336,l),
(75,389,l),
(64,0,l)
);
},
{
closed = 1;
nodes = (
(539,0,l),
(374,314,l),
(283,316,l),
(433,0,l)
);
},
{
closed = 1;
nodes = (
(155,343,l),
(158,638,l),
(252,640,ls),
(378,643,o),
(425,567,o),
(425,483,cs),
(425,383,o),
(361,337,o),
(254,340,cs)
);
}
);
};
layerId = m004;
shapes = (
{
closed = 1;
nodes = (
(254,280,ls),
(403,280,o),
(520,362,o),
(520,501,cs),
(520,578,o),
(474,700,o),
(266,700,cs),
(69,700,l),
(73,280,l)
);
},
{
closed = 1;
nodes = (
(206,0,l),
(191,336,l),
(75,389,l),
(64,0,l)
);
},
{
closed = 1;
nodes = (
(549,0,l),
(384,314,l),
(253,316,l),
(403,0,l)
);
},
{
closed = 1;
nodes = (
(195,372,l),
(197,609,l),
(253,611,ls),
(342,614,o),
(385,552,o),
(385,484,cs),
(385,404,o),
(330,365,o),
(255,369,cs)
);
}
);
width = 569;
},
{
anchors = (
{
name = bottom;
pos = (250,0);
},
{
name = top;
pos = (348,700);
}
);
background = {
anchors = (
{
name = bottom;
pos = (285,0);
},
{
name = top;
pos = (285,700);
}
);
shapes = (
{
closed = 1;
nodes = (
(254,280,ls),
(403,280,o),
(520,362,o),
(520,501,cs),
(520,578,o),
(474,700,o),
(266,700,cs),
(69,700,l),
(73,280,l)
);
},
{
closed = 1;
nodes = (
(166,0,l),
(151,336,l),
(75,389,l),
(64,0,l)
);
},
{
closed = 1;
nodes = (
(539,0,l),
(374,314,l),
(283,316,l),
(433,0,l)
);
},
{
closed = 1;
nodes = (
(155,343,l),
(158,638,l),
(252,640,ls),
(378,643,o),
(425,567,o),
(425,483,cs),
(425,383,o),
(361,337,o),
(254,340,cs)
);
}
);
};
layerId = m005;
shapes = (
{
closed = 1;
nodes = (
(258,280,ls),
(407,280,o),
(536,362,o),
(555,501,cs),
(566,578,o),
(537,700,o),
(329,700,cs),
(132,700,l),
(77,280,l)
);
},
{
closed = 1;
nodes = (
(171,0,l),
(203,336,l),
(95,389,l),
(29,0,l)
);
},
{
closed = 1;
nodes = (
(514,0,l),
(393,314,l),
(262,316,l),
(368,0,l)
);
},
{
closed = 1;
nodes = (
(212,372,l),
(247,609,l),
(304,611,ls),
(393,614,o),
(427,552,o),
(418,484,cs),
(407,404,o),
(346,365,o),
(272,369,cs)
);
}
);
width = 569;
},
{
anchors = (
{
name = bottom;
pos = (285,0);
},
{
name = top;
pos = (285,700);
}
);
layerId = "7BE518C1-5919-420B-B6AE-125B8031F769";
shapes = (
{
closed = 1;
nodes = (
(254,280,ls),
(403,280,o),
(520,362,o),
(520,501,cs),
(520,578,o),
(474,700,o),
(266,700,cs),
(69,700,l),
(73,280,l)
);
},
{
closed = 1;
nodes = (
(106,0,l),
(91,336,l),
(75,389,l),
(64,0,l)
);
},
{
closed = 1;
nodes = (
(524,0,l),
(359,314,l),
(328,316,l),
(478,0,l)
);
},
{
closed = 1;
nodes = (
(95,300,l),
(100,682,l),
(251,684,ls),
(432,687,o),
(485,590,o),
(485,482,cs),
(485,352,o),
(408,295,o),
(253,297,cs)
);
}
);
width = 569;
}
);
unicode = 82;
changeCount = 2;
},
{
glyphname = S;
lastChange = "2024-11-15 10:07:07 +0000";
layers = (
{
anchors = (
{
name = bottom;
pos = (291,0);
},
{
name = top;
pos = (291,700);
}
);
background = {
anchors = (
{
name = bottom;
pos = (291,0);
},
{
name = top;
pos = (291,700);
}
);
shapes = (
{
closed = 1;
nodes = (
(243,-96,o),
(536,5,o),
(536,186,cs),
(536,438,o),
(164,381,o),
(164,528,cs),
(164,650,o),
(332,676,o),
(459,582,c),
(507,648,l),
(455,690,o),
(395,710,o),
(336,710,cs),
(205,710,o),
(91,634,o),
(91,508,cs),
(91,305,o),
(455,363,o),
(455,182,cs),
(455,39,o),
(259,7,o),
(125,153,c),
(65,80,l)
);
}
);
};
layerId = m002;
shapes = (
{
closed = 1;
nodes = (
(233,-96,o),
(536,5,o),
(536,186,cs),
(536,438,o),
(164,381,o),
(164,528,cs),
(164,650,o),
(332,676,o),
(459,582,c),
(507,648,l),
(455,690,o),
(395,710,o),
(336,710,cs),
(205,710,o),
(91,634,o),
(91,508,cs),
(91,305,o),
(455,363,o),
(455,182,cs),
(455,39,o),
(249,7,o),
(115,153,c),
(55,80,l)
);
}
);
width = 581;
},
{
anchors = (
{
name = bottom;
pos = (226,0);
},
{
name = top;
pos = (375,700);
}
);
background = {
shapes = (
{
closed = 1;
nodes = (
(157,-96,o),
(472,5,o),
(510,186,cs),
(564,438,o),
(180,381,o),
(211,528,cs),
(237,650,o),
(411,676,o),
(518,582,c),
(580,648,l),
(537,690,o),
(481,710,o),
(422,710,cs),
(291,710,o),
(161,634,o),
(134,508,cs),
(91,305,o),
(467,363,o),
(429,182,cs),
(398,39,o),
(195,7,o),
(92,153,c),
(17,80,l)
);
}
);
};
layerId = m003;
shapes = (
{
closed = 1;
nodes = (
(179,-94,o),
(485,2,o),
(485,212,cs),
(485,423,o),
(199,384,o),
(199,512,cs),
(199,633,o),
(357,688,o),
(478,582,c),
(540,648,l),
(497,690,o),
(431,710,o),
(372,710,cs),
(221,710,o),
(121,615,o),
(121,487,cs),
(121,309,o),
(402,349,o),
(402,197,cs),
(402,54,o),
(202,-7,o),
(89,153,c),
(19,80,l)
);
}
);
width = 543;
},
{
anchors = (
{
name = bottom;
pos = (286,0);
},
{
name = top;
pos = (286,700);
}
);
background = {
shapes = (
{
closed = 1;
nodes = (
(223,-96,o),
(526,5,o),
(526,186,cs),
(526,438,o),
(154,381,o),
(154,528,cs),
(154,650,o),
(322,676,o),
(449,582,c),
(497,648,l),
(445,690,o),
(385,710,o),
(326,710,cs),
(195,710,o),
(81,634,o),
(81,508,cs),
(81,305,o),
(445,363,o),
(445,182,cs),
(445,39,o),
(239,7,o),
(105,153,c),
(45,80,l)
);
}
);
};
layerId = m004;
shapes = (
{
closed = 1;
nodes = (
(223,-96,o),
(526,5,o),
(526,216,cs),
(526,428,o),
(194,421,o),
(194,528,cs),
(194,650,o),
(342,616,o),
(419,542,c),
(497,648,l),
(445,690,o),
(385,710,o),
(326,710,cs),
(195,710,o),
(81,634,o),
(81,508,cs),
(81,305,o),
(405,323,o),
(405,182,cs),
(405,59,o),
(218,82,o),
(125,183,c),
(45,80,l)
);
}
);
width = 571;
},
{
anchors = (
{
name = bottom;
pos = (251,0);
},
{
name = top;
pos = (349,700);
}
);
background = {
shapes = (
{
closed = 1;
nodes = (
(223,-96,o),
(526,5,o),
(526,186,cs),
(526,438,o),
(154,381,o),
(154,528,cs),
(154,650,o),
(322,676,o),
(449,582,c),
(497,648,l),
(445,690,o),
(385,710,o),
(326,710,cs),
(195,710,o),
(81,634,o),
(81,508,cs),
(81,305,o),
(445,363,o),
(445,182,cs),
(445,39,o),
(239,7,o),
(105,153,c),
(45,80,l)
);
}
);
};
layerId = m005;
shapes = (
{
closed = 1;
nodes = (
(174,-96,o),
(492,5,o),
(521,216,cs),
(551,428,o),
(218,421,o),
(233,528,cs),
(250,650,o),
(393,616,o),
(460,542,c),
(553,648,l),
(507,690,o),
(450,710,o),
(391,710,cs),
(260,710,o),
(135,634,o),
(117,508,cs),
(89,305,o),
(415,323,o),
(395,182,cs),
(378,59,o),
(194,82,o),
(116,183,c),
(21,80,l)
);
}
);
width = 571;
},
{
anchors = (
{
name = bottom;
pos = (299,0);
},
{
name = top;
pos = (299,700);
}
);
layerId = "7BE518C1-5919-420B-B6AE-125B8031F769";
shapes = (
{
closed = 1;
nodes = (
(248,-96,o),
(551,5,o),
(551,141,cs),
(551,453,o),
(119,321,o),
(119,528,cs),
(119,650,o),
(317,766,o),
(519,642,c),
(522,648,l),
(470,690,o),
(410,710,o),
(351,710,cs),
(220,710,o),
(106,634,o),
(106,508,cs),
(106,305,o),
(530,423,o),
(530,182,cs),
(530,9,o),
(296,-105,o),
(100,108,c),
(70,80,l)
);
}
);
width = 596;
}
);
unicode = 83;
changeCount = 2;
},
{
glyphname = Germandbls;
lastChange = "2024-11-15 10:07:07 +0000";
layers = (
{
anchors = (
{
name = bottom;
pos = (331,0);
},
{
name = top;
pos = (331,700);
}
);
layerId = m002;
shapes = (
{
closed = 1;
nodes = (
(155,0,l),
(150,450,l),
(155,700,l),
(65,700,l),
(70,200,l),
(65,0,l)
);
},
{
closed = 1;
nodes = (
(140,640,l),
(260,645,l),
(493,645,l),
(567,700,l),
(140,700,l)
);
},
{
closed = 1;
nodes = (
(260,387,l),
(280,359,l),
(350,419,l),
(579,667,l),
(566,699,l),
(495,700,l)
);
},
{
closed = 1;
nodes = (
(280,359,l),
(390,309,o),
(535,276,o),
(535,172,cs),
(535,39,o),
(389,17,o),
(285,123,c),
(225,50,l),
(353,-86,o),
(616,5,o),
(616,186,cs),
(616,334,o),
(469,365,o),
(350,419,c)
);
}
);
width = 661;
},
{
anchors = (
{
name = bottom;
pos = (331,0);
},
{
name = top;
pos = (331,700);
}
);
layerId = m003;
shapes = (
{
closed = 1;
nodes = (
(120,0,l),
(178,450,l),
(218,700,l),
(128,700,l),
(63,200,l),
(30,0,l)
);
},
{
closed = 1;
nodes = (
(195,640,l),
(316,645,l),
(549,645,l),
(630,700,l),
(203,700,l)
);
},
{
closed = 1;
nodes = (
(279,387,l),
(295,359,l),
(374,419,l),
(638,667,l),
(629,699,l),
(558,700,l)
);
},
{
closed = 1;
nodes = (
(295,359,l),
(398,309,o),
(539,276,o),
(520,142,cs),
(505,39,o),
(356,22,o),
(267,123,c),
(197,50,l),
(356,-81,o),
(582,5,o),
(603,156,cs),
(628,334,o),
(485,365,o),
(374,419,c)
);
}
);
width = 661;
},
{
anchors = (
{
name = bottom;
pos = (331,0);
},
{
name = top;
pos = (331,700);
}
);
background = {
shapes = (
{
closed = 1;
nodes = (
(195,0,l),
(190,450,l),
(195,700,l),
(65,700,l),
(70,200,l),
(65,0,l)
);
},
{
closed = 1;
nodes = (
(140,610,l),
(260,615,l),
(493,615,l),
(567,700,l),
(140,700,l)
);
},
{
closed = 1;
nodes = (
(270,407,l),
(280,359,l),
(380,439,l),
(579,667,l),
(566,699,l),
(445,700,l)
);
},
{
closed = 1;
nodes = (
(280,359,l),
(390,309,o),
(495,276,o),
(495,172,cs),
(495,69,o),
(389,77,o),
(305,153,c),
(225,50,l),
(353,-86,o),
(616,5,o),
(616,186,cs),
(616,334,o),
(499,385,o),
(380,439,c)
);
}
);
};
layerId = m004;
shapes = (
{
closed = 1;
nodes = (
(195,0,l),
(190,450,l),
(195,700,l),
(65,700,l),
(70,200,l),
(65,0,l)
);
},
{
closed = 1;
nodes = (
(140,610,l),
(260,615,l),
(493,615,l),
(567,700,l),
(140,700,l)
);
},
{
closed = 1;
nodes = (
(270,407,l),
(284,352,l),
(391,442,l),
(579,667,l),
(566,699,l),
(445,700,l)
);
},
{
closed = 1;
nodes = (
(284,352,l),
(390,306,o),
(505,270,o),
(505,182,cs),
(505,77,o),
(386,88,o),
(299,144,c),
(253,20,l),
(367,-67,o),
(626,23,o),
(626,216,cs),
(626,352,o),
(489,398,o),
(391,442,c)
);
}
);
width = 661;
},
{
anchors = (
{
name = bottom;
pos = (283,0);
},
{
name = top;
pos = (381,700);
}
);
background = {
shapes = (
{
closed = 1;
nodes = (
(195,0,l),
(190,450,l),
(195,700,l),
(65,700,l),
(70,200,l),
(65,0,l)
);
},
{
closed = 1;
nodes = (
(140,610,l),
(260,615,l),
(493,615,l),
(567,700,l),
(140,700,l)
);
},
{
closed = 1;
nodes = (
(270,407,l),
(280,359,l),
(380,439,l),
(579,667,l),
(566,699,l),
(445,700,l)
);
},
{
closed = 1;
nodes = (
(280,359,l),
(390,309,o),
(495,276,o),
(495,172,cs),
(495,69,o),
(389,77,o),
(305,153,c),
(225,50,l),
(353,-86,o),
(616,5,o),
(616,186,cs),
(616,334,o),
(499,385,o),
(380,439,c)
);
}
);
};
layerId = m005;
shapes = (
{
closed = 1;
nodes = (
(147,0,l),
(205,450,l),
(245,700,l),
(115,700,l),
(50,200,l),
(17,0,l)
);
},
{
closed = 1;
nodes = (
(177,610,l),
(298,615,l),
(531,615,l),
(617,700,l),
(190,700,l)
);
},
{
closed = 1;
nodes = (
(279,407,l),
(285,352,l),
(405,442,l),
(624,667,l),
(616,699,l),
(495,700,l)
);
},
{
closed = 1;
nodes = (
(285,352,l),
(385,306,o),
(495,270,o),
(482,182,cs),
(468,77,o),
(350,88,o),
(271,144,c),
(208,20,l),
(309,-67,o),
(581,23,o),
(608,216,cs),
(627,352,o),
(497,398,o),
(405,442,c)
);
}
);
width = 661;
},
{
anchors = (
{
name = bottom;
pos = (331,0);
},
{
name = top;
pos = (331,700);
}
);
layerId = "7BE518C1-5919-420B-B6AE-125B8031F769";
shapes = (
{
closed = 1;
nodes = (
(95,0,l),
(90,450,l),
(95,700,l),
(65,700,l),
(70,200,l),
(65,0,l)
);
},
{
closed = 1;
nodes = (
(140,685,l),
(260,690,l),
(493,690,l),
(567,700,l),
(140,700,l)
);
},
{
closed = 1;
nodes = (
(245,357,l),
(274,370,l),
(289,385,l),
(579,667,l),
(566,699,l),
(570,700,l)
);
},
{
closed = 1;
nodes = (
(274,370,l),
(390,314,o),
(580,285,o),
(580,157,cs),
(580,-18,o),
(394,-89,o),
(264,92,c),
(183,95,l),
(332,-114,o),
(601,-22,o),
(601,141,cs),
(601,307,o),
(439,316,o),
(289,385,c)
);
}
);
width = 661;
}
);
unicode = 7838;
changeCount = 2;
},
{
glyphname = T;
lastChange = "2024-11-15 10:07:07 +0000";
layers = (
{
anchors = (
{
name = bottom;
pos = (290,0);
},
{
name = center;
pos = (290,350);
},
{
name = top;
pos = (290,700);
}
);
background = {
anchors = (
{
name = bottom;
pos = (290,0);
},
{
name = center;
pos = (290,350);
},
{
name = top;
pos = (290,700);
}
);
shapes = (
{
closed = 1;
nodes = (
(330,450,l),
(335,700,l),
(245,700,l),
(250,450,l),
(245,0,l),
(335,0,l)
);
},
{
closed = 1;
nodes = (
(0,700,l),
(0,620,l),
(190,640,l),
(260,635,l),
(260,700,l)
);
},
{
closed = 1;
nodes = (
(320,635,l),
(390,640,l),
(580,620,l),
(580,700,l),
(320,700,l)
);
}
);
};
layerId = m002;
shapes = (
{
closed = 1;
nodes = (
(330,450,l),
(335,700,l),
(245,700,l),
(250,450,l),
(245,0,l),
(335,0,l)
);
},
{
closed = 1;
nodes = (
(0,700,l),
(0,620,l),
(190,640,l),
(260,635,l),
(260,700,l)
);
},
{
closed = 1;
nodes = (
(320,635,l),
(390,640,l),
(580,620,l),
(580,700,l),
(320,700,l)
);
}
);
width = 580;
},
{
anchors = (
{
name = bottom;
pos = (255,0);
},
{
name = center;
pos = (304,350);
},
{
name = top;
pos = (353,700);
}
);
background = {
anchors = (
{
name = bottom;
pos = (290,0);
},
{
name = center;
pos = (290,350);
},
{
name = top;
pos = (290,700);
}
);
shapes = (
{
closed = 1;
nodes = (
(330,450,l),
(335,700,l),
(245,700,l),
(250,450,l),
(245,0,l),
(335,0,l)
);
},
{
closed = 1;
nodes = (
(0,700,l),
(0,620,l),
(190,640,l),
(260,635,l),
(260,700,l)
);
},
{
closed = 1;
nodes = (
(320,635,l),
(390,640,l),
(580,620,l),
(580,700,l),
(320,700,l)
);
}
);
};
layerId = m003;
shapes = (
{
closed = 1;
nodes = (
(358,450,l),
(398,700,l),
(308,700,l),
(278,450,l),
(210,0,l),
(300,0,l)
);
},
{
closed = 1;
nodes = (
(63,700,l),
(52,620,l),
(245,640,l),
(314,635,l),
(323,700,l)
);
},
{
closed = 1;
nodes = (
(374,635,l),
(445,640,l),
(632,620,l),
(643,700,l),
(383,700,l)
);
}
);
width = 580;
},
{
anchors = (
{
name = bottom;
pos = (290,0);
},
{
name = center;
pos = (290,350);
},
{
name = top;
pos = (290,700);
}
);
background = {
anchors = (
{
name = bottom;
pos = (290,0);
},
{
name = center;
pos = (290,350);
},
{
name = top;
pos = (290,700);
}
);
shapes = (
{
closed = 1;
nodes = (
(330,450,l),
(335,700,l),
(245,700,l),
(250,450,l),
(245,0,l),
(335,0,l)
);
},
{
closed = 1;
nodes = (
(0,700,l),
(0,620,l),
(190,640,l),
(260,635,l),
(260,700,l)
);
},
{
closed = 1;
nodes = (
(320,635,l),
(390,640,l),
(580,620,l),
(580,700,l),
(320,700,l)
);
}
);
};
layerId = m004;
shapes = (
{
closed = 1;
nodes = (
(350,450,l),
(355,700,l),
(225,700,l),
(230,450,l),
(220,0,l),
(360,0,l)
);
},
{
closed = 1;
nodes = (
(0,700,l),
(0,590,l),
(190,610,l),
(240,605,l),
(240,700,l)
);
},
{
closed = 1;
nodes = (
(340,605,l),
(390,610,l),
(580,590,l),
(580,700,l),
(340,700,l)
);
}
);
width = 580;
},
{
anchors = (
{
name = bottom;
pos = (255,0);
},
{
name = center;
pos = (304,350);
},
{
name = top;
pos = (353,700);
}
);
background = {
anchors = (
{
name = bottom;
pos = (290,0);
},
{
name = center;
pos = (290,350);
},
{
name = top;
pos = (290,700);
}
);
shapes = (
{
closed = 1;
nodes = (
(330,450,l),
(335,700,l),
(245,700,l),
(250,450,l),
(245,0,l),
(335,0,l)
);
},
{
closed = 1;
nodes = (
(0,700,l),
(0,620,l),
(190,640,l),
(260,635,l),
(260,700,l)
);
},
{
closed = 1;
nodes = (
(320,635,l),
(390,640,l),
(580,620,l),
(580,700,l),
(320,700,l)
);
}
);
};
layerId = m005;
shapes = (
{
closed = 1;
nodes = (
(378,450,l),
(418,700,l),
(288,700,l),
(258,450,l),
(185,0,l),
(325,0,l)
);
},
{
closed = 1;
nodes = (
(63,700,l),
(48,590,l),
(241,610,l),
(290,605,l),
(303,700,l)
);
},
{
closed = 1;
nodes = (
(390,605,l),
(441,610,l),
(628,590,l),
(643,700,l),
(403,700,l)
);
}
);
width = 580;
},
{
anchors = (
{
name = bottom;
pos = (290,0);
},
{
name = center;
pos = (290,350);
},
{
name = top;
pos = (290,700);
}
);
layerId = "7BE518C1-5919-420B-B6AE-125B8031F769";
shapes = (
{
closed = 1;
nodes = (
(300,450,l),
(305,700,l),
(275,700,l),
(280,450,l),
(283,0,l),
(298,0,l)
);
},
{
closed = 1;
nodes = (
(0,700,l),
(0,665,l),
(190,685,l),
(290,680,l),
(290,700,l)
);
},
{
closed = 1;
nodes = (
(290,680,l),
(390,685,l),
(580,665,l),
(580,700,l),
(290,700,l)
);
}
);
width = 580;
}
);
unicode = 84;
changeCount = 2;
},
{
glyphname = U;
lastChange = "2024-11-15 10:07:07 +0000";
layers = (
{
anchors = (
{
name = bottom;
pos = (349,0);
},
{
name = ogonek;
pos = (415,0);
},
{
name = top;
pos = (349,650);
},
{
name = topright;
pos = (677,700);
}
);
background = {
anchors = (
{
name = bottom;
pos = (349,0);
},
{
name = ogonek;
pos = (627,10);
},
{
name = top;
pos = (349,700);
},
{
name = topright;
pos = (677,700);
}
);
shapes = (
{
closed = 1;
nodes = (
(632,700,l),
(546,700,l),
(556,320,ls),
(561,126,o),
(453,64,o),
(347,64,cs),
(249,64,o),
(141,111,o),
(146,320,cs),
(156,700,l),
(65,700,l),
(60,300,ls),
(57,95,o),
(178,-10,o),
(339,-10,cs),
(487,-10,o),
(624,93,o),
(627,302,cs)
);
}
);
};
layerId = m002;
shapes = (
{
closed = 1;
nodes = (
(632,700,l),
(546,700,l),
(556,320,ls),
(561,126,o),
(453,64,o),
(347,64,cs),
(249,64,o),
(141,111,o),
(146,320,cs),
(156,700,l),
(65,700,l),
(60,300,ls),
(57,95,o),
(178,-10,o),
(339,-10,cs),
(487,-10,o),
(624,93,o),
(627,302,cs)
);
}
);
width = 697;
},
{
anchors = (
{
name = bottom;
pos = (314,0);
},
{
name = ogonek;
pos = (593,10);
},
{
name = top;
pos = (412,660);
},
{
name = topright;
pos = (740,700);
}
);
background = {
anchors = (
{
name = bottom;
pos = (349,0);
},
{
name = ogonek;
pos = (627,10);
},
{
name = top;
pos = (349,700);
},
{
name = topright;
pos = (677,700);
}
);
shapes = (
{
closed = 1;
nodes = (
(632,700,l),
(546,700,l),
(556,320,ls),
(561,126,o),
(453,64,o),
(347,64,cs),
(249,64,o),
(141,111,o),
(146,320,cs),
(156,700,l),
(65,700,l),
(60,300,ls),
(57,95,o),
(178,-10,o),
(339,-10,cs),
(487,-10,o),
(624,93,o),
(627,302,cs)
);
}
);
};
layerId = m003;
shapes = (
{
closed = 1;
nodes = (
(695,700,l),
(609,700,l),
(566,320,ls),
(544,126,o),
(427,64,o),
(321,64,cs),
(223,64,o),
(121,111,o),
(156,320,cs),
(219,700,l),
(128,700,l),
(67,300,ls),
(36,95,o),
(141,-10,o),
(302,-10,cs),
(450,-10,o),
(602,93,o),
(634,302,cs)
);
}
);
width = 697;
},
{
anchors = (
{
name = bottom;
pos = (349,0);
},
{
name = ogonek;
pos = (627,10);
},
{
name = top;
pos = (349,680);
},
{
name = topright;
pos = (677,700);
}
);
background = {
anchors = (
{
name = bottom;
pos = (349,0);
},
{
name = ogonek;
pos = (627,10);
},
{
name = top;
pos = (349,700);
},
{
name = topright;
pos = (677,700);
}
);
shapes = (
{
closed = 1;
nodes = (
(632,700,l),
(546,700,l),
(556,320,ls),
(561,126,o),
(453,64,o),
(347,64,cs),
(249,64,o),
(141,111,o),
(146,320,cs),
(156,700,l),
(65,700,l),
(60,300,ls),
(57,95,o),
(178,-10,o),
(339,-10,cs),
(487,-10,o),
(624,93,o),
(627,302,cs)
);
}
);
};
layerId = m004;
shapes = (
{
closed = 1;
nodes = (
(632,700,l),
(506,700,l),
(516,320,ls),
(520,156,o),
(443,104,o),
(347,104,cs),
(269,104,o),
(181,141,o),
(186,320,cs),
(196,700,l),
(65,700,l),
(60,300,ls),
(57,95,o),
(178,-10,o),
(339,-10,cs),
(487,-10,o),
(624,93,o),
(627,302,cs)
);
}
);
width = 697;
},
{
anchors = (
{
name = bottom;
pos = (314,0);
},
{
name = ogonek;
pos = (593,10);
},
{
name = top;
pos = (419,680);
},
{
name = topright;
pos = (740,700);
}
);
background = {
anchors = (
{
name = bottom;
pos = (349,0);
},
{
name = ogonek;
pos = (627,10);
},
{
name = top;
pos = (349,700);
},
{
name = topright;
pos = (677,700);
}
);
shapes = (
{
closed = 1;
nodes = (
(632,700,l),
(546,700,l),
(556,320,ls),
(561,126,o),
(453,64,o),
(347,64,cs),
(249,64,o),
(141,111,o),
(146,320,cs),
(156,700,l),
(65,700,l),
(60,300,ls),
(57,95,o),
(178,-10,o),
(339,-10,cs),
(487,-10,o),
(624,93,o),
(627,302,cs)
);
}
);
};
layerId = m005;
shapes = (
{
closed = 1;
nodes = (
(695,700,l),
(569,700,l),
(526,320,ls),
(507,156,o),
(422,104,o),
(326,104,cs),
(248,104,o),
(166,141,o),
(196,320,cs),
(259,700,l),
(128,700,l),
(67,300,ls),
(36,95,o),
(141,-10,o),
(302,-10,cs),
(450,-10,o),
(602,93,o),
(634,302,cs)
);
}
);
width = 697;
},
{
anchors = (
{
name = bottom;
pos = (349,0);
},
{
name = ogonek;
pos = (97,-15);
},
{
name = top;
pos = (349,605);
},
{
name = topright;
pos = (677,700);
}
);
layerId = "7BE518C1-5919-420B-B6AE-125B8031F769";
shapes = (
{
closed = 1;
nodes = (
(632,700,l),
(606,700,l),
(616,320,ls),
(623,81,o),
(468,4,o),
(347,4,cs),
(219,4,o),
(81,66,o),
(86,320,cs),
(96,700,l),
(65,700,l),
(60,300,ls),
(57,95,o),
(178,-10,o),
(339,-10,cs),
(487,-10,o),
(624,93,o),
(627,302,cs)
);
}
);
width = 697;
}
);
unicode = 85;
changeCount = 2;
},
{
glyphname = V;
lastChange = "2024-11-15 10:07:07 +0000";
layers = (
{
anchors = (
{
name = bottom;
pos = (308,0);
},
{
name = top;
pos = (308,700);
}
);
background = {
anchors = (
{
name = bottom;
pos = (308,0);
},
{
name = top;
pos = (308,700);
}
);
shapes = (
{
closed = 1;
nodes = (
(334,-2,l),
(352,65,l),
(616,700,l),
(526,700,l),
(313,99,l),
(98,700,l),
(0,700,l),
(268,-16,l)
);
}
);
};
layerId = m002;
shapes = (
{
closed = 1;
nodes = (
(334,-2,l),
(352,65,l),
(616,700,l),
(526,700,l),
(313,99,l),
(98,700,l),
(0,700,l),
(268,-16,l)
);
}
);
width = 616;
},
{
anchors = (
{
name = bottom;
pos = (273,0);
},
{
name = top;
pos = (371,700);
}
);
background = {
anchors = (
{
name = bottom;
pos = (308,0);
},
{
name = top;
pos = (308,700);
}
);
shapes = (
{
closed = 1;
nodes = (
(334,-2,l),
(352,65,l),
(616,700,l),
(526,700,l),
(313,99,l),
(98,700,l),
(0,700,l),
(268,-16,l)
);
}
);
};
layerId = m003;
shapes = (
{
closed = 1;
nodes = (
(299,-2,l),
(326,65,l),
(679,700,l),
(589,700,l),
(282,99,l),
(151,700,l),
(63,700,l),
(231,-16,l)
);
}
);
width = 616;
},
{
anchors = (
{
name = bottom;
pos = (308,0);
},
{
name = top;
pos = (308,700);
}
);
background = {
shapes = (
{
closed = 1;
nodes = (
(334,-2,l),
(352,65,l),
(616,700,l),
(526,700,l),
(313,99,l),
(98,700,l),
(0,700,l),
(268,-16,l)
);
}
);
};
layerId = m004;
shapes = (
{
closed = 1;
nodes = (
(354,-2,l),
(372,65,l),
(616,700,l),
(476,700,l),
(313,129,l),
(148,700,l),
(0,700,l),
(248,-16,l)
);
}
);
width = 616;
},
{
anchors = (
{
name = bottom;
pos = (273,0);
},
{
name = top;
pos = (371,700);
}
);
background = {
shapes = (
{
closed = 1;
nodes = (
(334,-2,l),
(352,65,l),
(616,700,l),
(526,700,l),
(313,99,l),
(98,700,l),
(0,700,l),
(268,-16,l)
);
}
);
};
layerId = m005;
shapes = (
{
closed = 1;
nodes = (
(319,-2,l),
(346,65,l),
(679,700,l),
(539,700,l),
(296,129,l),
(211,700,l),
(63,700,l),
(211,-16,l)
);
}
);
width = 616;
},
{
anchors = (
{
name = bottom;
pos = (308,0);
},
{
name = top;
pos = (308,700);
}
);
layerId = "7BE518C1-5919-420B-B6AE-125B8031F769";
shapes = (
{
closed = 1;
nodes = (
(304,-2,l),
(322,65,l),
(616,700,l),
(601,700,l),
(313,54,l),
(23,700,l),
(0,700,l),
(298,-16,l)
);
}
);
width = 616;
}
);
unicode = 86;
changeCount = 2;
},
{
glyphname = W;
lastChange = "2024-11-15 10:07:07 +0000";
layers = (
{
anchors = (
{
name = bottom;
pos = (476,0);
},
{
name = top;
pos = (476,700);
}
);
background = {
anchors = (
{
name = bottom;
pos = (476,0);
},
{
name = top;
pos = (476,700);
}
);
shapes = (
{
closed = 1;
nodes = (
(284,-2,l),
(302,65,l),
(478,555,l),
(668,-16,l),
(734,-2,l),
(752,65,l),
(951,700,l),
(861,700,l),
(714,102,l),
(521,716,l),
(455,702,l),
(437,635,l),
(263,99,l),
(98,700,l),
(0,700,l),
(218,-16,l)
);
}
);
};
layerId = m002;
shapes = (
{
closed = 1;
nodes = (
(284,-2,l),
(302,65,l),
(478,555,l),
(668,-16,l),
(734,-2,l),
(752,65,l),
(951,700,l),
(861,700,l),
(714,102,l),
(521,716,l),
(455,702,l),
(437,635,l),
(263,99,l),
(98,700,l),
(0,700,l),
(218,-16,l)
);
}
);
width = 951;
},
{
anchors = (
{
name = bottom;
pos = (441,0);
},
{
name = top;
pos = (539,700);
}
);
background = {
anchors = (
{
name = bottom;
pos = (476,0);
},
{
name = top;
pos = (476,700);
}
);
shapes = (
{
closed = 1;
nodes = (
(284,-2,l),
(302,65,l),
(478,555,l),
(668,-16,l),
(734,-2,l),
(752,65,l),
(951,700,l),
(861,700,l),
(714,102,l),
(521,716,l),
(455,702,l),
(437,635,l),
(263,99,l),
(98,700,l),
(0,700,l),
(218,-16,l)
);
}
);
};
layerId = m003;
shapes = (
{
closed = 1;
nodes = (
(249,-2,l),
(276,65,l),
(521,555,l),
(631,-16,l),
(699,-2,l),
(726,65,l),
(1014,700,l),
(924,700,l),
(683,102,l),
(576,676,l),
(509,672,l),
(491,635,l),
(232,99,l),
(161,700,l),
(63,700,l),
(181,-16,l)
);
}
);
width = 951;
},
{
anchors = (
{
name = bottom;
pos = (476,0);
},
{
name = top;
pos = (476,700);
}
);
background = {
shapes = (
{
closed = 1;
nodes = (
(284,-2,l),
(302,65,l),
(478,555,l),
(668,-16,l),
(734,-2,l),
(752,65,l),
(951,700,l),
(861,700,l),
(714,102,l),
(521,716,l),
(455,702,l),
(437,635,l),
(263,99,l),
(98,700,l),
(0,700,l),
(218,-16,l)
);
}
);
};
layerId = m004;
shapes = (
{
closed = 1;
nodes = (
(304,-2,l),
(322,65,l),
(473,485,l),
(648,-16,l),
(754,-2,l),
(772,65,l),
(951,700,l),
(821,700,l),
(714,222,l),
(546,702,l),
(435,702,l),
(417,635,l),
(273,219,l),
(138,700,l),
(0,700,l),
(198,-16,l)
);
}
);
width = 951;
},
{
anchors = (
{
name = bottom;
pos = (441,0);
},
{
name = top;
pos = (539,700);
}
);
background = {
shapes = (
{
closed = 1;
nodes = (
(284,-2,l),
(302,65,l),
(478,555,l),
(668,-16,l),
(734,-2,l),
(752,65,l),
(951,700,l),
(861,700,l),
(714,102,l),
(521,716,l),
(455,702,l),
(437,635,l),
(263,99,l),
(98,700,l),
(0,700,l),
(218,-16,l)
);
}
);
};
layerId = m005;
shapes = (
{
closed = 1;
nodes = (
(269,-2,l),
(296,65,l),
(506,485,l),
(611,-16,l),
(719,-2,l),
(746,65,l),
(1014,700,l),
(884,700,l),
(710,222,l),
(610,702,l),
(499,702,l),
(471,635,l),
(269,219,l),
(201,700,l),
(63,700,l),
(161,-16,l)
);
}
);
width = 951;
},
{
anchors = (
{
name = bottom;
pos = (476,0);
},
{
name = top;
pos = (476,700);
}
);
layerId = "7BE518C1-5919-420B-B6AE-125B8031F769";
shapes = (
{
closed = 1;
nodes = (
(254,-2,l),
(272,65,l),
(486,660,l),
(698,-16,l),
(704,-2,l),
(722,65,l),
(951,700,l),
(921,700,l),
(714,-78,l),
(484,737,l),
(485,702,l),
(467,635,l),
(248,-81,l),
(38,700,l),
(0,700,l),
(248,-16,l)
);
}
);
width = 951;
}
);
unicode = 87;
changeCount = 2;
},
{
glyphname = X;
lastChange = "2024-11-15 10:07:07 +0000";
layers = (
{
anchors = (
{
name = bottom;
pos = (306,0);
},
{
name = top;
pos = (306,700);
}
);
background = {
anchors = (
{
name = bottom;
pos = (306,0);
},
{
name = top;
pos = (306,700);
}
);
shapes = (
{
closed = 1;
nodes = (
(283,375,l),
(5,0,l),
(105,0,l),
(321,324,l)
);
},
{
closed = 1;
nodes = (
(128,700,l),
(10,700,l),
(271,338,l),
(482,0,l),
(600,0,l),
(339,372,l)
);
},
{
closed = 1;
nodes = (
(328,325,l),
(606,700,l),
(506,700,l),
(290,376,l)
);
}
);
};
layerId = m002;
shapes = (
{
closed = 1;
nodes = (
(283,375,l),
(5,0,l),
(105,0,l),
(321,324,l)
);
},
{
closed = 1;
nodes = (
(128,700,l),
(10,700,l),
(271,338,l),
(482,0,l),
(600,0,l),
(339,372,l)
);
},
{
closed = 1;
nodes = (
(328,325,l),
(606,700,l),
(506,700,l),
(290,376,l)
);
}
);
width = 611;
},
{
anchors = (
{
name = bottom;
pos = (271,0);
},
{
name = top;
pos = (369,700);
}
);
background = {
anchors = (
{
name = bottom;
pos = (306,0);
},
{
name = top;
pos = (306,700);
}
);
shapes = (
{
closed = 1;
nodes = (
(283,375,l),
(5,0,l),
(105,0,l),
(321,324,l)
);
},
{
closed = 1;
nodes = (
(128,700,l),
(10,700,l),
(271,338,l),
(482,0,l),
(600,0,l),
(339,372,l)
);
},
{
closed = 1;
nodes = (
(328,325,l),
(606,700,l),
(506,700,l),
(290,376,l)
);
}
);
};
layerId = m003;
shapes = (
{
closed = 1;
nodes = (
(301,375,l),
(-30,0,l),
(70,0,l),
(331,324,l)
);
},
{
closed = 1;
nodes = (
(191,700,l),
(73,700,l),
(283,338,l),
(447,0,l),
(565,0,l),
(356,372,l)
);
},
{
closed = 1;
nodes = (
(339,325,l),
(669,700,l),
(569,700,l),
(308,376,l)
);
}
);
width = 611;
},
{
anchors = (
{
name = bottom;
pos = (306,0);
},
{
name = top;
pos = (306,700);
}
);
background = {
anchors = (
{
name = bottom;
pos = (306,0);
},
{
name = top;
pos = (306,700);
}
);
shapes = (
{
closed = 1;
nodes = (
(283,375,l),
(5,0,l),
(105,0,l),
(321,324,l)
);
},
{
closed = 1;
nodes = (
(128,700,l),
(10,700,l),
(271,338,l),
(482,0,l),
(600,0,l),
(339,372,l)
);
},
{
closed = 1;
nodes = (
(328,325,l),
(606,700,l),
(506,700,l),
(290,376,l)
);
}
);
};
layerId = m004;
shapes = (
{
closed = 1;
nodes = (
(268,395,l),
(5,0,l),
(165,0,l),
(336,304,l)
);
},
{
closed = 1;
nodes = (
(178,700,l),
(10,700,l),
(271,308,l),
(432,0,l),
(600,0,l),
(339,402,l)
);
},
{
closed = 1;
nodes = (
(343,305,l),
(606,700,l),
(446,700,l),
(275,396,l)
);
}
);
width = 611;
},
{
anchors = (
{
name = bottom;
pos = (271,0);
},
{
name = top;
pos = (369,700);
}
);
background = {
anchors = (
{
name = bottom;
pos = (306,0);
},
{
name = top;
pos = (306,700);
}
);
shapes = (
{
closed = 1;
nodes = (
(283,375,l),
(5,0,l),
(105,0,l),
(321,324,l)
);
},
{
closed = 1;
nodes = (
(128,700,l),
(10,700,l),
(271,338,l),
(482,0,l),
(600,0,l),
(339,372,l)
);
},
{
closed = 1;
nodes = (
(328,325,l),
(606,700,l),
(506,700,l),
(290,376,l)
);
}
);
};
layerId = m005;
shapes = (
{
closed = 1;
nodes = (
(288,395,l),
(-30,0,l),
(130,0,l),
(344,304,l)
);
},
{
closed = 1;
nodes = (
(241,700,l),
(73,700,l),
(279,308,l),
(397,0,l),
(565,0,l),
(360,402,l)
);
},
{
closed = 1;
nodes = (
(351,305,l),
(669,700,l),
(509,700,l),
(296,396,l)
);
}
);
width = 611;
},
{
anchors = (
{
name = bottom;
pos = (306,0);
},
{
name = top;
pos = (306,700);
}
);
layerId = "7BE518C1-5919-420B-B6AE-125B8031F769";
shapes = (
{
closed = 1;
nodes = (
(306,345,l),
(5,0,l),
(15,0,l),
(299,354,l)
);
},
{
closed = 1;
nodes = (
(53,700,l),
(10,700,l),
(271,383,l),
(557,0,l),
(600,0,l),
(339,327,l)
);
},
{
closed = 1;
nodes = (
(306,355,l),
(606,700,l),
(596,700,l),
(313,346,l)
);
}
);
width = 611;
}
);
unicode = 88;
changeCount = 2;
},
{
glyphname = Y;
lastChange = "2024-11-15 10:07:07 +0000";
layers = (
{
anchors = (
{
name = bottom;
pos = (298,0);
},
{
name = top;
pos = (298,650);
},
{
name = topleft;
pos = (20,700);
}
);
background = {
anchors = (
{
name = bottom;
pos = (298,0);
},
{
name = top;
pos = (298,700);
},
{
name = topleft;
pos = (20,700);
}
);
shapes = (
{
closed = 1;
nodes = (
(301,258,l),
(586,700,l),
(496,700,l),
(298,359,l),
(108,700,l),
(10,700,l),
(253,264,l)
);
},
{
closed = 1;
nodes = (
(243,0,l),
(333,0,l),
(328,330,l),
(243,330,l)
);
}
);
};
layerId = m002;
shapes = (
{
closed = 1;
nodes = (
(301,258,l),
(586,700,l),
(496,700,l),
(298,359,l),
(108,700,l),
(10,700,l),
(253,264,l)
);
},
{
closed = 1;
nodes = (
(243,0,l),
(333,0,l),
(328,330,l),
(243,330,l)
);
}
);
width = 596;
},
{
anchors = (
{
name = bottom;
pos = (263,0);
},
{
name = top;
pos = (361,700);
},
{
name = topleft;
pos = (83,700);
}
);
background = {
anchors = (
{
name = bottom;
pos = (298,0);
},
{
name = top;
pos = (298,700);
},
{
name = topleft;
pos = (20,700);
}
);
shapes = (
{
closed = 1;
nodes = (
(301,258,l),
(586,700,l),
(496,700,l),
(298,359,l),
(108,700,l),
(10,700,l),
(253,264,l)
);
},
{
closed = 1;
nodes = (
(243,0,l),
(333,0,l),
(328,330,l),
(243,330,l)
);
}
);
};
layerId = m003;
shapes = (
{
closed = 1;
nodes = (
(302,258,l),
(649,700,l),
(559,700,l),
(303,359,l),
(171,700,l),
(73,700,l),
(255,264,l)
);
},
{
closed = 1;
nodes = (
(208,0,l),
(298,0,l),
(339,330,l),
(254,330,l)
);
}
);
width = 596;
},
{
anchors = (
{
name = bottom;
pos = (298,0);
},
{
name = top;
pos = (298,700);
},
{
name = topleft;
pos = (20,700);
}
);
background = {
anchors = (
{
name = bottom;
pos = (298,0);
},
{
name = top;
pos = (298,700);
},
{
name = topleft;
pos = (20,700);
}
);
shapes = (
{
closed = 1;
nodes = (
(301,258,l),
(586,700,l),
(496,700,l),
(298,359,l),
(108,700,l),
(10,700,l),
(253,264,l)
);
},
{
closed = 1;
nodes = (
(243,0,l),
(333,0,l),
(328,330,l),
(243,330,l)
);
}
);
};
layerId = m004;
shapes = (
{
closed = 1;
nodes = (
(301,288,l),
(586,700,l),
(426,700,l),
(298,439,l),
(178,700,l),
(10,700,l),
(253,294,l)
);
},
{
closed = 1;
nodes = (
(213,0,l),
(358,0,l),
(348,370,l),
(223,370,l)
);
}
);
width = 596;
},
{
anchors = (
{
name = bottom;
pos = (263,0);
},
{
name = top;
pos = (361,700);
},
{
name = topleft;
pos = (83,700);
}
);
background = {
anchors = (
{
name = bottom;
pos = (298,0);
},
{
name = top;
pos = (298,700);
},
{
name = topleft;
pos = (20,700);
}
);
shapes = (
{
closed = 1;
nodes = (
(301,258,l),
(586,700,l),
(496,700,l),
(298,359,l),
(108,700,l),
(10,700,l),
(253,264,l)
);
},
{
closed = 1;
nodes = (
(243,0,l),
(333,0,l),
(328,330,l),
(243,330,l)
);
}
);
};
layerId = m005;
shapes = (
{
closed = 1;
nodes = (
(306,288,l),
(649,700,l),
(489,700,l),
(325,439,l),
(241,700,l),
(73,700,l),
(259,294,l)
);
},
{
closed = 1;
nodes = (
(178,0,l),
(323,0,l),
(365,370,l),
(240,370,l)
);
}
);
width = 596;
},
{
anchors = (
{
name = bottom;
pos = (298,0);
},
{
name = top;
pos = (298,575);
},
{
name = topleft;
pos = (20,700);
}
);
layerId = "7BE518C1-5919-420B-B6AE-125B8031F769";
shapes = (
{
closed = 1;
nodes = (
(301,213,l),
(586,700,l),
(601,700,l),
(298,239,l),
(3,700,l),
(10,700,l),
(253,219,l)
);
},
{
closed = 1;
nodes = (
(288,0,l),
(296,0,l),
(298,270,l),
(273,270,l)
);
}
);
width = 596;
}
);
unicode = 89;
changeCount = 2;
},
{
glyphname = Z;
lastChange = "2024-11-15 10:07:07 +0000";
layers = (
{
anchors = (
{
name = bottom;
pos = (294,0);
},
{
name = center;
pos = (294,350);
},
{
name = top;
pos = (294,700);
}
);
background = {
anchors = (
{
name = bottom;
pos = (294,0);
},
{
name = center;
pos = (294,350);
},
{
name = top;
pos = (294,700);
}
);
shapes = (
{
closed = 1;
nodes = (
(554,0,l),
(554,80,l),
(194,60,l),
(84,65,l),
(84,0,l)
);
},
{
closed = 1;
nodes = (
(30,65,l),
(34,0,l),
(82,0,l),
(557,635,l),
(554,700,l),
(506,700,l)
);
},
{
closed = 1;
nodes = (
(54,700,l),
(54,620,l),
(404,640,l),
(514,635,l),
(514,700,l)
);
}
);
};
layerId = m002;
shapes = (
{
closed = 1;
nodes = (
(554,0,l),
(554,80,l),
(194,60,l),
(84,65,l),
(84,0,l)
);
},
{
closed = 1;
nodes = (
(30,65,l),
(34,0,l),
(82,0,l),
(557,635,l),
(554,700,l),
(506,700,l)
);
},
{
closed = 1;
nodes = (
(54,700,l),
(54,620,l),
(404,640,l),
(514,635,l),
(514,700,l)
);
}
);
width = 587;
},
{
anchors = (
{
name = bottom;
pos = (259,0);
},
{
name = center;
pos = (308,350);
},
{
name = top;
pos = (357,700);
}
);
background = {
anchors = (
{
name = bottom;
pos = (294,0);
},
{
name = center;
pos = (294,350);
},
{
name = top;
pos = (294,700);
}
);
shapes = (
{
closed = 1;
nodes = (
(554,0,l),
(554,80,l),
(194,60,l),
(84,65,l),
(84,0,l)
);
},
{
closed = 1;
nodes = (
(30,65,l),
(34,0,l),
(82,0,l),
(557,635,l),
(554,700,l),
(506,700,l)
);
},
{
closed = 1;
nodes = (
(54,700,l),
(54,620,l),
(404,640,l),
(514,635,l),
(514,700,l)
);
}
);
};
layerId = m003;
shapes = (
{
closed = 1;
nodes = (
(519,0,l),
(530,80,l),
(167,60,l),
(58,65,l),
(49,0,l)
);
},
{
closed = 1;
nodes = (
(4,65,l),
(-1,0,l),
(47,0,l),
(611,635,l),
(617,700,l),
(569,700,l)
);
},
{
closed = 1;
nodes = (
(117,700,l),
(106,620,l),
(459,640,l),
(568,635,l),
(577,700,l)
);
}
);
width = 587;
},
{
anchors = (
{
name = bottom;
pos = (294,0);
},
{
name = center;
pos = (294,350);
},
{
name = top;
pos = (294,700);
}
);
background = {
anchors = (
{
name = bottom;
pos = (294,0);
},
{
name = center;
pos = (294,350);
},
{
name = top;
pos = (294,700);
}
);
shapes = (
{
closed = 1;
nodes = (
(554,0,l),
(554,80,l),
(194,60,l),
(84,65,l),
(84,0,l)
);
},
{
closed = 1;
nodes = (
(30,65,l),
(34,0,l),
(82,0,l),
(557,635,l),
(554,700,l),
(506,700,l)
);
},
{
closed = 1;
nodes = (
(54,700,l),
(54,620,l),
(404,640,l),
(514,635,l),
(514,700,l)
);
}
);
};
layerId = m004;
shapes = (
{
closed = 1;
nodes = (
(554,0,l),
(554,130,l),
(284,90,l),
(124,95,l),
(124,0,l)
);
},
{
closed = 1;
nodes = (
(30,65,l),
(34,0,l),
(138,0,l),
(557,635,l),
(554,700,l),
(451,700,l)
);
},
{
closed = 1;
nodes = (
(54,700,l),
(54,570,l),
(324,610,l),
(464,605,l),
(464,700,l)
);
}
);
width = 587;
},
{
anchors = (
{
name = bottom;
pos = (259,0);
},
{
name = center;
pos = (308,350);
},
{
name = top;
pos = (357,700);
}
);
background = {
anchors = (
{
name = bottom;
pos = (294,0);
},
{
name = center;
pos = (294,350);
},
{
name = top;
pos = (294,700);
}
);
shapes = (
{
closed = 1;
nodes = (
(554,0,l),
(554,80,l),
(194,60,l),
(84,65,l),
(84,0,l)
);
},
{
closed = 1;
nodes = (
(30,65,l),
(34,0,l),
(82,0,l),
(557,635,l),
(554,700,l),
(506,700,l)
);
},
{
closed = 1;
nodes = (
(54,700,l),
(54,620,l),
(404,640,l),
(514,635,l),
(514,700,l)
);
}
);
};
layerId = m005;
shapes = (
{
closed = 1;
nodes = (
(519,0,l),
(537,130,l),
(262,90,l),
(102,95,l),
(89,0,l)
);
},
{
closed = 1;
nodes = (
(4,65,l),
(-1,0,l),
(103,0,l),
(611,635,l),
(617,700,l),
(514,700,l)
);
},
{
closed = 1;
nodes = (
(117,700,l),
(99,570,l),
(375,610,l),
(514,605,l),
(527,700,l)
);
}
);
width = 587;
},
{
anchors = (
{
name = bottom;
pos = (294,0);
},
{
name = center;
pos = (294,350);
},
{
name = top;
pos = (294,700);
}
);
layerId = "7BE518C1-5919-420B-B6AE-125B8031F769";
shapes = (
{
closed = 1;
nodes = (
(554,0,l),
(554,5,l),
(59,15,l),
(24,20,l),
(24,0,l)
);
},
{
closed = 1;
nodes = (
(30,65,l),
(34,0,l),
(-2,0,l),
(557,635,l),
(554,700,l),
(589,700,l)
);
},
{
closed = 1;
nodes = (
(54,700,l),
(54,695,l),
(524,685,l),
(589,680,l),
(589,700,l)
);
}
);
width = 587;
}
);
unicode = 90;
changeCount = 2;
},
{
glyphname = a;
lastChange = "2024-11-15 10:07:07 +0000";
layers = (
{
anchors = (
{
name = bottom;
pos = (242,0);
},
{
name = ogonek;
pos = (423,10);
},
{
name = top;
pos = (252,500);
}
);
background = {
anchors = (
{
name = bottom;
pos = (242,0);
},
{
name = ogonek;
pos = (423,10);
},
{
name = top;
pos = (252,500);
}
);
shapes = (
{
closed = 1;
nodes = (
(423,10,l),
(413,205,l),
(418,340,ls),
(421,427,o),
(360,520,o),
(253,520,cs),
(223,520,o),
(166,500,o),
(88,450,c),
(88,400,l),
(230,471,o),
(350,451,o),
(343,300,cs),
(333,89,l),
(338,-10,l)
);
},
{
closed = 1;
nodes = (
(251,-10,o),
(297,27,o),
(335,75,c),
(358,162,l),
(320,94,o),
(276,62,o),
(220,61,cs),
(165,60,o),
(139,98,o),
(139,137,cs),
(139,172,o),
(160,208,o),
(218,223,cs),
(363,260,l),
(363,301,l),
(200,280,ls),
(98,267,o),
(50,195,o),
(50,122,cs),
(50,37,o),
(113,-10,o),
(181,-10,cs)
);
}
);
};
layerId = m002;
shapes = (
{
closed = 1;
nodes = (
(423,10,l),
(413,205,l),
(418,340,ls),
(421,427,o),
(360,520,o),
(253,520,cs),
(223,520,o),
(166,500,o),
(88,450,c),
(88,400,l),
(230,471,o),
(350,451,o),
(343,300,cs),
(333,89,l),
(338,-10,l)
);
},
{
closed = 1;
nodes = (
(251,-10,o),
(297,27,o),
(335,75,c),
(358,162,l),
(320,94,o),
(276,62,o),
(220,61,cs),
(165,60,o),
(139,98,o),
(139,137,cs),
(139,172,o),
(160,208,o),
(218,223,cs),
(363,260,l),
(363,301,l),
(200,280,ls),
(98,267,o),
(50,195,o),
(50,122,cs),
(50,37,o),
(113,-10,o),
(181,-10,cs)
);
}
);
width = 483;
},
{
anchors = (
{
name = bottom;
pos = (207,0);
},
{
name = ogonek;
pos = (389,10);
},
{
name = top;
pos = (287,500);
}
);
background = {
shapes = (
{
closed = 1;
nodes = (
(389,10,l),
(407,205,l),
(429,330,ls),
(446,427,o),
(388,520,o),
(291,520,cs),
(261,520,o),
(201,500,o),
(106,440,c),
(99,385,l),
(241,481,o),
(379,451,o),
(350,300,cs),
(310,89,l),
(301,-10,l)
);
},
{
closed = 1;
nodes = (
(214,-10,o),
(266,27,o),
(310,75,c),
(346,162,l),
(298,94,o),
(250,62,o),
(193,61,cs),
(138,60,o),
(118,98,o),
(123,137,cs),
(128,172,o),
(154,208,o),
(214,223,cs),
(364,260,l),
(370,301,l),
(204,280,ls),
(100,267,o),
(42,195,o),
(32,122,cs),
(31,114,o),
(30,107,o),
(30,100,cs),
(30,29,o),
(82,-10,o),
(144,-10,cs)
);
}
);
};
layerId = m003;
shapes = (
{
closed = 1;
nodes = (
(389,10,l),
(407,205,l),
(429,330,ls),
(446,427,o),
(378,520,o),
(281,520,cs),
(251,520,o),
(191,500,o),
(106,440,c),
(105,385,l),
(221,481,o),
(379,451,o),
(350,300,cs),
(310,89,l),
(301,-10,l)
);
},
{
closed = 1;
nodes = (
(214,-10,o),
(266,27,o),
(310,75,c),
(346,162,l),
(298,94,o),
(250,62,o),
(193,61,cs),
(138,60,o),
(118,98,o),
(123,137,cs),
(128,172,o),
(154,208,o),
(232,227,cs),
(364,260,l),
(370,301,l),
(224,282,ls),
(84,264,o),
(30,181,o),
(30,110,cs),
(30,29,o),
(82,-10,o),
(144,-10,cs)
);
}
);
width = 483;
},
{
anchors = (
{
name = bottom;
pos = (242,0);
},
{
name = ogonek;
pos = (435,10);
},
{
name = top;
pos = (242,500);
}
);
background = {
shapes = (
{
closed = 1;
nodes = (
(423,10,l),
(413,205,l),
(418,340,ls),
(421,427,o),
(360,520,o),
(253,520,cs),
(223,520,o),
(166,500,o),
(88,450,c),
(88,400,l),
(230,471,o),
(350,451,o),
(343,300,cs),
(333,89,l),
(338,-10,l)
);
},
{
closed = 1;
nodes = (
(251,-10,o),
(297,27,o),
(335,75,c),
(358,162,l),
(320,94,o),
(276,62,o),
(220,61,cs),
(165,60,o),
(139,98,o),
(139,137,cs),
(139,172,o),
(160,208,o),
(218,223,cs),
(363,260,l),
(363,301,l),
(200,280,ls),
(98,267,o),
(50,195,o),
(50,122,cs),
(50,37,o),
(113,-10,o),
(181,-10,cs)
);
}
);
};
layerId = m004;
shapes = (
{
closed = 1;
nodes = (
(433,10,l),
(413,205,l),
(418,340,ls),
(421,427,o),
(360,520,o),
(253,520,cs),
(223,520,o),
(166,500,o),
(88,450,c),
(88,370,l),
(176,429,o),
(313,451,o),
(313,300,cs),
(313,89,l),
(318,-20,l)
);
},
{
closed = 1;
nodes = (
(251,-10,o),
(297,27,o),
(335,75,c),
(358,182,l),
(320,114,o),
(276,82,o),
(230,81,cs),
(185,80,o),
(169,108,o),
(169,137,cs),
(169,172,o),
(198,198,o),
(246,210,cs),
(363,240,l),
(363,301,l),
(200,280,ls),
(98,267,o),
(50,195,o),
(50,122,cs),
(50,37,o),
(113,-10,o),
(181,-10,cs)
);
}
);
width = 483;
},
{
anchors = (
{
name = bottom;
pos = (207,0);
},
{
name = ogonek;
pos = (401,10);
},
{
name = top;
pos = (277,500);
}
);
background = {
shapes = (
{
closed = 1;
nodes = (
(423,10,l),
(413,205,l),
(418,340,ls),
(421,427,o),
(360,520,o),
(253,520,cs),
(223,520,o),
(166,500,o),
(88,450,c),
(88,400,l),
(230,471,o),
(350,451,o),
(343,300,cs),
(333,89,l),
(338,-10,l)
);
},
{
closed = 1;
nodes = (
(251,-10,o),
(297,27,o),
(335,75,c),
(358,162,l),
(320,94,o),
(276,62,o),
(220,61,cs),
(165,60,o),
(139,98,o),
(139,137,cs),
(139,172,o),
(160,208,o),
(218,223,cs),
(363,260,l),
(363,301,l),
(200,280,ls),
(98,267,o),
(50,195,o),
(50,122,cs),
(50,37,o),
(113,-10,o),
(181,-10,cs)
);
}
);
};
layerId = m005;
shapes = (
{
closed = 1;
nodes = (
(399,10,l),
(407,205,l),
(431,340,ls),
(446,427,o),
(398,520,o),
(291,520,cs),
(261,520,o),
(201,500,o),
(116,450,c),
(105,370,l),
(201,429,o),
(341,451,o),
(320,300,cs),
(290,89,l),
(280,-20,l)
);
},
{
closed = 1;
nodes = (
(214,-10,o),
(266,27,o),
(310,75,c),
(348,182,l),
(301,114,o),
(252,82,o),
(206,81,cs),
(161,80,o),
(149,108,o),
(153,137,cs),
(158,172,o),
(191,198,o),
(240,210,cs),
(362,240,l),
(370,301,l),
(204,280,ls),
(100,267,o),
(42,195,o),
(32,122,cs),
(20,37,o),
(76,-10,o),
(144,-10,cs)
);
}
);
width = 483;
},
{
anchors = (
{
name = bottom;
pos = (242,0);
},
{
name = ogonek;
pos = (405,10);
},
{
name = top;
pos = (267,500);
}
);
layerId = "7BE518C1-5919-420B-B6AE-125B8031F769";
shapes = (
{
closed = 1;
nodes = (
(408,10,l),
(413,205,l),
(418,340,ls),
(421,427,o),
(360,520,o),
(253,520,cs),
(223,520,o),
(166,500,o),
(88,450,c),
(88,445,l),
(311,534,o),
(406,451,o),
(388,300,cs),
(363,89,l),
(368,5,l)
);
},
{
closed = 1;
nodes = (
(251,-10,o),
(297,27,o),
(335,75,c),
(358,132,l),
(320,64,o),
(276,32,o),
(205,31,cs),
(135,30,o),
(94,83,o),
(94,137,cs),
(94,172,o),
(103,223,o),
(176,243,cs),
(363,290,l),
(363,301,l),
(200,280,ls),
(98,267,o),
(50,195,o),
(50,122,cs),
(50,37,o),
(113,-10,o),
(181,-10,cs)
);
}
);
width = 483;
}
);
unicode = 97;
changeCount = 2;
},
{
glyphname = ae;
lastChange = "2024-11-15 10:07:07 +0000";
layers = (
{
anchors = (
{
name = bottom;
pos = (385,0);
},
{
name = top;
pos = (385,500);
}
);
background = {
shapes = (
{
closed = 1;
nodes = (
(413,205,l),
(418,340,ls),
(421,427,o),
(360,520,o),
(253,520,cs),
(223,520,o),
(166,500,o),
(88,450,c),
(88,400,l),
(230,471,o),
(350,451,o),
(343,300,cs),
(333,89,l)
);
},
{
closed = 1;
nodes = (
(251,-10,o),
(297,27,o),
(335,75,c),
(358,162,l),
(320,94,o),
(276,62,o),
(220,61,cs),
(165,60,o),
(139,98,o),
(139,137,cs),
(139,172,o),
(160,208,o),
(218,223,cs),
(363,260,l),
(363,301,l),
(200,280,ls),
(98,267,o),
(50,195,o),
(50,122,cs),
(50,37,o),
(113,-10,o),
(181,-10,cs)
);
},
{
closed = 1;
nodes = (
(534,15,o),
(419,101,o),
(419,256,cs),
(419,413,o),
(485,449,o),
(538,449,cs),
(584,449,o),
(634,407,o),
(636,328,c),
(718,328,l),
(714,456,o),
(630,520,o),
(558,520,cs),
(457,520,o),
(336,414,o),
(336,231,cs),
(336,118,o),
(416,-10,o),
(535,-10,cs),
(585,-10,o),
(642,10,o),
(730,70,c),
(710,110,l)
);
},
{
closed = 1;
nodes = (
(385,288,l),
(718,288,l),
(718,328,l),
(665,343,l),
(385,333,l)
);
}
);
};
layerId = m002;
shapes = (
{
closed = 1;
nodes = (
(340,231,l),
(413,205,l),
(418,340,ls),
(421,427,o),
(360,520,o),
(253,520,cs),
(223,520,o),
(166,500,o),
(88,450,c),
(88,400,l),
(230,471,o),
(350,445,o),
(343,294,cs)
);
},
{
closed = 1;
nodes = (
(251,-10,o),
(317,20,o),
(387,114,c),
(358,162,l),
(320,94,o),
(276,62,o),
(220,61,cs),
(165,60,o),
(139,98,o),
(139,137,cs),
(139,172,o),
(160,208,o),
(218,223,cs),
(363,260,l),
(363,301,l),
(200,280,ls),
(98,267,o),
(50,195,o),
(50,122,cs),
(50,37,o),
(113,-10,o),
(181,-10,cs)
);
},
{
closed = 1;
nodes = (
(534,15,o),
(419,101,o),
(419,256,cs),
(419,413,o),
(485,449,o),
(538,449,cs),
(584,449,o),
(634,407,o),
(636,328,c),
(718,328,l),
(714,456,o),
(630,520,o),
(558,520,cs),
(457,520,o),
(340,414,o),
(340,231,cs),
(340,118,o),
(416,-10,o),
(535,-10,cs),
(585,-10,o),
(642,10,o),
(730,70,c),
(710,110,l)
);
},
{
closed = 1;
nodes = (
(385,288,l),
(718,288,l),
(718,328,l),
(665,343,l),
(385,333,l)
);
}
);
width = 770;
},
{
anchors = (
{
name = bottom;
pos = (385,0);
},
{
name = top;
pos = (385,500);
}
);
background = {
shapes = (
{
closed = 1;
nodes = (
(413,205,l),
(418,340,ls),
(421,427,o),
(360,520,o),
(253,520,cs),
(223,520,o),
(166,500,o),
(88,450,c),
(88,400,l),
(230,471,o),
(350,451,o),
(343,300,cs),
(333,89,l)
);
},
{
closed = 1;
nodes = (
(251,-10,o),
(297,27,o),
(335,75,c),
(358,162,l),
(320,94,o),
(276,62,o),
(220,61,cs),
(165,60,o),
(139,98,o),
(139,137,cs),
(139,172,o),
(160,208,o),
(218,223,cs),
(363,260,l),
(363,301,l),
(200,280,ls),
(98,267,o),
(50,195,o),
(50,122,cs),
(50,37,o),
(113,-10,o),
(181,-10,cs)
);
},
{
closed = 1;
nodes = (
(534,15,o),
(419,101,o),
(419,256,cs),
(419,413,o),
(485,449,o),
(538,449,cs),
(584,449,o),
(634,407,o),
(636,328,c),
(718,328,l),
(714,456,o),
(630,520,o),
(558,520,cs),
(457,520,o),
(336,414,o),
(336,231,cs),
(336,118,o),
(416,-10,o),
(535,-10,cs),
(585,-10,o),
(642,10,o),
(730,70,c),
(710,110,l)
);
},
{
closed = 1;
nodes = (
(385,288,l),
(718,288,l),
(718,328,l),
(665,343,l),
(385,333,l)
);
}
);
};
layerId = m003;
shapes = (
{
closed = 1;
nodes = (
(340,251,l),
(406,205,l),
(430,340,ls),
(445,427,o),
(397,520,o),
(290,520,cs),
(260,520,o),
(200,500,o),
(115,450,c),
(108,400,l),
(260,471,o),
(376,444,o),
(348,294,cs)
);
},
{
closed = 1;
nodes = (
(214,-10,o),
(284,20,o),
(367,114,c),
(345,162,l),
(297,94,o),
(249,62,o),
(193,61,cs),
(138,60,o),
(117,98,o),
(122,137,cs),
(127,172,o),
(153,208,o),
(214,223,cs),
(364,260,l),
(369,301,l),
(204,280,ls),
(100,267,o),
(42,195,o),
(31,122,cs),
(19,37,o),
(76,-10,o),
(144,-10,cs)
);
},
{
closed = 1;
nodes = (
(505,15,o),
(402,101,o),
(424,256,cs),
(446,413,o),
(507,449,o),
(560,449,cs),
(606,449,o),
(660,407,o),
(651,328,c),
(733,328,l),
(747,456,o),
(657,515,o),
(585,515,cs),
(484,515,o),
(363,414,o),
(340,251,cs),
(321,118,o),
(383,-10,o),
(502,-10,cs),
(552,-10,o),
(612,10,o),
(709,70,c),
(694,110,l)
);
},
{
closed = 1;
nodes = (
(394,288,l),
(727,288,l),
(733,328,l),
(682,343,l),
(401,333,l)
);
}
);
width = 770;
},
{
anchors = (
{
name = bottom;
pos = (385,0);
},
{
name = top;
pos = (385,500);
}
);
background = {
shapes = (
{
closed = 1;
nodes = (
(413,205,l),
(418,340,ls),
(421,427,o),
(360,520,o),
(253,520,cs),
(223,520,o),
(166,500,o),
(88,450,c),
(88,400,l),
(230,471,o),
(350,445,o),
(343,294,c)
);
},
{
closed = 1;
nodes = (
(251,-10,o),
(317,20,o),
(387,114,c),
(358,162,l),
(320,94,o),
(276,62,o),
(220,61,cs),
(165,60,o),
(139,98,o),
(139,137,cs),
(139,172,o),
(160,208,o),
(218,223,cs),
(363,260,l),
(363,301,l),
(200,280,ls),
(98,267,o),
(50,195,o),
(50,122,cs),
(50,37,o),
(113,-10,o),
(181,-10,cs)
);
},
{
closed = 1;
nodes = (
(534,15,o),
(419,101,o),
(419,256,cs),
(419,413,o),
(485,449,o),
(538,449,cs),
(584,449,o),
(634,407,o),
(636,328,c),
(718,328,l),
(714,456,o),
(630,520,o),
(558,520,cs),
(457,520,o),
(342,414,o),
(342,231,cs),
(342,118,o),
(416,-10,o),
(535,-10,cs),
(585,-10,o),
(642,10,o),
(730,70,c),
(710,110,l)
);
},
{
closed = 1;
nodes = (
(385,288,l),
(718,288,l),
(718,328,l),
(665,343,l),
(385,333,l)
);
}
);
};
layerId = m004;
shapes = (
{
closed = 1;
nodes = (
(310,231,l),
(413,205,l),
(418,340,ls),
(421,427,o),
(360,520,o),
(253,520,cs),
(223,520,o),
(166,500,o),
(88,450,c),
(88,370,l),
(176,429,o),
(321,451,o),
(313,290,cs)
);
},
{
closed = 1;
nodes = (
(271,-10,o),
(317,37,o),
(365,85,c),
(358,182,l),
(320,113,o),
(270,88,o),
(232,88,cs),
(196,88,o),
(169,110,o),
(169,137,cs),
(169,172,o),
(198,198,o),
(246,210,cs),
(363,240,l),
(363,301,l),
(200,280,ls),
(98,267,o),
(50,195,o),
(50,122,cs),
(50,37,o),
(113,-10,o),
(191,-10,cs)
);
},
{
closed = 1;
nodes = (
(538,45,o),
(423,101,o),
(423,256,cs),
(423,371,o),
(441,432,o),
(508,432,cs),
(552,432,o),
(580,399,o),
(580,328,c),
(702,328,l),
(698,456,o),
(604,520,o),
(532,520,cs),
(431,520,o),
(310,414,o),
(310,231,cs),
(310,118,o),
(370,-10,o),
(509,-10,cs),
(559,-10,o),
(616,10,o),
(714,80,c),
(684,140,l)
);
},
{
closed = 1;
nodes = (
(359,268,l),
(702,268,l),
(702,328,l),
(639,353,l),
(359,333,l)
);
}
);
width = 754;
},
{
anchors = (
{
name = bottom;
pos = (365,0);
},
{
name = top;
pos = (365,500);
}
);
background = {
shapes = (
{
closed = 1;
nodes = (
(393,205,l),
(398,340,ls),
(401,427,o),
(340,520,o),
(233,520,cs),
(203,520,o),
(146,500,o),
(68,450,c),
(68,400,l),
(210,471,o),
(330,445,o),
(323,294,c)
);
},
{
closed = 1;
nodes = (
(231,-10,o),
(297,20,o),
(367,114,c),
(338,162,l),
(300,94,o),
(256,62,o),
(200,61,cs),
(145,60,o),
(119,98,o),
(119,137,cs),
(119,172,o),
(140,208,o),
(198,223,cs),
(343,260,l),
(343,301,l),
(180,280,ls),
(78,267,o),
(30,195,o),
(30,122,cs),
(30,37,o),
(93,-10,o),
(161,-10,cs)
);
},
{
closed = 1;
nodes = (
(514,15,o),
(399,101,o),
(399,256,cs),
(399,413,o),
(465,449,o),
(518,449,cs),
(564,449,o),
(614,407,o),
(616,328,c),
(698,328,l),
(694,456,o),
(610,520,o),
(538,520,cs),
(437,520,o),
(322,414,o),
(322,231,cs),
(322,118,o),
(396,-10,o),
(515,-10,cs),
(565,-10,o),
(622,10,o),
(710,70,c),
(690,110,l)
);
},
{
closed = 1;
nodes = (
(365,288,l),
(698,288,l),
(698,328,l),
(645,343,l),
(365,333,l)
);
}
);
};
layerId = m005;
shapes = (
{
closed = 1;
nodes = (
(307,231,l),
(407,205,l),
(431,340,ls),
(446,427,o),
(398,520,o),
(291,520,cs),
(261,520,o),
(201,500,o),
(116,450,c),
(105,370,l),
(201,429,o),
(351,449,o),
(319,290,cs)
);
},
{
closed = 1;
nodes = (
(234,-10,o),
(287,37,o),
(342,85,c),
(348,182,l),
(301,113,o),
(247,88,o),
(209,88,cs),
(173,88,o),
(149,110,o),
(153,137,cs),
(158,172,o),
(191,198,o),
(240,210,cs),
(362,240,l),
(370,301,l),
(204,280,ls),
(100,267,o),
(42,195,o),
(32,122,cs),
(20,37,o),
(76,-10,o),
(154,-10,cs)
);
},
{
closed = 1;
nodes = (
(509,45,o),
(402,101,o),
(424,256,cs),
(440,371,o),
(467,432,o),
(534,432,cs),
(578,432,o),
(601,399,o),
(591,328,c),
(713,328,l),
(727,456,o),
(642,520,o),
(570,520,cs),
(469,520,o),
(333,414,o),
(307,231,cs),
(291,118,o),
(333,-10,o),
(472,-10,cs),
(522,-10,o),
(582,10,o),
(690,80,c),
(669,140,l)
);
},
{
closed = 1;
nodes = (
(362,268,l),
(705,268,l),
(713,328,l),
(653,353,l),
(371,333,l)
);
}
);
width = 754;
},
{
anchors = (
{
name = bottom;
pos = (385,0);
},
{
name = top;
pos = (385,500);
}
);
layerId = "7BE518C1-5919-420B-B6AE-125B8031F769";
shapes = (
{
closed = 1;
nodes = (
(385,231,l),
(413,205,l),
(418,340,ls),
(421,427,o),
(360,520,o),
(253,520,cs),
(223,520,o),
(166,500,o),
(88,450,c),
(88,445,l),
(311,534,o),
(394,436,o),
(388,300,cs)
);
},
{
closed = 1;
nodes = (
(221,-10,o),
(317,-5,o),
(420,158,c),
(358,132,l),
(320,66,o),
(285,23,o),
(202,21,cs),
(119,18,o),
(94,80,o),
(94,137,cs),
(94,172,o),
(103,223,o),
(176,243,cs),
(363,290,l),
(363,301,l),
(200,280,ls),
(98,267,o),
(50,195,o),
(50,122,cs),
(50,37,o),
(113,-10,o),
(166,-10,cs)
);
},
{
closed = 1;
nodes = (
(528,-30,o),
(413,101,o),
(413,256,cs),
(413,476,o),
(551,475,o),
(583,475,cs),
(632,475,o),
(715,419,o),
(720,328,c),
(742,328,l),
(738,456,o),
(669,520,o),
(597,520,cs),
(496,520,o),
(385,414,o),
(385,231,cs),
(385,118,o),
(485,-10,o),
(574,-10,cs),
(624,-10,o),
(681,10,o),
(754,55,c),
(749,65,l)
);
},
{
closed = 1;
nodes = (
(424,318,l),
(742,318,l),
(742,328,l),
(704,328,l),
(424,333,l)
);
}
);
width = 794;
}
);
metricLeft = "=a";
metricRight = "=e";
unicode = 230;
changeCount = 2;
},
{
glyphname = b;
lastChange = "2024-11-15 10:07:07 +0000";
layers = (
{
anchors = (
{
name = bottom;
pos = (271,0);
},
{
name = center;
pos = (271,250);
},
{
name = top;
pos = (271,500);
}
);
background = {
anchors = (
{
name = bottom;
pos = (271,0);
},
{
name = center;
pos = (271,250);
},
{
name = top;
pos = (271,500);
}
);
shapes = (
{
closed = 1;
nodes = (
(359,55,o),
(278,55,cs),
(240,55,o),
(195,69,o),
(146,100,c),
(65,30,l),
(133,3,o),
(189,-10,o),
(241,-10,cs),
(375,-10,o),
(492,116,o),
(492,272,cs),
(492,429,o),
(399,520,o),
(313,520,cs),
(283,520,o),
(226,500,o),
(148,450,c),
(148,400,l),
(192,426,o),
(233,445,o),
(270,445,cs),
(353,445,o),
(409,372,o),
(409,214,cs),
(409,140,o)
);
},
{
closed = 1;
nodes = (
(160,30,l),
(155,250,l),
(155,760,l),
(65,740,l),
(75,550,l),
(75,270,l),
(65,30,l)
);
}
);
};
layerId = m002;
shapes = (
{
closed = 1;
nodes = (
(375,-10,o),
(492,116,o),
(492,272,cs),
(492,429,o),
(399,520,o),
(313,520,cs),
(283,520,o),
(226,500,o),
(148,450,c),
(148,400,l),
(192,426,o),
(233,445,o),
(270,445,cs),
(353,445,o),
(409,372,o),
(409,214,cs),
(409,140,o),
(359,55,o),
(278,55,cs),
(240,55,o),
(195,69,o),
(146,100,c),
(65,30,l),
(133,3,o),
(189,-10,o),
(241,-10,cs)
);
},
{
closed = 1;
nodes = (
(160,30,l),
(155,250,l),
(155,760,l),
(65,740,l),
(75,550,l),
(75,270,l),
(65,30,l)
);
}
);
width = 542;
},
{
anchors = (
{
name = bottom;
pos = (236,0);
},
{
name = center;
pos = (271,250);
},
{
name = top;
pos = (306,500);
}
);
background = {
shapes = (
{
closed = 1;
nodes = (
(332,55,o),
(251,55,cs),
(213,55,o),
(170,69,o),
(125,100,c),
(34,30,l),
(98,3,o),
(152,-10,o),
(204,-10,cs),
(338,-10,o),
(473,116,o),
(495,272,cs),
(517,429,o),
(437,520,o),
(351,520,cs),
(321,520,o),
(261,500,o),
(176,450,c),
(169,400,l),
(217,426,o),
(260,445,o),
(297,445,cs),
(380,445,o),
(426,372,o),
(404,214,cs),
(394,140,o)
);
},
{
closed = 1;
nodes = (
(129,30,l),
(155,250,l),
(227,760,l),
(134,740,l),
(117,550,l),
(78,270,l),
(34,30,l)
);
}
);
};
layerId = m003;
shapes = (
{
closed = 1;
nodes = (
(336,-14,o),
(472,100,o),
(496,282,cs),
(514,419,o),
(447,520,o),
(341,520,cs),
(301,520,o),
(261,505,o),
(163,441,c),
(156,380,l),
(217,426,o),
(270,449,o),
(307,449,cs),
(390,449,o),
(423,352,o),
(412,274,cs),
(389,110,o),
(301,48,o),
(226,48,cs),
(184,48,o),
(145,61,o),
(123,75,c),
(44,10,l),
(83,-6,o),
(131,-14,o),
(178,-14,cs)
);
},
{
closed = 1;
nodes = (
(129,10,l),
(160,250,l),
(227,760,l),
(134,740,l),
(117,550,l),
(83,270,l),
(44,10,l)
);
}
);
width = 542;
},
{
anchors = (
{
name = bottom;
pos = (271,0);
},
{
name = center;
pos = (271,250);
},
{
name = top;
pos = (271,500);
}
);
background = {
shapes = (
{
closed = 1;
nodes = (
(375,-10,o),
(492,116,o),
(492,272,cs),
(492,429,o),
(399,520,o),
(313,520,cs),
(283,520,o),
(226,500,o),
(148,450,c),
(148,400,l),
(192,426,o),
(233,445,o),
(270,445,cs),
(353,445,o),
(409,372,o),
(409,214,cs),
(409,140,o),
(359,55,o),
(278,55,cs),
(240,55,o),
(195,69,o),
(146,100,c),
(65,30,l),
(133,3,o),
(189,-10,o),
(241,-10,cs)
);
},
{
closed = 1;
nodes = (
(160,30,l),
(155,250,l),
(155,760,l),
(65,740,l),
(75,550,l),
(75,270,l),
(65,30,l)
);
}
);
};
layerId = m004;
shapes = (
{
closed = 1;
nodes = (
(375,-10,o),
(492,116,o),
(492,272,cs),
(492,429,o),
(399,520,o),
(313,520,cs),
(283,520,o),
(226,500,o),
(148,430,c),
(148,375,l),
(196,399,o),
(235,411,o),
(266,411,cs),
(341,411,o),
(379,342,o),
(379,212,cs),
(379,145,o),
(350,99,o),
(288,99,cs),
(259,99,o),
(225,103,o),
(141,151,c),
(65,30,l),
(133,3,o),
(189,-10,o),
(241,-10,cs)
);
},
{
closed = 1;
nodes = (
(190,30,l),
(185,250,l),
(185,760,l),
(55,730,l),
(75,550,l),
(75,270,l),
(65,30,l)
);
}
);
width = 542;
},
{
anchors = (
{
name = bottom;
pos = (236,0);
},
{
name = center;
pos = (271,250);
},
{
name = top;
pos = (306,500);
}
);
background = {
shapes = (
{
closed = 1;
nodes = (
(375,-10,o),
(492,116,o),
(492,272,cs),
(492,429,o),
(399,520,o),
(313,520,cs),
(283,520,o),
(226,500,o),
(148,450,c),
(148,400,l),
(192,426,o),
(233,445,o),
(270,445,cs),
(353,445,o),
(409,372,o),
(409,214,cs),
(409,140,o),
(359,55,o),
(278,55,cs),
(240,55,o),
(195,69,o),
(146,100,c),
(65,30,l),
(133,3,o),
(189,-10,o),
(241,-10,cs)
);
},
{
closed = 1;
nodes = (
(160,30,l),
(155,250,l),
(155,760,l),
(65,740,l),
(75,550,l),
(75,270,l),
(65,30,l)
);
}
);
};
layerId = m005;
shapes = (
{
closed = 1;
nodes = (
(338,-10,o),
(473,116,o),
(495,272,cs),
(517,429,o),
(437,520,o),
(351,520,cs),
(321,520,o),
(261,500,o),
(173,430,c),
(166,375,l),
(217,399,o),
(258,411,o),
(289,411,cs),
(364,411,o),
(392,342,o),
(374,212,cs),
(364,145,o),
(329,99,o),
(267,99,cs),
(238,99,o),
(204,103,o),
(127,151,c),
(34,30,l),
(98,3,o),
(152,-10,o),
(204,-10,cs)
);
},
{
closed = 1;
nodes = (
(159,30,l),
(185,250,l),
(257,760,l),
(122,730,l),
(117,550,l),
(78,270,l),
(34,30,l)
);
}
);
width = 542;
},
{
anchors = (
{
name = bottom;
pos = (271,0);
},
{
name = center;
pos = (271,250);
},
{
name = top;
pos = (271,500);
}
);
layerId = "7BE518C1-5919-420B-B6AE-125B8031F769";
shapes = (
{
closed = 1;
nodes = (
(375,-10,o),
(492,116,o),
(492,272,cs),
(492,429,o),
(399,520,o),
(313,520,cs),
(283,520,o),
(226,500,o),
(148,480,c),
(148,438,l),
(186,467,o),
(230,496,o),
(276,496,cs),
(371,496,o),
(454,417,o),
(454,217,cs),
(454,133,o),
(373,-11,o),
(263,-11,cs),
(212,-11,o),
(150,18,o),
(154,24,c),
(65,30,l),
(133,3,o),
(189,-10,o),
(241,-10,cs)
);
},
{
closed = 1;
nodes = (
(115,30,l),
(110,250,l),
(110,760,l),
(80,755,l),
(75,550,l),
(75,270,l),
(65,30,l)
);
}
);
width = 542;
}
);
unicode = 98;
changeCount = 2;
},
{
glyphname = c;
lastChange = "2024-11-15 10:07:07 +0000";
layers = (
{
anchors = (
{
name = bottom;
pos = (241,5);
},
{
name = top;
pos = (246,490);
}
);
background = {
anchors = (
{
name = bottom;
pos = (216,0);
},
{
name = top;
pos = (216,500);
}
);
shapes = (
{
closed = 1;
nodes = (
(121,116,o),
(121,261,cs),
(121,457,o),
(258,448,o),
(379,410,c),
(391,494,l),
(357,505,o),
(322,510,o),
(289,510,cs),
(155,510,o),
(38,389,o),
(38,233,cs),
(38,100,o),
(108,-10,o),
(227,-10,cs),
(277,-10,o),
(324,10,o),
(412,70,c),
(392,110,l),
(216,15,o)
);
}
);
};
layerId = m002;
shapes = (
{
closed = 1;
nodes = (
(121,116,o),
(121,261,cs),
(121,457,o),
(258,448,o),
(379,410,c),
(391,494,l),
(357,505,o),
(322,510,o),
(289,510,cs),
(155,510,o),
(38,389,o),
(38,233,cs),
(38,100,o),
(108,-10,o),
(227,-10,cs),
(277,-10,o),
(324,10,o),
(412,70,c),
(392,110,l),
(216,15,o)
);
}
);
width = 432;
},
{
anchors = (
{
name = bottom;
pos = (181,0);
},
{
name = top;
pos = (301,500);
}
);
background = {
shapes = (
{
closed = 1;
nodes = (
(205,15,o),
(102,101,o),
(124,256,cs),
(146,413,o),
(217,449,o),
(270,449,cs),
(316,449,o),
(360,407,o),
(351,328,c),
(433,328,l),
(447,456,o),
(372,515,o),
(300,515,cs),
(199,515,o),
(63,414,o),
(40,251,cs),
(21,118,o),
(83,-10,o),
(202,-10,cs),
(252,-10,o),
(312,10,o),
(409,70,c),
(394,110,l)
);
},
{
closed = 1;
nodes = (
(94,288,l),
(427,288,l),
(433,328,l),
(382,343,l),
(101,333,l)
);
}
);
};
layerId = m003;
shapes = (
{
closed = 1;
nodes = (
(102,116,o),
(123,261,cs),
(150,457,o),
(286,448,o),
(401,410,c),
(425,494,l),
(393,505,o),
(359,510,o),
(326,510,cs),
(192,510,o),
(58,389,o),
(36,233,cs),
(17,100,o),
(101,-10,o),
(190,-10,cs),
(240,-10,o),
(290,10,o),
(390,70,c),
(372,110,l),
(183,5,o)
);
}
);
width = 432;
},
{
anchors = (
{
name = bottom;
pos = (216,0);
},
{
name = top;
pos = (246,500);
}
);
background = {
anchors = (
{
name = bottom;
pos = (216,0);
},
{
name = top;
pos = (216,500);
}
);
shapes = (
{
closed = 1;
nodes = (
(121,116,o),
(121,261,cs),
(121,457,o),
(258,448,o),
(379,410,c),
(391,494,l),
(357,505,o),
(322,510,o),
(289,510,cs),
(155,510,o),
(38,389,o),
(38,233,cs),
(38,100,o),
(108,-10,o),
(227,-10,cs),
(277,-10,o),
(324,10,o),
(412,70,c),
(392,110,l),
(216,15,o)
);
}
);
};
layerId = m004;
shapes = (
{
closed = 1;
nodes = (
(151,146,o),
(151,261,cs),
(151,427,o),
(258,418,o),
(379,380,c),
(391,494,l),
(357,505,o),
(322,510,o),
(289,510,cs),
(155,510,o),
(38,389,o),
(38,233,cs),
(38,100,o),
(108,-10,o),
(227,-10,cs),
(277,-10,o),
(324,10,o),
(412,70,c),
(392,140,l),
(216,45,o)
);
}
);
width = 432;
},
{
anchors = (
{
name = bottom;
pos = (181,0);
},
{
name = top;
pos = (321,500);
}
);
background = {
anchors = (
{
name = bottom;
pos = (216,0);
},
{
name = top;
pos = (216,500);
}
);
shapes = (
{
closed = 1;
nodes = (
(121,116,o),
(121,261,cs),
(121,457,o),
(258,448,o),
(379,410,c),
(391,494,l),
(357,505,o),
(322,510,o),
(289,510,cs),
(155,510,o),
(38,389,o),
(38,233,cs),
(38,100,o),
(108,-10,o),
(227,-10,cs),
(277,-10,o),
(324,10,o),
(412,70,c),
(392,110,l),
(216,15,o)
);
}
);
};
layerId = m005;
shapes = (
{
closed = 1;
nodes = (
(136,146,o),
(153,261,cs),
(176,427,o),
(282,418,o),
(397,380,c),
(425,494,l),
(393,505,o),
(359,510,o),
(326,510,cs),
(192,510,o),
(58,389,o),
(36,233,cs),
(17,100,o),
(71,-10,o),
(190,-10,cs),
(240,-10,o),
(290,10,o),
(387,70,c),
(377,140,l),
(187,45,o)
);
}
);
width = 432;
},
{
anchors = (
{
name = bottom;
pos = (279,13);
},
{
name = top;
pos = (246,475);
}
);
layerId = "7BE518C1-5919-420B-B6AE-125B8031F769";
shapes = (
{
closed = 1;
nodes = (
(76,71,o),
(76,261,cs),
(76,502,o),
(258,493,o),
(379,455,c),
(391,494,l),
(357,505,o),
(322,510,o),
(289,510,cs),
(155,510,o),
(38,389,o),
(38,233,cs),
(38,100,o),
(108,-10,o),
(227,-10,cs),
(277,-10,o),
(324,10,o),
(412,70,c),
(392,65,l),
(216,-30,o)
);
}
);
width = 432;
}
);
unicode = 99;
changeCount = 2;
},
{
glyphname = d;
lastChange = "2024-11-15 10:07:07 +0000";
layers = (
{
anchors = (
{
name = bottom;
pos = (268,0);
},
{
name = center;
pos = (268,250);
},
{
name = top;
pos = (268,750);
},
{
name = topright;
pos = (485,750);
}
);
background = {
anchors = (
{
name = bottom;
pos = (268,0);
},
{
name = center;
pos = (268,250);
},
{
name = top;
pos = (268,750);
},
{
name = topright;
pos = (485,750);
}
);
shapes = (
{
closed = 1;
nodes = (
(259,-20,o),
(316,0,o),
(394,70,c),
(394,120,l),
(350,74,o),
(309,55,o),
(272,55,cs),
(199,55,o),
(133,148,o),
(133,256,cs),
(133,380,o),
(183,450,o),
(264,450,cs),
(302,450,o),
(347,436,o),
(396,415,c),
(457,475,l),
(409,492,o),
(353,515,o),
(301,515,cs),
(167,515,o),
(50,404,o),
(50,248,cs),
(50,91,o),
(143,-20,o),
(229,-20,cs)
);
},
{
closed = 1;
nodes = (
(470,10,l),
(460,200,l),
(460,760,l),
(370,740,l),
(390,450,l),
(380,-10,l)
);
}
);
};
layerId = m002;
shapes = (
{
closed = 1;
nodes = (
(259,-20,o),
(316,0,o),
(394,70,c),
(394,120,l),
(350,74,o),
(309,55,o),
(272,55,cs),
(199,55,o),
(133,148,o),
(133,256,cs),
(133,380,o),
(183,450,o),
(264,450,cs),
(302,450,o),
(347,436,o),
(396,415,c),
(457,475,l),
(409,492,o),
(353,515,o),
(301,515,cs),
(167,515,o),
(50,404,o),
(50,248,cs),
(50,91,o),
(143,-20,o),
(229,-20,cs)
);
},
{
closed = 1;
nodes = (
(470,10,l),
(460,200,l),
(460,760,l),
(370,740,l),
(390,450,l),
(382,87,l),
(380,-10,l)
);
}
);
width = 535;
},
{
anchors = (
{
name = bottom;
pos = (233,0);
},
{
name = center;
pos = (268,250);
},
{
name = top;
pos = (338,750);
},
{
name = topright;
pos = (525,750);
}
);
background = {
shapes = (
{
closed = 1;
nodes = (
(221,-20,o),
(281,0,o),
(369,70,c),
(376,120,l),
(325,74,o),
(282,55,o),
(245,55,cs),
(172,55,o),
(119,148,o),
(134,256,cs),
(151,380,o),
(211,450,o),
(292,450,cs),
(330,450,o),
(373,436,o),
(419,415,c),
(489,475,l),
(443,492,o),
(390,515,o),
(338,515,cs),
(204,515,o),
(72,404,o),
(50,248,cs),
(28,91,o),
(105,-20,o),
(191,-20,cs)
);
},
{
closed = 1;
nodes = (
(436,10,l),
(453,200,l),
(532,760,l),
(439,740,l),
(418,450,l),
(343,-10,l)
);
}
);
};
layerId = m003;
shapes = (
{
closed = 1;
nodes = (
(221,-20,o),
(281,-5,o),
(379,79,c),
(386,140,l),
(325,84,o),
(272,51,o),
(235,51,cs),
(152,51,o),
(119,148,o),
(134,256,cs),
(151,380,o),
(211,450,o),
(292,450,cs),
(330,450,o),
(373,436,o),
(419,415,c),
(489,475,l),
(443,492,o),
(390,515,o),
(338,515,cs),
(204,515,o),
(71,404,o),
(50,248,cs),
(28,81,o),
(105,-20,o),
(181,-20,cs)
);
},
{
closed = 1;
nodes = (
(446,10,l),
(453,200,l),
(532,760,l),
(439,740,l),
(418,450,l),
(358,81,l),
(353,-10,l)
);
}
);
width = 535;
},
{
anchors = (
{
name = bottom;
pos = (268,0);
},
{
name = center;
pos = (268,250);
},
{
name = top;
pos = (268,750);
},
{
name = topright;
pos = (465,750);
}
);
background = {
anchors = (
{
name = bottom;
pos = (268,0);
},
{
name = center;
pos = (268,250);
},
{
name = top;
pos = (268,750);
},
{
name = topright;
pos = (485,750);
}
);
shapes = (
{
closed = 1;
nodes = (
(259,-20,o),
(316,0,o),
(394,70,c),
(394,120,l),
(350,74,o),
(309,55,o),
(272,55,cs),
(199,55,o),
(133,148,o),
(133,256,cs),
(133,380,o),
(183,450,o),
(264,450,cs),
(302,450,o),
(347,436,o),
(396,415,c),
(457,475,l),
(409,492,o),
(353,515,o),
(301,515,cs),
(167,515,o),
(50,404,o),
(50,248,cs),
(50,91,o),
(143,-20,o),
(229,-20,cs)
);
},
{
closed = 1;
nodes = (
(470,10,l),
(460,200,l),
(460,760,l),
(370,740,l),
(390,450,l),
(380,-10,l)
);
}
);
};
layerId = m004;
shapes = (
{
closed = 1;
nodes = (
(259,-20,o),
(316,10,o),
(394,80,c),
(364,120,l),
(330,99,o),
(299,90,o),
(270,90,cs),
(214,90,o),
(163,172,o),
(163,255,cs),
(163,351,o),
(202,405,o),
(264,405,cs),
(293,405,o),
(328,394,o),
(366,378,c),
(457,475,l),
(409,492,o),
(353,515,o),
(301,515,cs),
(167,515,o),
(50,404,o),
(50,248,cs),
(50,91,o),
(143,-20,o),
(209,-20,cs)
);
},
{
closed = 1;
nodes = (
(480,10,l),
(460,200,l),
(460,760,l),
(330,730,l),
(360,450,l),
(352,87,l),
(350,-20,l)
);
}
);
width = 535;
},
{
anchors = (
{
name = bottom;
pos = (233,0);
},
{
name = center;
pos = (268,250);
},
{
name = top;
pos = (338,750);
},
{
name = topright;
pos = (535,750);
}
);
background = {
anchors = (
{
name = bottom;
pos = (268,0);
},
{
name = center;
pos = (268,250);
},
{
name = top;
pos = (268,750);
},
{
name = topright;
pos = (485,750);
}
);
shapes = (
{
closed = 1;
nodes = (
(259,-20,o),
(316,0,o),
(394,70,c),
(394,120,l),
(350,74,o),
(309,55,o),
(272,55,cs),
(199,55,o),
(133,148,o),
(133,256,cs),
(133,380,o),
(183,450,o),
(264,450,cs),
(302,450,o),
(347,436,o),
(396,415,c),
(457,475,l),
(409,492,o),
(353,515,o),
(301,515,cs),
(167,515,o),
(50,404,o),
(50,248,cs),
(50,91,o),
(143,-20,o),
(229,-20,cs)
);
},
{
closed = 1;
nodes = (
(470,10,l),
(460,200,l),
(460,760,l),
(370,740,l),
(390,450,l),
(380,-10,l)
);
}
);
};
layerId = m005;
shapes = (
{
closed = 1;
nodes = (
(221,-20,o),
(282,10,o),
(370,80,c),
(346,120,l),
(309,99,o),
(277,90,o),
(248,90,cs),
(192,90,o),
(152,172,o),
(164,255,cs),
(177,351,o),
(224,405,o),
(286,405,cs),
(315,405,o),
(348,394,o),
(384,378,c),
(489,475,l),
(443,492,o),
(390,515,o),
(338,515,cs),
(204,515,o),
(72,404,o),
(50,248,cs),
(28,91,o),
(105,-20,o),
(171,-20,cs)
);
},
{
closed = 1;
nodes = (
(446,10,l),
(453,200,l),
(532,760,l),
(397,730,l),
(388,450,l),
(329,87,l),
(312,-20,l)
);
}
);
width = 535;
},
{
anchors = (
{
name = bottom;
pos = (268,0);
},
{
name = center;
pos = (268,250);
},
{
name = top;
pos = (268,750);
},
{
name = topright;
pos = (515,750);
}
);
layerId = "7BE518C1-5919-420B-B6AE-125B8031F769";
shapes = (
{
closed = 1;
nodes = (
(259,-20,o),
(316,-15,o),
(394,55,c),
(439,120,l),
(380,37,o),
(324,3,o),
(275,3,cs),
(177,3,o),
(88,112,o),
(88,258,cs),
(88,424,o),
(155,518,o),
(264,518,cs),
(316,518,o),
(376,499,o),
(441,471,c),
(457,475,l),
(409,492,o),
(353,515,o),
(301,515,cs),
(167,515,o),
(50,404,o),
(50,248,cs),
(50,91,o),
(143,-20,o),
(259,-20,cs)
);
},
{
closed = 1;
nodes = (
(455,10,l),
(460,200,l),
(460,760,l),
(430,755,l),
(435,450,l),
(427,87,l),
(425,5,l)
);
}
);
width = 535;
}
);
unicode = 100;
changeCount = 2;
},
{
glyphname = eth;
lastChange = "2024-11-15 10:07:07 +0000";
layers = (
{
anchors = (
{
name = bottom;
pos = (267,0);
},
{
name = top;
pos = (267,750);
}
);
layerId = m002;
shapes = (
{
closed = 1;
nodes = (
(394,-20,o),
(492,127,o),
(494,255,cs),
(498,470,o),
(328,640,o),
(129,760,c),
(103,730,l),
(269,603,o),
(407,441,o),
(404,235,cs),
(402,123,o),
(376,55,o),
(269,55,cs),
(176,55,o),
(131,148,o),
(133,256,cs),
(135,380,o),
(186,450,o),
(267,450,cs),
(305,450,o),
(350,436,o),
(399,415,c),
(391,475,l),
(257,593,o),
(53,430,o),
(50,248,cs),
(47,91,o),
(118,-20,o),
(244,-20,cs)
);
},
{
closed = 1;
nodes = (
(329,760,l),
(104,591,l),
(130,555,l),
(355,724,l)
);
}
);
width = 534;
},
{
anchors = (
{
name = bottom;
pos = (232,0);
},
{
name = top;
pos = (337,750);
}
);
layerId = m003;
shapes = (
{
closed = 1;
nodes = (
(356,-20,o),
(475,127,o),
(495,255,cs),
(529,470,o),
(383,640,o),
(201,760,c),
(170,730,l),
(319,603,o),
(434,441,o),
(402,235,cs),
(384,123,o),
(349,55,o),
(242,55,cs),
(149,55,o),
(117,148,o),
(134,256,cs),
(153,380,o),
(214,450,o),
(295,450,cs),
(333,450,o),
(376,436,o),
(422,415,c),
(423,475,l),
(305,593,o),
(78,430,o),
(50,248,cs),
(25,91,o),
(80,-20,o),
(206,-20,cs)
);
},
{
closed = 1;
nodes = (
(401,760,l),
(152,591,l),
(173,555,l),
(422,724,l)
);
}
);
width = 534;
},
{
anchors = (
{
name = bottom;
pos = (267,0);
},
{
name = top;
pos = (267,750);
}
);
background = {
shapes = (
{
closed = 1;
nodes = (
(394,-20,o),
(492,127,o),
(494,255,cs),
(498,470,o),
(328,640,o),
(129,760,c),
(103,730,l),
(269,603,o),
(407,441,o),
(404,235,cs),
(402,123,o),
(376,55,o),
(269,55,cs),
(176,55,o),
(131,148,o),
(133,256,cs),
(135,380,o),
(186,450,o),
(267,450,cs),
(305,450,o),
(350,436,o),
(399,415,c),
(391,475,l),
(257,593,o),
(53,430,o),
(50,248,cs),
(47,91,o),
(118,-20,o),
(244,-20,cs)
);
},
{
closed = 1;
nodes = (
(329,760,l),
(104,591,l),
(130,555,l),
(355,724,l)
);
}
);
};
layerId = m004;
shapes = (
{
closed = 1;
nodes = (
(394,-20,o),
(492,127,o),
(494,255,cs),
(498,470,o),
(328,640,o),
(129,760,c),
(93,710,l),
(259,583,o),
(368,411,o),
(364,235,cs),
(362,153,o),
(346,85,o),
(269,85,cs),
(206,85,o),
(171,178,o),
(173,256,cs),
(175,350,o),
(196,420,o),
(267,420,cs),
(305,420,o),
(350,406,o),
(399,385,c),
(391,475,l),
(257,593,o),
(53,430,o),
(50,248,cs),
(47,91,o),
(118,-20,o),
(244,-20,cs)
);
},
{
closed = 1;
nodes = (
(329,760,l),
(84,571,l),
(120,525,l),
(365,714,l)
);
}
);
width = 534;
},
{
anchors = (
{
name = bottom;
pos = (267,0);
},
{
name = top;
pos = (267,750);
}
);
background = {
shapes = (
{
closed = 1;
nodes = (
(394,-20,o),
(492,127,o),
(494,255,cs),
(498,470,o),
(328,640,o),
(129,760,c),
(103,730,l),
(269,603,o),
(407,441,o),
(404,235,cs),
(402,123,o),
(376,55,o),
(269,55,cs),
(176,55,o),
(131,148,o),
(133,256,cs),
(135,380,o),
(186,450,o),
(267,450,cs),
(305,450,o),
(350,436,o),
(399,415,c),
(391,475,l),
(257,593,o),
(53,430,o),
(50,248,cs),
(47,91,o),
(118,-20,o),
(244,-20,cs)
);
},
{
closed = 1;
nodes = (
(329,760,l),
(104,591,l),
(130,555,l),
(355,724,l)
);
}
);
};
layerId = m005;
shapes = (
{
closed = 1;
nodes = (
(356,-20,o),
(475,127,o),
(495,255,cs),
(529,470,o),
(383,640,o),
(201,760,c),
(158,710,l),
(306,583,o),
(391,411,o),
(362,235,cs),
(348,153,o),
(323,85,o),
(246,85,cs),
(183,85,o),
(161,178,o),
(174,256,cs),
(189,350,o),
(220,420,o),
(291,420,cs),
(329,420,o),
(372,406,o),
(418,385,c),
(423,475,l),
(305,593,o),
(78,430,o),
(50,248,cs),
(25,91,o),
(80,-20,o),
(206,-20,cs)
);
},
{
closed = 1;
nodes = (
(401,760,l),
(129,571,l),
(159,525,l),
(430,714,l)
);
}
);
width = 534;
},
{
anchors = (
{
name = bottom;
pos = (267,0);
},
{
name = top;
pos = (267,750);
}
);
layerId = "7BE518C1-5919-420B-B6AE-125B8031F769";
shapes = (
{
closed = 1;
nodes = (
(394,-20,o),
(492,127,o),
(494,255,cs),
(498,470,o),
(328,640,o),
(129,760,c),
(118,760,l),
(284,633,o),
(466,486,o),
(464,235,cs),
(462,78,o),
(421,10,o),
(269,10,cs),
(131,10,o),
(71,103,o),
(73,256,cs),
(75,425,o),
(171,495,o),
(267,495,cs),
(305,495,o),
(350,481,o),
(399,460,c),
(391,475,l),
(257,593,o),
(53,430,o),
(50,248,cs),
(47,91,o),
(118,-20,o),
(244,-20,cs)
);
},
{
closed = 1;
nodes = (
(329,760,l),
(134,621,l),
(145,600,l),
(340,739,l)
);
}
);
width = 534;
}
);
unicode = 240;
changeCount = 2;
},
{
glyphname = dcroat;
lastChange = "2024-11-15 10:07:07 +0000";
layers = (
{
layerId = m002;
shapes = (
{
ref = d;
},
{
closed = 1;
nodes = (
(386,590,l),
(456,590,l),
(536,585,l),
(536,655,l),
(456,650,l),
(386,650,l),
(286,655,l),
(286,585,l)
);
}
);
width = 535;
},
{
layerId = m003;
shapes = (
{
ref = d;
},
{
closed = 1;
nodes = (
(436,590,l),
(506,590,l),
(586,585,l),
(586,655,l),
(506,650,l),
(436,650,l),
(336,655,l),
(336,585,l)
);
}
);
width = 535;
},
{
layerId = m004;
shapes = (
{
ref = d;
},
{
closed = 1;
nodes = (
(366,580,l),
(436,580,l),
(536,575,l),
(536,675,l),
(436,670,l),
(366,670,l),
(246,675,l),
(246,575,l)
);
}
);
width = 535;
},
{
layerId = m005;
shapes = (
{
ref = d;
},
{
closed = 1;
nodes = (
(396,590,l),
(466,590,l),
(596,585,l),
(611,685,l),
(481,680,l),
(411,680,l),
(301,685,l),
(286,585,l)
);
}
);
width = 535;
},
{
layerId = "7BE518C1-5919-420B-B6AE-125B8031F769";
shapes = (
{
alignment = -1;
ref = d;
},
{
closed = 1;
nodes = (
(416,605,l),
(486,605,l),
(536,600,l),
(536,625,l),
(486,620,l),
(416,620,l),
(346,625,l),
(346,600,l)
);
}
);
width = 535;
}
);
unicode = 273;
changeCount = 2;
},
{
glyphname = e;
lastChange = "2024-11-15 10:07:07 +0000";
layers = (
{
anchors = (
{
name = bottom;
pos = (237,0);
},
{
name = ogonek;
pos = (434,70);
},
{
name = top;
pos = (257,500);
}
);
background = {
anchors = (
{
name = bottom;
pos = (237,0);
},
{
name = ogonek;
pos = (434,70);
},
{
name = top;
pos = (237,500);
}
);
shapes = (
{
closed = 1;
nodes = (
(238,15,o),
(123,101,o),
(123,256,cs),
(123,413,o),
(189,449,o),
(242,449,cs),
(288,449,o),
(338,407,o),
(340,328,c),
(422,328,l),
(418,456,o),
(334,520,o),
(262,520,cs),
(161,520,o),
(40,414,o),
(40,231,cs),
(40,118,o),
(120,-10,o),
(239,-10,cs),
(289,-10,o),
(346,10,o),
(434,70,c),
(414,110,l)
);
},
{
closed = 1;
nodes = (
(89,288,l),
(422,288,l),
(422,328,l),
(369,343,l),
(89,333,l)
);
}
);
};
layerId = m002;
shapes = (
{
closed = 1;
nodes = (
(238,15,o),
(123,101,o),
(123,256,cs),
(123,413,o),
(189,449,o),
(242,449,cs),
(288,449,o),
(338,407,o),
(340,328,c),
(422,328,l),
(418,456,o),
(334,520,o),
(262,520,cs),
(161,520,o),
(40,414,o),
(40,231,cs),
(40,118,o),
(120,-10,o),
(239,-10,cs),
(289,-10,o),
(346,10,o),
(434,70,c),
(414,110,l)
);
},
{
closed = 1;
nodes = (
(89,288,l),
(422,288,l),
(422,328,l),
(369,343,l),
(89,333,l)
);
}
);
width = 474;
},
{
anchors = (
{
name = bottom;
pos = (202,0);
},
{
name = ogonek;
pos = (409,70);
},
{
name = top;
pos = (272,500);
}
);
background = {
shapes = (
{
closed = 1;
nodes = (
(205,15,o),
(102,101,o),
(124,256,cs),
(146,413,o),
(217,449,o),
(250,449,cs),
(316,449,o),
(360,407,o),
(351,328,c),
(433,328,l),
(447,456,o),
(372,515,o),
(280,515,cs),
(199,515,o),
(63,414,o),
(40,251,cs),
(21,118,o),
(83,-10,o),
(202,-10,cs),
(252,-10,o),
(312,10,o),
(409,70,c),
(394,110,l)
);
},
{
closed = 1;
nodes = (
(94,288,l),
(427,288,l),
(433,328,l),
(382,343,l),
(101,333,l)
);
}
);
};
layerId = m003;
shapes = (
{
closed = 1;
nodes = (
(205,15,o),
(102,101,o),
(124,256,cs),
(146,413,o),
(207,449,o),
(260,449,cs),
(306,449,o),
(360,407,o),
(351,328,c),
(433,328,l),
(447,456,o),
(357,515,o),
(285,515,cs),
(184,515,o),
(63,414,o),
(40,251,cs),
(21,118,o),
(83,-10,o),
(202,-10,cs),
(252,-10,o),
(312,10,o),
(409,70,c),
(394,110,l)
);
},
{
closed = 1;
nodes = (
(94,288,l),
(427,288,l),
(433,328,l),
(382,343,l),
(101,333,l)
);
}
);
width = 474;
},
{
anchors = (
{
name = bottom;
pos = (242,0);
},
{
name = ogonek;
pos = (444,80);
},
{
name = top;
pos = (257,510);
}
);
background = {
anchors = (
{
name = bottom;
pos = (237,0);
},
{
name = ogonek;
pos = (434,70);
},
{
name = top;
pos = (237,500);
}
);
shapes = (
{
closed = 1;
nodes = (
(238,15,o),
(123,101,o),
(123,256,cs),
(123,413,o),
(189,449,o),
(242,449,cs),
(288,449,o),
(338,407,o),
(340,328,c),
(422,328,l),
(418,456,o),
(334,520,o),
(262,520,cs),
(161,520,o),
(40,414,o),
(40,231,cs),
(40,118,o),
(120,-10,o),
(239,-10,cs),
(289,-10,o),
(346,10,o),
(434,70,c),
(414,110,l)
);
},
{
closed = 1;
nodes = (
(89,288,l),
(422,288,l),
(422,328,l),
(369,343,l),
(89,333,l)
);
}
);
};
layerId = m004;
shapes = (
{
closed = 1;
nodes = (
(268,45,o),
(153,101,o),
(153,256,cs),
(153,371,o),
(171,432,o),
(238,432,cs),
(282,432,o),
(310,399,o),
(310,328,c),
(432,328,l),
(428,456,o),
(334,520,o),
(262,520,cs),
(161,520,o),
(40,414,o),
(40,231,cs),
(40,118,o),
(100,-10,o),
(239,-10,cs),
(289,-10,o),
(346,10,o),
(444,80,c),
(414,140,l)
);
},
{
closed = 1;
nodes = (
(89,268,l),
(432,268,l),
(432,328,l),
(369,353,l),
(89,333,l)
);
}
);
width = 484;
},
{
anchors = (
{
name = bottom;
pos = (207,0);
},
{
name = ogonek;
pos = (420,80);
},
{
name = top;
pos = (294,510);
}
);
background = {
anchors = (
{
name = bottom;
pos = (237,0);
},
{
name = ogonek;
pos = (434,70);
},
{
name = top;
pos = (237,500);
}
);
shapes = (
{
closed = 1;
nodes = (
(238,15,o),
(123,101,o),
(123,256,cs),
(123,413,o),
(189,449,o),
(242,449,cs),
(288,449,o),
(338,407,o),
(340,328,c),
(422,328,l),
(418,456,o),
(334,520,o),
(262,520,cs),
(161,520,o),
(40,414,o),
(40,231,cs),
(40,118,o),
(120,-10,o),
(239,-10,cs),
(289,-10,o),
(346,10,o),
(434,70,c),
(414,110,l)
);
},
{
closed = 1;
nodes = (
(89,288,l),
(422,288,l),
(422,328,l),
(369,343,l),
(89,333,l)
);
}
);
};
layerId = m005;
shapes = (
{
closed = 1;
nodes = (
(239,45,o),
(132,101,o),
(154,256,cs),
(170,371,o),
(197,432,o),
(264,432,cs),
(308,432,o),
(331,399,o),
(321,328,c),
(443,328,l),
(457,456,o),
(372,520,o),
(300,520,cs),
(199,520,o),
(63,414,o),
(37,231,cs),
(21,118,o),
(63,-10,o),
(202,-10,cs),
(252,-10,o),
(312,10,o),
(420,80,c),
(399,140,l)
);
},
{
closed = 1;
nodes = (
(92,268,l),
(435,268,l),
(443,328,l),
(383,353,l),
(101,333,l)
);
}
);
width = 484;
},
{
anchors = (
{
name = bottom;
pos = (230,0);
},
{
name = ogonek;
pos = (419,55);
},
{
name = top;
pos = (257,485);
}
);
layerId = "7BE518C1-5919-420B-B6AE-125B8031F769";
shapes = (
{
closed = 1;
nodes = (
(193,-30,o),
(78,101,o),
(78,256,cs),
(78,476,o),
(216,475,o),
(248,475,cs),
(297,475,o),
(380,419,o),
(385,328,c),
(407,328,l),
(403,456,o),
(334,520,o),
(262,520,cs),
(161,520,o),
(40,414,o),
(40,231,cs),
(40,118,o),
(150,-10,o),
(239,-10,cs),
(289,-10,o),
(346,10,o),
(419,55,c),
(414,65,l)
);
},
{
closed = 1;
nodes = (
(89,318,l),
(407,318,l),
(407,328,l),
(369,328,l),
(89,333,l)
);
}
);
width = 459;
}
);
unicode = 101;
changeCount = 2;
},
{
glyphname = f;
lastChange = "2024-11-15 10:07:07 +0000";
layers = (
{
anchors = (
{
name = bottom;
pos = (163,0);
},
{
name = top;
pos = (163,750);
}
);
background = {
anchors = (
{
name = bottom;
pos = (163,0);
},
{
name = top;
pos = (163,750);
}
);
shapes = (
{
closed = 1;
nodes = (
(174,659,o),
(203,687,o),
(324,668,c),
(325,758,l),
(207,782,o),
(97,665,o),
(101,546,cs),
(110,240,l),
(110,0,l),
(200,0,l),
(185,340,l),
(190,468,l),
(181,573,ls)
);
},
{
closed = 1;
nodes = (
(23,450,l),
(298,450,l),
(303,518,l),
(20,500,l)
);
}
);
};
layerId = m002;
shapes = (
{
closed = 1;
nodes = (
(174,659,o),
(203,687,o),
(324,668,c),
(325,758,l),
(207,782,o),
(97,665,o),
(101,546,cs),
(110,240,l),
(110,0,l),
(200,0,l),
(185,340,l),
(190,468,l),
(181,573,ls)
);
},
{
closed = 1;
nodes = (
(23,450,l),
(298,450,l),
(303,518,l),
(20,500,l)
);
}
);
width = 325;
},
{
anchors = (
{
name = bottom;
pos = (128,0);
},
{
name = top;
pos = (233,750);
}
);
background = {
anchors = (
{
name = bottom;
pos = (163,0);
},
{
name = top;
pos = (163,750);
}
);
shapes = (
{
closed = 1;
nodes = (
(174,659,o),
(203,687,o),
(324,668,c),
(325,758,l),
(207,782,o),
(97,665,o),
(101,546,cs),
(110,240,l),
(110,0,l),
(200,0,l),
(185,340,l),
(190,468,l),
(181,573,ls)
);
},
{
closed = 1;
nodes = (
(23,450,l),
(298,450,l),
(303,518,l),
(20,500,l)
);
}
);
};
layerId = m003;
shapes = (
{
closed = 1;
nodes = (
(231,659,o),
(264,687,o),
(383,668,c),
(396,758,l),
(282,782,o),
(155,665,o),
(143,546,cs),
(109,240,l),
(75,0,l),
(165,0,l),
(198,340,l),
(221,468,l),
(226,573,ls)
);
},
{
closed = 1;
nodes = (
(51,450,l),
(326,450,l),
(341,518,l),
(55,500,l)
);
}
);
width = 325;
},
{
anchors = (
{
name = bottom;
pos = (163,0);
},
{
name = top;
pos = (163,750);
}
);
background = {
shapes = (
{
closed = 1;
nodes = (
(174,659,o),
(203,687,o),
(324,668,c),
(325,758,l),
(207,782,o),
(97,665,o),
(101,546,cs),
(110,240,l),
(110,0,l),
(200,0,l),
(185,340,l),
(190,468,l),
(181,573,ls)
);
},
{
closed = 1;
nodes = (
(23,450,l),
(298,450,l),
(303,518,l),
(20,500,l)
);
}
);
};
layerId = m004;
shapes = (
{
closed = 1;
nodes = (
(204,659,o),
(203,647,o),
(324,628,c),
(325,758,l),
(207,782,o),
(97,665,o),
(101,546,cs),
(110,240,l),
(110,0,l),
(230,0,l),
(215,340,l),
(220,468,l),
(211,573,ls)
);
},
{
closed = 1;
nodes = (
(33,430,l),
(308,430,l),
(313,518,l),
(30,500,l)
);
}
);
width = 325;
},
{
anchors = (
{
name = bottom;
pos = (128,0);
},
{
name = top;
pos = (233,750);
}
);
background = {
shapes = (
{
closed = 1;
nodes = (
(174,659,o),
(203,687,o),
(324,668,c),
(325,758,l),
(207,782,o),
(97,665,o),
(101,546,cs),
(110,240,l),
(110,0,l),
(200,0,l),
(185,340,l),
(190,468,l),
(181,573,ls)
);
},
{
closed = 1;
nodes = (
(23,450,l),
(298,450,l),
(303,518,l),
(20,500,l)
);
}
);
};
layerId = m005;
shapes = (
{
closed = 1;
nodes = (
(261,659,o),
(259,647,o),
(377,628,c),
(396,758,l),
(282,782,o),
(155,665,o),
(143,546,cs),
(109,240,l),
(75,0,l),
(195,0,l),
(228,340,l),
(251,468,l),
(256,573,ls)
);
},
{
closed = 1;
nodes = (
(58,430,l),
(333,430,l),
(351,518,l),
(65,500,l)
);
}
);
width = 325;
},
{
anchors = (
{
name = bottom;
pos = (163,0);
},
{
name = top;
pos = (163,750);
}
);
layerId = "7BE518C1-5919-420B-B6AE-125B8031F769";
shapes = (
{
closed = 1;
nodes = (
(129,659,o),
(203,747,o),
(324,728,c),
(325,758,l),
(207,782,o),
(97,665,o),
(101,546,cs),
(110,240,l),
(110,0,l),
(155,0,l),
(140,340,l),
(145,468,l),
(136,573,ls)
);
},
{
closed = 1;
nodes = (
(8,480,l),
(283,480,l),
(288,518,l),
(5,500,l)
);
}
);
width = 325;
}
);
unicode = 102;
changeCount = 2;
},
{
glyphname = g;
lastChange = "2024-11-15 10:07:07 +0000";
layers = (
{
anchors = (
{
name = bottom;
pos = (257,-300);
},
{
name = top;
pos = (277,500);
}
);
background = {
anchors = (
{
name = bottom;
pos = (257,-300);
},
{
name = top;
pos = (277,500);
}
);
shapes = (
{
closed = 1;
nodes = (
(380,-211,o),
(297,-229,o),
(76,-190,c),
(95,-280,l),
(313,-324,o),
(457,-207,o),
(448,-38,cs),
(440,110,l),
(445,520,l),
(350,500,l),
(365,270,l),
(355,72,l),
(369,-85,ls)
);
},
{
closed = 1;
nodes = (
(123,380,o),
(173,450,o),
(254,450,cs),
(292,450,o),
(337,436,o),
(386,415,c),
(437,475,l),
(399,492,o),
(343,515,o),
(291,515,cs),
(157,515,o),
(40,404,o),
(40,248,cs),
(40,91,o),
(133,-20,o),
(219,-20,cs),
(249,-20,o),
(306,0,o),
(384,50,c),
(384,100,l),
(340,74,o),
(299,55,o),
(262,55,cs),
(189,55,o),
(123,148,o),
(123,256,cs)
);
}
);
};
layerId = m002;
shapes = (
{
closed = 1;
nodes = (
(313,-324,o),
(457,-207,o),
(448,-38,cs),
(440,110,l),
(445,520,l),
(350,500,l),
(365,270,l),
(355,72,l),
(369,-85,ls),
(380,-211,o),
(297,-229,o),
(76,-190,c),
(95,-280,l)
);
},
{
closed = 1;
nodes = (
(249,-20,o),
(306,0,o),
(384,50,c),
(384,100,l),
(340,74,o),
(299,55,o),
(262,55,cs),
(189,55,o),
(123,148,o),
(123,256,cs),
(123,380,o),
(173,450,o),
(254,450,cs),
(292,450,o),
(337,436,o),
(386,415,c),
(437,475,l),
(399,492,o),
(343,515,o),
(291,515,cs),
(157,515,o),
(40,404,o),
(40,248,cs),
(40,91,o),
(133,-20,o),
(219,-20,cs)
);
}
);
width = 513;
},
{
anchors = (
{
name = bottom;
pos = (297,-300);
},
{
name = top;
pos = (319,500);
}
);
background = {
shapes = (
{
closed = 1;
nodes = (
(232,-324,o),
(393,-207,o),
(408,-38,cs),
(420,110,l),
(483,520,l),
(385,500,l),
(368,270,l),
(330,72,l),
(322,-85,ls),
(315,-211,o),
(230,-229,o),
(14,-190,c),
(21,-280,l)
);
},
{
closed = 1;
nodes = (
(211,-20,o),
(271,0,o),
(356,50,c),
(363,100,l),
(315,74,o),
(272,55,o),
(235,55,cs),
(162,55,o),
(109,148,o),
(124,256,cs),
(141,380,o),
(201,450,o),
(282,450,cs),
(320,450,o),
(363,436,o),
(409,415,c),
(469,475,l),
(433,492,o),
(380,515,o),
(328,515,cs),
(194,515,o),
(62,404,o),
(40,248,cs),
(18,91,o),
(95,-20,o),
(181,-20,cs)
);
}
);
};
layerId = m003;
shapes = (
{
closed = 1;
nodes = (
(232,-324,o),
(394,-207,o),
(408,-38,cs),
(420,110,l),
(483,520,l),
(385,500,l),
(368,270,l),
(335,72,l),
(322,-85,ls),
(312,-211,o),
(230,-229,o),
(14,-190,c),
(21,-280,l)
);
},
{
closed = 1;
nodes = (
(211,-20,o),
(271,-5,o),
(369,69,c),
(376,130,l),
(315,74,o),
(262,51,o),
(225,51,cs),
(142,51,o),
(109,148,o),
(124,256,cs),
(141,380,o),
(201,450,o),
(282,450,cs),
(320,450,o),
(363,436,o),
(409,415,c),
(479,475,l),
(433,492,o),
(380,515,o),
(328,515,cs),
(194,515,o),
(61,404,o),
(40,248,cs),
(18,81,o),
(95,-20,o),
(171,-20,cs)
);
}
);
width = 513;
},
{
anchors = (
{
name = bottom;
pos = (257,-300);
},
{
name = top;
pos = (257,500);
}
);
background = {
anchors = (
{
name = bottom;
pos = (257,-300);
},
{
name = top;
pos = (277,500);
}
);
shapes = (
{
closed = 1;
nodes = (
(380,-211,o),
(297,-229,o),
(76,-190,c),
(95,-280,l),
(313,-324,o),
(457,-207,o),
(448,-38,cs),
(440,110,l),
(445,520,l),
(350,500,l),
(365,270,l),
(355,72,l),
(369,-85,ls)
);
},
{
closed = 1;
nodes = (
(123,380,o),
(173,450,o),
(254,450,cs),
(292,450,o),
(337,436,o),
(386,415,c),
(437,475,l),
(399,492,o),
(343,515,o),
(291,515,cs),
(157,515,o),
(40,404,o),
(40,248,cs),
(40,91,o),
(133,-20,o),
(219,-20,cs),
(249,-20,o),
(306,0,o),
(384,50,c),
(384,100,l),
(340,74,o),
(299,55,o),
(262,55,cs),
(189,55,o),
(123,148,o),
(123,256,cs)
);
}
);
};
layerId = m004;
shapes = (
{
closed = 1;
nodes = (
(313,-324,o),
(457,-207,o),
(448,-38,cs),
(440,110,l),
(445,520,l),
(320,490,l),
(335,270,l),
(315,72,l),
(329,-85,ls),
(340,-211,o),
(297,-189,o),
(76,-160,c),
(95,-280,l)
);
},
{
closed = 1;
nodes = (
(249,-20,o),
(306,10,o),
(374,80,c),
(374,120,l),
(320,99,o),
(289,90,o),
(260,90,cs),
(204,90,o),
(153,172,o),
(153,255,cs),
(153,351,o),
(192,405,o),
(254,405,cs),
(283,405,o),
(318,394,o),
(376,368,c),
(437,475,l),
(399,492,o),
(343,515,o),
(291,515,cs),
(157,515,o),
(40,404,o),
(40,248,cs),
(40,91,o),
(133,-20,o),
(199,-20,cs)
);
}
);
width = 513;
},
{
anchors = (
{
name = bottom;
pos = (180,-300);
},
{
name = top;
pos = (352,500);
}
);
background = {
anchors = (
{
name = bottom;
pos = (257,-300);
},
{
name = top;
pos = (277,500);
}
);
shapes = (
{
closed = 1;
nodes = (
(380,-211,o),
(297,-229,o),
(76,-190,c),
(95,-280,l),
(313,-324,o),
(457,-207,o),
(448,-38,cs),
(440,110,l),
(445,520,l),
(350,500,l),
(365,270,l),
(355,72,l),
(369,-85,ls)
);
},
{
closed = 1;
nodes = (
(123,380,o),
(173,450,o),
(254,450,cs),
(292,450,o),
(337,436,o),
(386,415,c),
(437,475,l),
(399,492,o),
(343,515,o),
(291,515,cs),
(157,515,o),
(40,404,o),
(40,248,cs),
(40,91,o),
(133,-20,o),
(219,-20,cs),
(249,-20,o),
(306,0,o),
(384,50,c),
(384,100,l),
(340,74,o),
(299,55,o),
(262,55,cs),
(189,55,o),
(123,148,o),
(123,256,cs)
);
}
);
};
layerId = m005;
shapes = (
{
closed = 1;
nodes = (
(232,-324,o),
(394,-207,o),
(408,-38,cs),
(420,110,l),
(483,520,l),
(354,490,l),
(338,270,l),
(290,72,l),
(282,-85,ls),
(276,-211,o),
(235,-189,o),
(18,-160,c),
(21,-280,l)
);
},
{
closed = 1;
nodes = (
(211,-20,o),
(272,10,o),
(350,80,c),
(356,120,l),
(299,99,o),
(267,90,o),
(238,90,cs),
(182,90,o),
(142,172,o),
(154,255,cs),
(167,351,o),
(214,405,o),
(276,405,cs),
(305,405,o),
(338,394,o),
(393,368,c),
(469,475,l),
(433,492,o),
(380,515,o),
(328,515,cs),
(194,515,o),
(62,404,o),
(40,248,cs),
(18,91,o),
(95,-20,o),
(161,-20,cs)
);
}
);
width = 513;
},
{
anchors = (
{
name = bottom;
pos = (257,-300);
},
{
name = top;
pos = (307,500);
}
);
layerId = "7BE518C1-5919-420B-B6AE-125B8031F769";
shapes = (
{
closed = 1;
nodes = (
(313,-324,o),
(457,-207,o),
(448,-38,cs),
(440,110,l),
(445,520,l),
(395,515,l),
(410,270,l),
(415,72,l),
(429,-85,ls),
(440,-211,o),
(297,-289,o),
(76,-235,c),
(95,-280,l)
);
},
{
closed = 1;
nodes = (
(249,-20,o),
(306,-15,o),
(399,5,c),
(399,70,l),
(370,37,o),
(314,3,o),
(265,3,cs),
(167,3,o),
(78,112,o),
(78,258,cs),
(78,424,o),
(145,518,o),
(254,518,cs),
(306,518,o),
(366,499,o),
(401,486,c),
(437,475,l),
(399,492,o),
(343,515,o),
(291,515,cs),
(157,515,o),
(40,404,o),
(40,248,cs),
(40,91,o),
(133,-20,o),
(249,-20,cs)
);
}
);
width = 513;
}
);
unicode = 103;
changeCount = 2;
},
{
glyphname = h;
lastChange = "2024-11-15 10:07:07 +0000";
layers = (
{
anchors = (
{
name = bottom;
pos = (265,0);
},
{
name = center;
pos = (265,375);
},
{
name = top;
pos = (265,750);
}
);
background = {
anchors = (
{
name = bottom;
pos = (265,0);
},
{
name = center;
pos = (265,375);
},
{
name = top;
pos = (265,750);
}
);
shapes = (
{
closed = 1;
nodes = (
(75,550,l),
(75,0,l),
(160,0,l),
(155,250,l),
(155,760,l),
(65,740,l)
);
},
{
closed = 1;
nodes = (
(380,0,l),
(470,0,l),
(460,265,l),
(465,340,ls),
(471,427,o),
(427,520,o),
(320,520,cs),
(270,520,o),
(193,470,o),
(155,440,c),
(155,380,l),
(175,406,o),
(232,449,o),
(284,449,cs),
(349,449,o),
(386,387,o),
(385,320,cs)
);
}
);
};
layerId = m002;
shapes = (
{
closed = 1;
nodes = (
(75,550,l),
(75,0,l),
(160,0,l),
(155,250,l),
(155,760,l),
(65,740,l)
);
},
{
closed = 1;
nodes = (
(470,0,l),
(460,265,l),
(465,340,ls),
(471,427,o),
(427,520,o),
(320,520,cs),
(270,520,o),
(193,470,o),
(145,433,c),
(155,380,l),
(175,406,o),
(232,449,o),
(284,449,cs),
(349,449,o),
(386,387,o),
(385,320,cs),
(380,0,l)
);
}
);
width = 530;
},
{
anchors = (
{
name = bottom;
pos = (230,0);
},
{
name = center;
pos = (283,375);
},
{
name = top;
pos = (335,750);
}
);
background = {
shapes = (
{
closed = 1;
nodes = (
(117,550,l),
(40,0,l),
(125,0,l),
(155,250,l),
(227,760,l),
(134,740,l)
);
},
{
closed = 1;
nodes = (
(345,0,l),
(435,0,l),
(462,265,l),
(478,340,ls),
(496,427,o),
(465,520,o),
(358,520,cs),
(308,520,o),
(224,470,o),
(182,440,c),
(173,380,l),
(197,406,o),
(260,449,o),
(312,449,cs),
(377,449,o),
(405,387,o),
(395,320,cs)
);
}
);
};
layerId = m003;
shapes = (
{
closed = 1;
nodes = (
(117,550,l),
(40,0,l),
(125,0,l),
(155,250,l),
(227,760,l),
(134,740,l)
);
},
{
closed = 1;
nodes = (
(435,0,l),
(462,265,l),
(474,322,ls),
(496,427,o),
(435,520,o),
(348,520,cs),
(298,520,o),
(198,460,o),
(170,430,c),
(172,370,l),
(197,406,o),
(250,449,o),
(302,449,cs),
(367,449,o),
(405,387,o),
(395,320,cs),
(345,0,l)
);
}
);
width = 530;
},
{
anchors = (
{
name = bottom;
pos = (265,0);
},
{
name = center;
pos = (265,375);
},
{
name = top;
pos = (265,750);
}
);
background = {
shapes = (
{
closed = 1;
nodes = (
(75,550,l),
(75,0,l),
(160,0,l),
(155,250,l),
(155,760,l),
(65,740,l)
);
},
{
closed = 1;
nodes = (
(470,0,l),
(460,265,l),
(465,340,ls),
(471,427,o),
(427,520,o),
(320,520,cs),
(270,520,o),
(193,470,o),
(145,433,c),
(155,380,l),
(175,406,o),
(232,449,o),
(284,449,cs),
(349,449,o),
(386,387,o),
(385,320,cs),
(380,0,l)
);
}
);
};
layerId = m004;
shapes = (
{
closed = 1;
nodes = (
(75,540,l),
(75,0,l),
(190,0,l),
(185,250,l),
(185,760,l),
(65,730,l)
);
},
{
closed = 1;
nodes = (
(470,0,l),
(460,265,l),
(465,340,ls),
(471,427,o),
(427,520,o),
(320,520,cs),
(270,520,o),
(193,470,o),
(145,433,c),
(155,380,l),
(177,409,o),
(224,424,o),
(261,424,cs),
(314,424,o),
(356,391,o),
(355,320,cs),
(350,0,l)
);
}
);
width = 530;
},
{
anchors = (
{
name = bottom;
pos = (230,0);
},
{
name = center;
pos = (283,375);
},
{
name = top;
pos = (335,750);
}
);
background = {
shapes = (
{
closed = 1;
nodes = (
(75,550,l),
(75,0,l),
(160,0,l),
(155,250,l),
(155,760,l),
(65,740,l)
);
},
{
closed = 1;
nodes = (
(470,0,l),
(460,265,l),
(465,340,ls),
(471,427,o),
(427,520,o),
(320,520,cs),
(270,520,o),
(193,470,o),
(145,433,c),
(155,380,l),
(175,406,o),
(232,449,o),
(284,449,cs),
(349,449,o),
(386,387,o),
(385,320,cs),
(380,0,l)
);
}
);
};
layerId = m005;
shapes = (
{
closed = 1;
nodes = (
(116,540,l),
(40,0,l),
(155,0,l),
(185,250,l),
(257,760,l),
(132,730,l)
);
},
{
closed = 1;
nodes = (
(435,0,l),
(462,265,l),
(478,340,ls),
(496,427,o),
(465,520,o),
(358,520,cs),
(308,520,o),
(224,470,o),
(171,433,c),
(173,380,l),
(199,409,o),
(248,424,o),
(285,424,cs),
(338,424,o),
(376,391,o),
(365,320,cs),
(315,0,l)
);
}
);
width = 530;
},
{
anchors = (
{
name = bottom;
pos = (265,0);
},
{
name = center;
pos = (265,375);
},
{
name = top;
pos = (265,750);
}
);
layerId = "7BE518C1-5919-420B-B6AE-125B8031F769";
shapes = (
{
closed = 1;
nodes = (
(75,565,l),
(75,0,l),
(115,0,l),
(110,250,l),
(110,760,l),
(65,755,l)
);
},
{
closed = 1;
nodes = (
(470,0,l),
(460,265,l),
(465,340,ls),
(471,427,o),
(427,520,o),
(320,520,cs),
(270,520,o),
(193,470,o),
(145,433,c),
(155,380,l),
(172,402,o),
(244,487,o),
(319,487,cs),
(402,487,o),
(431,381,o),
(430,320,cs),
(425,0,l)
);
}
);
width = 530;
}
);
unicode = 104;
changeCount = 2;
},
{
glyphname = hbar;
lastChange = "2024-11-15 10:07:07 +0000";
layers = (
{
layerId = m002;
shapes = (
{
ref = h;
},
{
closed = 1;
nodes = (
(250,635,l),
(150,630,l),
(80,630,l),
(0,635,l),
(0,565,l),
(80,570,l),
(150,570,l),
(250,565,l)
);
}
);
width = 530;
},
{
layerId = m003;
shapes = (
{
ref = h;
},
{
closed = 1;
nodes = (
(300,655,l),
(200,650,l),
(130,650,l),
(50,655,l),
(50,585,l),
(130,590,l),
(200,590,l),
(300,585,l)
);
}
);
width = 530;
},
{
layerId = m004;
shapes = (
{
ref = h;
},
{
closed = 1;
nodes = (
(270,655,l),
(150,650,l),
(80,650,l),
(0,655,l),
(0,565,l),
(80,570,l),
(150,570,l),
(270,565,l)
);
}
);
width = 530;
},
{
layerId = m005;
shapes = (
{
ref = h;
},
{
closed = 1;
nodes = (
(270,655,l),
(150,650,l),
(80,650,l),
(0,655,l),
(0,565,l),
(80,570,l),
(150,570,l),
(270,565,l)
);
}
);
width = 530;
},
{
layerId = "7BE518C1-5919-420B-B6AE-125B8031F769";
shapes = (
{
alignment = -1;
ref = h;
},
{
closed = 1;
nodes = (
(220,605,l),
(150,600,l),
(80,600,l),
(0,605,l),
(0,565,l),
(80,570,l),
(150,570,l),
(220,565,l)
);
}
);
width = 530;
}
);
unicode = 295;
changeCount = 2;
},
{
glyphname = i;
lastChange = "2024-11-15 10:07:07 +0000";
layers = (
{
anchors = (
{
name = bottom;
pos = (120,0);
}
);
background = {
anchors = (
{
name = bottom;
pos = (120,0);
}
);
shapes = (
{
closed = 1;
nodes = (
(90,250,l),
(85,0,l),
(180,0,l),
(165,250,l),
(165,510,l),
(75,490,l)
);
},
{
closed = 1;
nodes = (
(151,623,o),
(175,648,o),
(175,679,cs),
(175,709,o),
(151,733,o),
(121,733,cs),
(90,733,o),
(65,709,o),
(65,679,cs),
(65,648,o),
(90,623,o),
(121,623,cs)
);
}
);
};
layerId = m002;
shapes = (
{
closed = 1;
nodes = (
(90,250,l),
(85,0,l),
(180,0,l),
(165,250,l),
(165,510,l),
(75,490,l)
);
},
{
closed = 1;
nodes = (
(151,623,o),
(175,648,o),
(175,679,cs),
(175,709,o),
(151,733,o),
(121,733,cs),
(90,733,o),
(65,709,o),
(65,679,cs),
(65,648,o),
(90,623,o),
(121,623,cs)
);
}
);
width = 240;
},
{
anchors = (
{
name = bottom;
pos = (85,0);
}
);
background = {
anchors = (
{
name = bottom;
pos = (120,0);
}
);
shapes = (
{
closed = 1;
nodes = (
(90,250,l),
(85,0,l),
(180,0,l),
(165,250,l),
(165,510,l),
(75,490,l)
);
},
{
closed = 1;
nodes = (
(151,623,o),
(175,648,o),
(175,679,cs),
(175,709,o),
(151,733,o),
(121,733,cs),
(90,733,o),
(65,709,o),
(65,679,cs),
(65,648,o),
(90,623,o),
(121,623,cs)
);
}
);
};
layerId = m003;
shapes = (
{
closed = 1;
nodes = (
(90,250,l),
(50,0,l),
(145,0,l),
(165,250,l),
(202,510,l),
(109,490,l)
);
},
{
closed = 1;
nodes = (
(211,623,o),
(235,648,o),
(235,679,cs),
(235,709,o),
(211,733,o),
(181,733,cs),
(150,733,o),
(125,709,o),
(125,679,cs),
(125,648,o),
(150,623,o),
(181,623,cs)
);
}
);
width = 240;
},
{
anchors = (
{
name = bottom;
pos = (135,0);
}
);
background = {
anchors = (
{
name = bottom;
pos = (120,0);
}
);
shapes = (
{
closed = 1;
nodes = (
(90,250,l),
(85,0,l),
(180,0,l),
(165,250,l),
(165,510,l),
(75,490,l)
);
},
{
closed = 1;
nodes = (
(151,623,o),
(175,648,o),
(175,679,cs),
(175,709,o),
(151,733,o),
(121,733,cs),
(90,733,o),
(65,709,o),
(65,679,cs),
(65,648,o),
(90,623,o),
(121,623,cs)
);
}
);
};
layerId = m004;
shapes = (
{
closed = 1;
nodes = (
(90,250,l),
(85,0,l),
(210,0,l),
(195,250,l),
(195,520,l),
(75,490,l)
);
},
{
closed = 1;
nodes = (
(174,608,o),
(205,640,o),
(205,679,cs),
(205,717,o),
(174,748,o),
(136,748,cs),
(97,748,o),
(65,717,o),
(65,679,cs),
(65,640,o),
(97,608,o),
(136,608,cs)
);
}
);
width = 270;
},
{
anchors = (
{
name = bottom;
pos = (100,0);
}
);
background = {
anchors = (
{
name = bottom;
pos = (120,0);
}
);
shapes = (
{
closed = 1;
nodes = (
(90,250,l),
(85,0,l),
(180,0,l),
(165,250,l),
(165,510,l),
(75,490,l)
);
},
{
closed = 1;
nodes = (
(151,623,o),
(175,648,o),
(175,679,cs),
(175,709,o),
(151,733,o),
(121,733,cs),
(90,733,o),
(65,709,o),
(65,679,cs),
(65,648,o),
(90,623,o),
(121,623,cs)
);
}
);
};
layerId = m005;
shapes = (
{
closed = 1;
nodes = (
(90,250,l),
(50,0,l),
(175,0,l),
(195,250,l),
(233,520,l),
(109,490,l)
);
},
{
closed = 1;
nodes = (
(224,608,o),
(260,640,o),
(265,679,cs),
(271,717,o),
(244,748,o),
(206,748,cs),
(167,748,o),
(131,717,o),
(125,679,cs),
(120,640,o),
(147,608,o),
(186,608,cs)
);
}
);
width = 270;
},
{
anchors = (
{
name = bottom;
pos = (98,0);
}
);
layerId = "7BE518C1-5919-420B-B6AE-125B8031F769";
shapes = (
{
closed = 1;
nodes = (
(90,250,l),
(85,0,l),
(135,0,l),
(120,250,l),
(120,495,l),
(75,490,l)
);
},
{
closed = 1;
nodes = (
(117,646,o),
(130,660,o),
(130,679,cs),
(130,697,o),
(117,711,o),
(99,711,cs),
(80,711,o),
(65,697,o),
(65,679,cs),
(65,660,o),
(80,646,o),
(99,646,cs)
);
}
);
width = 195;
}
);
unicode = 105;
changeCount = 2;
},
{
glyphname = idotless;
lastChange = "2024-11-15 10:07:07 +0000";
layers = (
{
anchors = (
{
name = bottom;
pos = (120,0);
},
{
name = ogonek;
pos = (180,0);
},
{
name = top;
pos = (120,500);
}
);
layerId = m002;
shapes = (
{
closed = 1;
nodes = (
(90,250,l),
(85,0,l),
(180,0,l),
(165,250,l),
(165,510,l),
(75,490,l)
);
}
);
width = 240;
},
{
anchors = (
{
name = bottom;
pos = (85,0);
},
{
name = ogonek;
pos = (145,0);
},
{
name = top;
pos = (155,500);
}
);
layerId = m003;
shapes = (
{
closed = 1;
nodes = (
(90,250,l),
(50,0,l),
(145,0,l),
(165,250,l),
(202,510,l),
(109,490,l)
);
}
);
width = 240;
},
{
anchors = (
{
name = bottom;
pos = (135,0);
},
{
name = ogonek;
pos = (210,0);
},
{
name = top;
pos = (135,500);
}
);
layerId = m004;
shapes = (
{
closed = 1;
nodes = (
(90,250,l),
(85,0,l),
(210,0,l),
(195,250,l),
(195,520,l),
(75,490,l)
);
}
);
width = 270;
},
{
anchors = (
{
name = bottom;
pos = (100,0);
},
{
name = ogonek;
pos = (175,0);
},
{
name = top;
pos = (170,500);
}
);
layerId = m005;
shapes = (
{
closed = 1;
nodes = (
(90,250,l),
(50,0,l),
(175,0,l),
(195,250,l),
(233,520,l),
(109,490,l)
);
}
);
width = 270;
},
{
anchors = (
{
name = bottom;
pos = (98,0);
},
{
name = ogonek;
pos = (135,0);
},
{
name = top;
pos = (98,500);
}
);
layerId = "7BE518C1-5919-420B-B6AE-125B8031F769";
shapes = (
{
closed = 1;
nodes = (
(90,250,l),
(85,0,l),
(135,0,l),
(120,250,l),
(120,495,l),
(75,490,l)
);
}
);
width = 195;
}
);
metricWidth = "=i";
unicode = 305;
changeCount = 2;
},
{
glyphname = j;
lastChange = "2024-11-15 10:07:07 +0000";
layers = (
{
background = {
shapes = (
{
closed = 1;
nodes = (
(108,-159,o),
(79,-187,o),
(-42,-168,c),
(-43,-258,l),
(75,-282,o),
(187,-165,o),
(181,-46,cs),
(165,250,l),
(165,510,l),
(75,490,l),
(90,250,l),
(92,32,l),
(101,-73,ls)
);
},
{
closed = 1;
nodes = (
(151,623,o),
(175,648,o),
(175,679,cs),
(175,709,o),
(151,733,o),
(121,733,cs),
(90,733,o),
(65,709,o),
(65,679,cs),
(65,648,o),
(90,623,o),
(121,623,cs)
);
}
);
};
layerId = m002;
shapes = (
{
closed = 1;
nodes = (
(75,-282,o),
(187,-165,o),
(181,-46,cs),
(165,250,l),
(165,510,l),
(75,490,l),
(90,250,l),
(92,32,l),
(101,-73,ls),
(108,-159,o),
(79,-187,o),
(-42,-168,c),
(-43,-258,l)
);
},
{
closed = 1;
nodes = (
(151,623,o),
(175,648,o),
(175,679,cs),
(175,709,o),
(151,733,o),
(121,733,cs),
(90,733,o),
(65,709,o),
(65,679,cs),
(65,648,o),
(90,623,o),
(121,623,cs)
);
}
);
width = 231;
},
{
background = {
shapes = (
{
closed = 1;
nodes = (
(108,-159,o),
(79,-187,o),
(-42,-168,c),
(-43,-258,l),
(75,-282,o),
(187,-165,o),
(181,-46,cs),
(165,250,l),
(165,510,l),
(75,490,l),
(90,250,l),
(92,32,l),
(101,-73,ls)
);
},
{
closed = 1;
nodes = (
(151,623,o),
(175,648,o),
(175,679,cs),
(175,709,o),
(151,733,o),
(121,733,cs),
(90,733,o),
(65,709,o),
(65,679,cs),
(65,648,o),
(90,623,o),
(121,623,cs)
);
}
);
};
layerId = m003;
shapes = (
{
closed = 1;
nodes = (
(0,-282,o),
(129,-165,o),
(139,-46,cs),
(165,250,l),
(202,510,l),
(109,490,l),
(90,250,l),
(61,32,l),
(56,-73,ls),
(51,-159,o),
(18,-187,o),
(-101,-168,c),
(-114,-258,l)
);
},
{
closed = 1;
nodes = (
(211,623,o),
(235,648,o),
(235,679,cs),
(235,709,o),
(211,733,o),
(181,733,cs),
(150,733,o),
(125,709,o),
(125,679,cs),
(125,648,o),
(150,623,o),
(181,623,c)
);
}
);
width = 231;
},
{
background = {
shapes = (
{
closed = 1;
nodes = (
(138,-159,o),
(109,-187,o),
(-12,-168,c),
(-13,-258,l),
(105,-282,o),
(217,-165,o),
(211,-46,cs),
(195,250,l),
(195,510,l),
(105,490,l),
(120,250,l),
(122,32,l),
(131,-73,ls)
);
},
{
closed = 1;
nodes = (
(181,623,o),
(205,648,o),
(205,679,cs),
(205,709,o),
(181,733,o),
(151,733,cs),
(120,733,o),
(95,709,o),
(95,679,cs),
(95,648,o),
(120,623,o),
(151,623,cs)
);
}
);
};
layerId = m004;
shapes = (
{
closed = 1;
nodes = (
(105,-282,o),
(217,-165,o),
(211,-46,cs),
(195,250,l),
(195,520,l),
(70,490,l),
(85,250,l),
(87,32,l),
(101,-73,ls),
(112,-159,o),
(109,-147,o),
(-12,-128,c),
(-13,-258,l)
);
},
{
closed = 1;
nodes = (
(174,608,o),
(205,640,o),
(205,679,cs),
(205,717,o),
(174,748,o),
(136,748,cs),
(97,748,o),
(65,717,o),
(65,679,cs),
(65,640,o),
(97,608,o),
(136,608,cs)
);
}
);
width = 261;
},
{
background = {
shapes = (
{
closed = 1;
nodes = (
(138,-159,o),
(109,-187,o),
(-12,-168,c),
(-13,-258,l),
(105,-282,o),
(217,-165,o),
(211,-46,cs),
(195,250,l),
(195,510,l),
(105,490,l),
(120,250,l),
(122,32,l),
(131,-73,ls)
);
},
{
closed = 1;
nodes = (
(181,623,o),
(205,648,o),
(205,679,cs),
(205,709,o),
(181,733,o),
(151,733,cs),
(120,733,o),
(95,709,o),
(95,679,cs),
(95,648,o),
(120,623,o),
(151,623,cs)
);
}
);
};
layerId = m005;
shapes = (
{
closed = 1;
nodes = (
(30,-282,o),
(159,-165,o),
(169,-46,cs),
(195,250,l),
(233,520,l),
(104,490,l),
(85,250,l),
(56,32,l),
(56,-73,ls),
(55,-159,o),
(53,-147,o),
(-65,-128,c),
(-84,-258,l)
);
},
{
closed = 1;
nodes = (
(224,608,o),
(260,640,o),
(265,679,cs),
(271,717,o),
(244,748,o),
(206,748,cs),
(167,748,o),
(131,717,o),
(125,679,cs),
(120,640,o),
(147,608,o),
(186,608,cs)
);
}
);
width = 261;
},
{
layerId = "7BE518C1-5919-420B-B6AE-125B8031F769";
shapes = (
{
closed = 1;
nodes = (
(30,-282,o),
(142,-165,o),
(136,-46,cs),
(120,250,l),
(120,495,l),
(83,490,l),
(98,250,l),
(100,32,l),
(101,-73,ls),
(102,-159,o),
(34,-247,o),
(-87,-228,c),
(-88,-258,l)
);
},
{
closed = 1;
nodes = (
(117,646,o),
(130,660,o),
(130,679,cs),
(130,697,o),
(117,711,o),
(99,711,cs),
(80,711,o),
(65,697,o),
(65,679,cs),
(65,660,o),
(80,646,o),
(99,646,cs)
);
}
);
width = 186;
}
);
unicode = 106;
changeCount = 2;
},
{
glyphname = jdotless;
lastChange = "2024-11-15 10:07:07 +0000";
layers = (
{
anchors = (
{
name = bottom;
pos = (116,-300);
},
{
name = top;
pos = (116,500);
}
);
layerId = m002;
shapes = (
{
closed = 1;
nodes = (
(108,-159,o),
(79,-187,o),
(-42,-168,c),
(-43,-258,l),
(75,-282,o),
(187,-165,o),
(181,-46,cs),
(165,250,l),
(165,510,l),
(75,490,l),
(90,250,l),
(92,32,l),
(101,-73,ls)
);
}
);
width = 231;
},
{
anchors = (
{
name = bottom;
pos = (39,-300);
},
{
name = top;
pos = (151,500);
}
);
layerId = m003;
shapes = (
{
closed = 1;
nodes = (
(51,-159,o),
(18,-187,o),
(-101,-168,c),
(-114,-258,l),
(0,-282,o),
(129,-165,o),
(139,-46,cs),
(165,250,l),
(202,510,l),
(109,490,l),
(90,250,l),
(61,32,l),
(56,-73,ls)
);
}
);
width = 231;
},
{
anchors = (
{
name = bottom;
pos = (131,-300);
},
{
name = top;
pos = (131,500);
}
);
layerId = m004;
shapes = (
{
closed = 1;
nodes = (
(112,-159,o),
(109,-147,o),
(-12,-128,c),
(-13,-258,l),
(105,-282,o),
(217,-165,o),
(211,-46,cs),
(195,250,l),
(195,520,l),
(70,490,l),
(85,250,l),
(87,32,l),
(101,-73,ls)
);
}
);
width = 261;
},
{
anchors = (
{
name = bottom;
pos = (54,-300);
},
{
name = top;
pos = (166,500);
}
);
layerId = m005;
shapes = (
{
closed = 1;
nodes = (
(55,-159,o),
(53,-147,o),
(-65,-128,c),
(-84,-258,l),
(30,-282,o),
(159,-165,o),
(169,-46,cs),
(195,250,l),
(233,520,l),
(104,490,l),
(85,250,l),
(56,32,l),
(56,-73,ls)
);
}
);
width = 261;
},
{
anchors = (
{
name = bottom;
pos = (94,-300);
},
{
name = top;
pos = (94,500);
}
);
layerId = "7BE518C1-5919-420B-B6AE-125B8031F769";
shapes = (
{
closed = 1;
nodes = (
(102,-159,o),
(34,-247,o),
(-87,-228,c),
(-88,-258,l),
(30,-282,o),
(142,-165,o),
(136,-46,cs),
(120,250,l),
(120,495,l),
(83,490,l),
(98,250,l),
(100,32,l),
(101,-73,ls)
);
}
);
width = 186;
}
);
metricWidth = "=j";
unicode = 567;
changeCount = 2;
},
